<?xml version="1.0" encoding="UTF-8" standalone="no"?>
<svg
   viewBox="0 -3.268 64 68.414"
   width="2232"
   height="2500"
   version="1.1"
   id="svg1"
   sodipodi:docname="bluesky-1.svg"
   inkscape:version="1.4 (e7c3feb1, 2024-10-09)"
   xmlns:inkscape="http://www.inkscape.org/namespaces/inkscape"
   xmlns:sodipodi="http://sodipodi.sourceforge.net/DTD/sodipodi-0.dtd"
   xmlns="http://www.w3.org/2000/svg"
   xmlns:svg="http://www.w3.org/2000/svg">
  <defs
     id="defs1" />
  <sodipodi:namedview
     id="namedview1"
     pagecolor="#ffffff"
     bordercolor="#000000"
     borderopacity="0.25"
     inkscape:showpageshadow="2"
     inkscape:pageopacity="0.0"
     inkscape:pagecheckerboard="0"
     inkscape:deskcolor="#d1d1d1"
     inkscape:zoom="0.095778294"
     inkscape:cx="1790.5936"
     inkscape:cy="939.67011"
     inkscape:window-width="1512"
     inkscape:window-height="615"
     inkscape:window-x="0"
     inkscape:window-y="38"
     inkscape:window-maximized="0"
     inkscape:current-layer="svg1" />
  <path
     fill="#0085ff"
     d="M 13.873,3.805 C 21.21,9.332 29.103,20.537 32,26.55 V 33.716362 42.432 c 0,-0.338 -0.13,0.044 -0.41,0.867 -1.512,4.456 -7.418,21.847 -20.923,7.944 C 3.556,43.923 6.848,36.603 19.792,34.393 12.387,35.657 4.062,33.568 1.778,25.378 1.12,23.022 0,8.51 0,6.55 0,-3.268 8.579,-0.182 13.873,3.805 Z m 36.254,0 C 42.79,9.332 34.897,20.537 32,26.55 v 15.882 c 0,-0.338 0.13,0.044 0.41,0.867 1.512,4.456 7.418,21.847 20.923,7.944 7.111,-7.32 3.819,-14.64 -9.125,-16.85 7.405,1.264 15.73,-0.825 18.014,-9.015 C 62.88,23.022 64,8.51 64,6.55 64,-3.268 55.422,-0.182 50.127,3.805 Z"
     id="path1"
     sodipodi:nodetypes="ccccccccsccccccccsc"
     style="fill:#1476d1;fill-opacity:1" />
</svg>
