<?xml version="1.0" encoding="UTF-8" standalone="no"?>
<!DOCTYPE svg PUBLIC "-//W3C//DTD SVG 1.1//EN" "http://www.w3.org/Graphics/SVG/1.1/DTD/svg11.dtd">
<svg width="100%" height="100%" viewBox="0 0 500 500" version="1.1" xmlns="http://www.w3.org/2000/svg" xmlns:xlink="http://www.w3.org/1999/xlink" xml:space="preserve" xmlns:serif="http://www.serif.com/" style="fill-rule:evenodd;clip-rule:evenodd;stroke-linejoin:round;stroke-miterlimit:2;">
    <g>
        <path d="M411.827,344.685C381.07,344.684 348.226,338.96 323.605,321.658C296.625,302.698 277.391,272.119 246.435,260.754C236.945,257.27 227.158,255.874 217.234,255.874C194.839,255.874 171.747,262.981 149.806,269.23C132.803,274.073 114.439,278.208 96.812,278.208C81.613,278.208 66.962,275.134 54.206,266.787C36.43,255.156 25.517,234.154 25.018,212.917C24.52,191.68 34.039,170.656 49.506,156.095C69.676,137.107 97.826,129.565 124.956,123.964C161.828,116.351 199.775,110.882 233.604,94.355C257.07,82.891 277.732,66.477 300.265,53.272C320.119,41.637 342.465,32.351 365.247,32.351C368.32,32.351 371.403,32.52 374.486,32.875C400.432,35.862 425.798,55.414 428.174,81.423C430.906,111.325 404.318,137.707 405.774,167.699C406.788,188.56 421.137,206.162 435.713,221.121C450.288,236.081 466.396,251.026 472.63,270.961C481.93,300.7 463.076,341.755 429.807,344.055C423.947,344.46 417.931,344.685 411.827,344.685Z" style="fill:rgb(212,73,93);fill-rule:nonzero;"/>
        <path d="M77.474,331.112C72.173,331.112 66.824,329.963 61.891,327.985C53.432,324.594 46.064,318.925 39.455,312.649C34.391,307.843 29.501,302.249 28.247,295.381C26.992,288.514 30.833,280.301 37.713,279.115C38.338,279.007 38.963,278.959 39.587,278.959C42.668,278.959 45.727,280.148 48.629,281.318C59.217,285.588 69.804,289.857 80.392,294.128C86.809,296.716 103.134,302.369 104.875,310.385C106.637,318.489 95.008,326.922 88.601,329.235C85.028,330.526 81.263,331.112 77.474,331.112Z" style="fill:rgb(206,207,207);fill-rule:nonzero;"/>
        <path d="M447.306,423.007L447.306,422.632L310.197,422.632L310.197,237.299L446.931,237.299L446.931,423.007L447.306,423.007L447.306,422.632L447.306,423.007L447.681,423.007L447.681,236.549L309.447,236.549L309.447,423.382L447.681,423.382L447.681,423.007L447.306,423.007Z" style="fill:rgb(0,14,42);fill-rule:nonzero;"/>
        <path d="M440.698,245.871L440.323,245.871L440.323,413.686L316.807,413.686L316.807,246.246L440.698,246.246L440.698,245.871L440.323,245.871L440.698,245.871L440.698,245.496L316.057,245.496L316.057,414.436L441.073,414.436L441.073,245.496L440.698,245.496L440.698,245.871Z" style="fill:rgb(0,14,42);fill-rule:nonzero;"/>
        <path d="M394.124,350.535L394.124,350.16L363.378,350.16L363.378,340.679L393.749,340.679L393.749,350.535L394.124,350.535L394.124,350.16L394.124,350.535L394.499,350.535L394.499,339.929L362.628,339.929L362.628,350.91L394.499,350.91L394.499,350.535L394.124,350.535Z" style="fill:rgb(0,14,42);fill-rule:nonzero;"/>
        <path d="M398.031,359.86L398.031,359.485L359.471,359.485L359.471,356.025L397.656,356.025L397.656,359.86L398.031,359.86L398.031,359.485L398.031,359.86L398.406,359.86L398.406,355.275L358.721,355.275L358.721,360.235L398.406,360.235L398.406,359.86L398.031,359.86Z" style="fill:rgb(0,14,42);fill-rule:nonzero;"/>
        <path d="M330.628,410.482L320.077,410.482L320.077,411.232L325.437,411.232L325.437,410.482L320.077,410.482L320.077,411.232L330.628,411.232L330.628,410.482Z" style="fill:rgb(0,14,42);fill-rule:nonzero;"/>
        <path d="M320.077,407.715L323.927,407.715L323.927,406.965L320.077,406.965" style="fill:rgb(0,14,42);fill-rule:nonzero;"/>
        <path d="M375.017,342.33L382.865,342.33L382.865,341.58L375.017,341.58" style="fill:rgb(0,14,42);fill-rule:nonzero;"/>
        <path d="M370.148,345.208L387.734,345.208L387.734,344.458L370.148,344.458" style="fill:rgb(0,14,42);fill-rule:nonzero;"/>
        <path d="M375.489,348.565L382.393,348.565L382.393,347.815L375.489,347.815" style="fill:rgb(0,14,42);fill-rule:nonzero;"/>
        <path d="M440.698,331.068L316.432,331.068L316.432,331.818L440.698,331.818" style="fill:rgb(0,14,42);fill-rule:nonzero;"/>
        <path d="M394.124,263.568L394.124,263.193L363.378,263.193L363.378,253.712L393.749,253.712L393.749,263.568L394.124,263.568L394.124,263.193L394.124,263.568L394.499,263.568L394.499,252.962L362.628,252.962L362.628,263.943L394.499,263.943L394.499,263.568L394.124,263.568Z" style="fill:rgb(0,14,42);fill-rule:nonzero;"/>
        <path d="M398.031,272.894L398.031,272.519L359.471,272.519L359.471,269.06L397.656,269.06L397.656,272.894L398.031,272.894L398.031,272.519L398.031,272.894L398.406,272.894L398.406,268.31L358.721,268.31L358.721,273.269L398.406,273.269L398.406,272.894L398.031,272.894Z" style="fill:rgb(0,14,42);fill-rule:nonzero;"/>
        <path d="M421.431,328.422L437.11,328.422L437.11,327.672L421.431,327.672" style="fill:rgb(0,14,42);fill-rule:nonzero;"/>
        <path d="M434.163,325.864L437.11,325.864L437.11,325.114L434.163,325.114" style="fill:rgb(0,14,42);fill-rule:nonzero;"/>
        <path d="M369.964,255.631L387.876,255.631L387.876,254.881L369.964,254.881" style="fill:rgb(0,14,42);fill-rule:nonzero;"/>
        <path d="M366.429,258.615L391.412,258.615L391.412,257.865L366.429,257.865" style="fill:rgb(0,14,42);fill-rule:nonzero;"/>
        <path d="M315.601,248.49L321.809,248.49L321.809,247.74L315.601,247.74" style="fill:rgb(0,14,42);fill-rule:nonzero;"/>
        <path d="M315.601,252.646L334.795,252.646L334.795,251.896L315.601,251.896" style="fill:rgb(0,14,42);fill-rule:nonzero;"/>
        <path d="M88.313,230.859C109.714,235.528 131.115,240.197 152.517,244.867C142.734,215.714 179.179,196.646 169.397,167.493C147.996,162.824 126.595,158.155 105.193,153.486C114.976,182.639 78.53,201.707 88.313,230.859Z" style="fill:white;fill-rule:nonzero;"/>
        <path d="M119.122,212.897L119.052,213.266L131.067,215.539L129.139,225.725L117.493,223.522L119.491,212.967L119.122,212.897L119.052,213.266L119.122,212.897L118.754,212.828L116.617,224.119L129.737,226.602L131.944,214.942L118.823,212.459L118.754,212.828L119.122,212.897ZM131.661,212.087L131.731,211.719L120.537,209.6L120.686,208.813C121.053,206.873 121.57,205.356 122.217,204.269C122.872,203.166 123.716,202.208 124.756,201.387C125.788,200.571 128.108,199.158 131.667,197.192L131.664,197.193C132.634,196.667 133.401,196.125 133.965,195.552C134.528,194.98 134.892,194.369 135.015,193.718C135.078,193.385 135.11,193.064 135.11,192.755C135.112,191.961 134.892,191.24 134.453,190.639C133.832,189.789 132.79,189.259 131.398,188.996C131.002,188.921 130.615,188.883 130.237,188.883C129.16,188.882 128.159,189.195 127.27,189.809C126.033,190.669 125.097,192.294 124.37,194.656L124.729,194.766L124.843,194.409L113.314,190.714L113.2,191.071L113.56,191.174C114.77,186.979 116.951,183.875 120.12,181.798C122.205,180.434 124.82,179.741 127.997,179.74C129.602,179.74 131.35,179.918 133.238,180.275C137.61,181.103 140.929,182.676 143.229,184.968L143.23,184.968C145.759,187.483 146.996,190.247 146.999,193.329C146.999,194.086 146.925,194.863 146.774,195.66C146.46,197.316 145.704,198.822 144.487,200.201C143.29,201.559 141,203.14 137.642,204.883L137.641,204.883C135.265,206.133 133.701,207.191 132.906,208.153C132.128,209.102 131.6,210.395 131.293,212.018L131.661,212.087L131.731,211.719L131.661,212.087L132.03,212.157C132.321,210.616 132.815,209.444 133.486,208.629C134.137,207.827 135.653,206.769 137.989,205.547L137.988,205.548C141.386,203.78 143.732,202.183 145.049,200.698C146.345,199.232 147.172,197.592 147.511,195.8C147.67,194.959 147.749,194.135 147.749,193.329C147.752,190.038 146.399,187.051 143.758,184.436C141.32,182.008 137.849,180.384 133.377,179.538C131.451,179.174 129.658,178.99 127.997,178.99C124.713,178.99 121.94,179.71 119.709,181.171C116.379,183.348 114.083,186.636 112.839,190.967L112.739,191.317L124.976,195.239L125.087,194.876C125.785,192.59 126.686,191.117 127.696,190.427C128.47,189.895 129.302,189.635 130.237,189.633C130.565,189.633 130.905,189.666 131.259,189.733C132.545,189.977 133.384,190.444 133.847,191.081C134.188,191.551 134.359,192.093 134.36,192.755C134.36,193.012 134.333,193.287 134.278,193.579C134.19,194.044 133.921,194.526 133.43,195.026C132.94,195.525 132.232,196.033 131.307,196.534L131.304,196.535L131.304,196.536C127.728,198.513 125.407,199.92 124.291,200.798C123.183,201.673 122.274,202.704 121.572,203.886C120.861,205.085 120.328,206.678 119.949,208.673L119.661,210.198L131.96,212.526L132.03,212.157L131.661,212.087Z" style="fill:rgb(0,14,42);fill-rule:nonzero;"/>
        <path d="M320.388,200.566C339.248,189.425 358.108,178.285 376.968,167.145C349.963,152.437 363.696,113.666 336.691,98.959C317.831,110.099 298.972,121.239 280.111,132.379C307.116,147.087 293.383,185.858 320.388,200.566Z" style="fill:white;fill-rule:nonzero;"/>
        <path d="M330.459,163.576L330.643,163.903L341.295,157.898L346.387,166.928L336.061,172.749L330.786,163.392L330.459,163.576L330.643,163.903L330.459,163.576L330.132,163.76L335.776,173.771L347.408,167.213L341.58,156.876L329.948,163.434L330.132,163.76L330.459,163.576ZM339.524,154.875L339.34,154.548L329.417,160.143L329.023,159.445C328.053,157.725 327.471,156.233 327.264,154.984C327.172,154.425 327.125,153.864 327.125,153.299C327.125,152.586 327.199,151.869 327.348,151.145C327.611,149.856 328.474,147.28 329.927,143.483L329.926,143.486C330.398,142.282 330.643,141.243 330.644,140.347C330.644,139.713 330.518,139.147 330.249,138.669C329.66,137.617 328.843,136.921 327.834,136.677C327.584,136.615 327.324,136.585 327.058,136.585C326.242,136.586 325.372,136.865 324.44,137.39C323.09,138.147 322.19,139.261 321.808,140.672C321.7,141.07 321.647,141.499 321.647,141.957C321.648,143.172 322.011,144.594 322.714,146.247L323.059,146.1L322.916,145.753L311.721,150.359L311.863,150.706L312.206,150.553C311.103,148.085 310.557,145.694 310.557,143.371C310.557,141.943 310.764,140.539 311.178,139.156C312.251,135.565 315.237,132.349 320.225,129.536C323.669,127.594 326.858,126.639 329.794,126.639C330.163,126.639 330.528,126.654 330.889,126.684C335.315,127.052 338.461,128.992 340.491,132.575C341.278,133.971 341.671,135.523 341.672,137.254L341.669,137.52C341.63,139.33 340.898,142.015 339.453,145.512L339.453,145.513C338.457,147.961 337.944,149.761 337.94,151.007L337.94,151.067L337.94,151.065C337.957,152.292 338.387,153.62 339.198,155.059L339.524,154.875L339.34,154.548L339.524,154.875L339.851,154.691C339.08,153.324 338.703,152.11 338.69,151.055L338.69,151.052L338.69,151.053L338.69,151.007C338.686,149.967 339.163,148.199 340.147,145.796L340.146,145.798C341.606,142.255 342.37,139.522 342.419,137.537C342.421,137.442 342.422,137.348 342.422,137.254C342.423,135.409 341.997,133.718 341.144,132.206C339.017,128.416 335.566,126.302 330.95,125.937C330.569,125.905 330.183,125.889 329.794,125.889C326.693,125.889 323.38,126.897 319.857,128.883C314.775,131.748 311.613,135.091 310.459,138.941C310.025,140.392 309.807,141.87 309.807,143.371C309.807,145.812 310.382,148.311 311.521,150.859L311.669,151.191L323.552,146.302L323.404,145.953C322.724,144.359 322.396,143.02 322.397,141.957C322.397,141.556 322.443,141.194 322.532,140.87C322.869,139.648 323.605,138.726 324.808,138.043C325.666,137.559 326.418,137.334 327.058,137.335C327.268,137.335 327.466,137.359 327.656,137.405C328.435,137.599 329.069,138.111 329.595,139.037C329.788,139.38 329.893,139.81 329.894,140.347C329.895,141.103 329.679,142.064 329.228,143.212L329.227,143.215C327.768,147.032 326.9,149.603 326.613,150.994C326.454,151.766 326.375,152.534 326.375,153.299C326.375,153.905 326.425,154.508 326.525,155.107C326.754,156.482 327.373,158.044 328.37,159.813L329.132,161.165L340.035,155.017L339.851,154.691L339.524,154.875Z" style="fill:rgb(0,14,42);fill-rule:nonzero;"/>
        <path d="M373.095,308.033C354.234,296.893 335.375,285.753 316.515,274.612C343.52,259.904 329.786,221.133 356.791,206.426C375.651,217.566 394.511,228.707 413.371,239.847C386.366,254.555 400.1,293.325 373.095,308.033Z" style="fill:white;fill-rule:nonzero;"/>
        <path d="M354.289,263.897L354.121,264.233L365.047,269.72L360.395,278.984L349.803,273.664L354.624,264.066L354.289,263.897L354.121,264.233L354.289,263.897L353.954,263.729L348.796,273.998L360.728,279.991L366.054,269.386L354.122,263.394L353.954,263.729L354.289,263.897ZM366.567,266.563L366.736,266.228L356.555,261.116L356.915,260.4C357.8,258.636 358.715,257.319 359.635,256.451C360.568,255.571 361.643,254.881 362.868,254.378C364.085,253.877 366.703,253.156 370.665,252.243L370.662,252.244C372.809,251.764 374.232,251.009 374.84,249.824C375.174,249.158 375.35,248.503 375.35,247.865C375.351,247.468 375.282,247.08 375.145,246.708C374.782,245.721 373.925,244.925 372.66,244.289C371.828,243.872 370.983,243.656 370.138,243.656C369.578,243.656 369.019,243.751 368.467,243.937C367.041,244.424 365.696,245.729 364.347,247.8L364.661,248.004L364.869,247.692L354.8,240.971L354.592,241.283L354.91,241.482C357.226,237.78 360.176,235.395 363.793,234.27C364.895,233.927 366.065,233.755 367.307,233.755C370.108,233.754 373.282,234.63 376.825,236.409C380.801,238.407 383.56,240.831 385.142,243.667C386.312,245.754 386.886,247.793 386.887,249.801C386.886,251.52 386.465,253.222 385.612,254.922C384.856,256.427 383.715,257.668 382.166,258.66C380.642,259.636 378.006,260.528 374.297,261.28C371.669,261.828 369.874,262.417 368.845,263.123C367.837,263.822 366.974,264.92 366.232,266.395L366.567,266.563L366.736,266.228L366.567,266.563L366.902,266.732C367.606,265.33 368.404,264.34 369.272,263.74C370.118,263.148 371.866,262.547 374.448,262.016C378.201,261.248 380.895,260.358 382.57,259.292C384.219,258.238 385.465,256.889 386.282,255.258C387.182,253.468 387.637,251.644 387.637,249.801C387.637,247.648 387.017,245.476 385.797,243.301C384.12,240.297 381.228,237.782 377.161,235.739C373.548,233.925 370.265,233.005 367.307,233.005C365.995,233.005 364.748,233.188 363.57,233.553C359.77,234.732 356.66,237.262 354.274,241.084L354.081,241.393L364.769,248.527L364.976,248.208C366.275,246.203 367.546,245.034 368.707,244.648C369.186,244.486 369.662,244.406 370.138,244.406C370.856,244.407 371.58,244.587 372.323,244.96C373.493,245.548 374.172,246.228 374.441,246.966C374.548,247.257 374.6,247.554 374.6,247.865C374.6,248.363 374.463,248.902 374.17,249.487C373.758,250.331 372.566,251.058 370.5,251.512L370.498,251.512L370.497,251.513C366.515,252.432 363.898,253.146 362.583,253.684C361.277,254.22 360.12,254.962 359.12,255.906C358.107,256.863 357.157,258.249 356.245,260.063L355.548,261.451L366.734,267.067L366.902,266.732L366.567,266.563Z" style="fill:rgb(0,14,42);fill-rule:nonzero;"/>
        <path d="M234.183,150.728C234.183,150.728 250.389,127.085 270.657,138.872C296.03,153.628 265.386,188.778 284.141,198.95C302.896,209.122 322.285,209.913 327.688,238.048C334.754,274.832 268.219,326.546 211.956,293.806C155.692,261.064 175.707,199.789 202.129,187.592C233.921,172.917 234.183,150.728 234.183,150.728Z" style="fill:rgb(0,14,42);fill-rule:nonzero;"/>
        <path d="M257.289,213.468L257.289,238.688C257.289,242.894 255.579,246.699 252.821,249.457C250.079,252.214 246.274,253.924 242.068,253.924C233.657,253.924 226.848,247.099 226.848,238.688L226.848,213.468L257.289,213.468Z" style="fill:rgb(232,138,122);fill-rule:nonzero;"/>
        <path d="M193.581,196.18C194.844,202.352 200.871,206.329 207.042,205.066C213.213,203.803 217.191,197.776 215.928,191.605C214.665,185.434 208.638,181.456 202.467,182.719C196.296,183.982 192.317,190.009 193.581,196.18Z" style="fill:rgb(232,138,122);fill-rule:nonzero;"/>
        <path d="M210.69,177.082L210.69,196.307C210.69,196.307 203.056,189.526 203.268,176.176L210.69,177.082Z" style="fill:rgb(0,14,42);fill-rule:nonzero;"/>
        <path d="M196.496,192.167L205.534,198.282L205.954,197.661L196.917,191.546" style="fill:rgb(0,14,42);fill-rule:nonzero;"/>
        <path d="M259.618,193.892C260.881,200.063 266.908,204.041 273.079,202.778C279.25,201.514 283.229,195.488 281.965,189.317C280.702,183.146 274.675,179.167 268.504,180.431C262.333,181.694 258.355,187.721 259.618,193.892Z" style="fill:rgb(232,138,122);fill-rule:nonzero;"/>
        <path d="M270.792,191.604C270.792,191.604 277.314,184.471 275.022,167.555L265.878,167.555L270.792,191.604Z" style="fill:rgb(0,14,42);fill-rule:nonzero;"/>
        <path d="M269.174,196.906L278.022,188.335L277.5,187.797L268.652,196.367" style="fill:rgb(0,14,42);fill-rule:nonzero;"/>
        <path d="M240.741,147.031C224.144,147.031 210.69,160.485 210.69,177.082L210.69,198.96C210.69,203.583 213.07,207.881 216.99,210.333L233.624,220.742C237.977,223.467 243.504,223.467 247.858,220.742L264.492,210.333C268.411,207.881 270.792,203.583 270.792,198.96L270.792,177.082C270.792,160.485 257.337,147.031 240.741,147.031Z" style="fill:rgb(232,138,122);fill-rule:nonzero;"/>
        <path d="M226.648,217.071L233.425,221.312C235.662,222.712 238.202,223.412 240.741,223.412C243.279,223.412 245.819,222.712 248.057,221.312L247.659,220.676C245.543,222 243.142,222.662 240.741,222.662C238.339,222.662 235.939,222 233.822,220.676L227.046,216.436L226.648,217.071Z" style="fill:rgb(0,14,42);fill-rule:nonzero;"/>
        <path d="M237.852,147.085L245.33,198.583L236.301,198.583L236.301,199.333L246.197,199.333L238.594,146.977L237.852,147.085Z" style="fill:rgb(0,14,42);fill-rule:nonzero;"/>
        <path d="M269.453,192.351C269.453,196.598 266.011,200.041 261.764,200.041C257.518,200.041 254.074,196.598 254.074,192.351C254.074,188.104 257.518,184.662 261.764,184.662C266.011,184.662 269.453,188.104 269.453,192.351Z" style="fill:rgb(230,117,97);fill-rule:nonzero;"/>
        <path d="M228.522,192.351C228.522,196.598 225.08,200.041 220.833,200.041C216.586,200.041 213.144,196.598 213.144,192.351C213.144,188.104 216.586,184.662 220.833,184.662C225.08,184.662 228.522,188.104 228.522,192.351Z" style="fill:rgb(230,117,97);fill-rule:nonzero;"/>
        <path d="M257.277,185.003C257.277,187.674 256.101,189.825 254.64,189.825C253.178,189.825 251.985,187.674 251.985,185.003C251.985,182.853 252.775,181.022 253.851,180.417L253.867,180.417L255.279,180.307C257.584,181.366 257.277,184.398 257.277,185.003Z" style="fill:rgb(0,14,42);fill-rule:nonzero;"/>
        <path d="M229.491,185.003C229.491,187.674 228.314,189.825 226.853,189.825C225.375,189.825 224.199,187.674 224.199,185.003C224.199,184.23 224.232,180.81 226.992,180.804L228.197,180.887C228.986,181.728 229.491,183.256 229.491,185.003Z" style="fill:rgb(0,14,42);fill-rule:nonzero;"/>
        <path d="M275.872,142.942C255.599,131.157 234.176,150.721 234.176,150.721C234.176,150.721 233.914,172.92 202.132,187.586C195.431,190.683 186.45,201.703 182.244,208.405C182.244,208.405 191.533,181.609 194.46,164.277C197.403,146.931 212.809,149.611 212.809,149.611C212.809,149.611 222.144,126.795 247.964,126.903C265.851,126.98 275.872,142.942 275.872,142.942Z" style="fill:rgb(0,14,42);fill-rule:nonzero;"/>
        <path d="M255.279,166.171C258.954,163.78 261.271,164.312 260.722,169.413L255.279,166.171Z" style="fill:rgb(0,14,42);fill-rule:nonzero;"/>
        <path d="M218.569,170.515C217.741,166.208 219.108,164.264 223.625,166.697L218.569,170.515Z" style="fill:rgb(0,14,42);fill-rule:nonzero;"/>
        <path d="M235.255,207.155C237.305,206.792 239.93,208.13 240.741,209.521C242.192,212.01 245.571,205.295 246.526,207.565C246.155,207.176 243.664,211.305 241.249,210.705C239.783,210.342 238.172,206.232 235.255,207.155Z" style="fill:rgb(0,14,42);fill-rule:nonzero;"/>
        <path d="M369.854,310.031C374.799,303.827 373.777,294.789 367.573,289.845L311.754,245.36C305.55,240.416 296.512,241.438 291.566,247.642C286.622,253.847 287.644,262.885 293.849,267.829L349.667,312.313C355.871,317.258 364.91,316.236 369.854,310.031Z" style="fill:rgb(232,138,122);fill-rule:nonzero;"/>
        <path d="M116.652,312.48C111.708,306.276 112.729,297.238 118.934,292.293L174.753,247.809C180.957,242.865 189.996,243.886 194.94,250.091C199.885,256.296 198.863,265.334 192.659,270.278L136.84,314.762C130.634,319.706 121.597,318.686 116.652,312.48Z" style="fill:rgb(232,138,122);fill-rule:nonzero;"/>
        <path d="M287.274,230.93L245.763,244.721L245.763,245.164L202.921,230.93C189.356,226.423 176.4,239.196 180.714,252.823L212.859,354.382L270.329,354.382L309.48,252.823C313.794,239.196 300.838,226.423 287.274,230.93Z" style="fill:rgb(253,182,56);fill-rule:nonzero;"/>
        <path d="M262.896,259.792L267.175,231.603L218.805,226.908L223.3,259.792L262.896,259.792Z" style="fill:rgb(253,182,56);fill-rule:nonzero;"/>
        <path d="M219.896,236.165C219.896,236.165 225.64,291.761 244.335,297.709C245.244,297.998 246.115,298.136 246.949,298.136C263.289,298.136 265.745,245.421 265.745,245.421C263.952,257.11 256.795,262.807 248.48,262.807C237.982,262.807 225.637,253.729 219.896,236.165ZM221.44,242.21C228.138,256.904 239.432,263.557 248.48,263.557C255.661,263.557 261.383,259.529 264.444,252.671C263.972,257.69 263.14,264.685 261.739,271.63C259.371,283.38 254.883,297.386 246.949,297.386C246.182,297.386 245.379,297.255 244.563,296.995C230.192,292.422 223.563,256.741 221.44,242.21Z" style="fill:rgb(0,14,42);fill-rule:nonzero;"/>
        <path d="M201.304,336.673L281.191,332.343L274.19,352.584L207.686,351.864L201.304,336.673Z" style="fill:rgb(28,48,58);fill-rule:nonzero;"/>
        <path d="M274.19,352.584C274.19,352.584 301.555,377.883 303.176,423.007L180.805,423.007C180.805,380.599 207.686,351.864 207.686,351.864L274.19,352.584Z" style="fill:rgb(28,48,58);fill-rule:nonzero;"/>
        <path d="M242.417,357.168L244.057,390.663L244.431,390.645L244.572,390.297L244.562,390.293C244.417,390.23 242.887,389.537 241.397,387.577C239.907,385.615 238.441,382.384 238.439,377.18C238.439,377.05 238.44,376.919 238.442,376.787L237.692,376.776C237.69,376.912 237.689,377.046 237.689,377.18C237.687,382.697 239.309,386.16 240.954,388.229C242.598,390.299 244.249,390.975 244.291,390.992L244.834,391.212L243.166,357.131L242.417,357.168Z" style="fill:white;fill-rule:nonzero;"/>
        <path d="M288.848,370.854L268.454,370.854L268.678,371.376C268.688,371.398 270.82,376.383 275.23,381.386C279.635,386.385 286.351,391.422 295.494,391.422C296.294,391.422 297.114,391.384 297.951,391.303L297.879,390.556C297.065,390.635 296.27,390.672 295.494,390.672C286.645,390.673 280.125,385.801 275.792,380.89C273.629,378.437 272.02,375.979 270.953,374.137C270.42,373.216 270.022,372.45 269.758,371.914C269.626,371.647 269.528,371.437 269.463,371.295C269.398,371.153 269.367,371.081 269.367,371.081L269.022,371.229L269.022,371.603L288.848,371.603L288.848,370.854Z" style="fill:white;fill-rule:nonzero;"/>
        <path d="M183.64,394.398C183.663,394.403 184.631,394.634 186.278,394.634C191.137,394.644 201.92,392.591 211.664,376.961L211.028,376.564C201.384,391.995 190.93,393.874 186.278,393.884C185.49,393.884 184.868,393.829 184.446,393.774C184.236,393.747 184.075,393.72 183.968,393.7L183.85,393.676L183.815,393.669L183.64,394.398Z" style="fill:white;fill-rule:nonzero;"/>
        <rect x="209.95" y="349.13" width="13.844" height="6.922" style="fill:rgb(83,87,88);fill-rule:nonzero;"/>
        <rect x="256.881" y="349.13" width="13.844" height="6.922" style="fill:rgb(83,87,88);fill-rule:nonzero;"/>
        <rect x="230.225" y="349.13" width="21.031" height="6.922" style="fill:rgb(83,87,88);fill-rule:nonzero;"/>
        <rect x="235.576" y="347.738" width="10.328" height="9.705" style="fill:white;fill-rule:nonzero;"/>
        <path d="M120.992,290.616C129.479,285.308 140.663,287.885 145.972,296.372L182.065,361.311L171.011,374.108L115.236,315.596C109.927,307.108 112.504,295.925 120.992,290.616Z" style="fill:rgb(232,138,122);fill-rule:nonzero;"/>
        <path d="M177.567,357.342C192.184,357.281 205.399,349.918 205.399,349.918L213.613,375.577C189.557,384.698 177.388,378.688 170.975,374.148L177.567,357.342Z" style="fill:rgb(232,138,122);fill-rule:nonzero;"/>
        <path d="M205.399,349.918C205.399,349.918 218.868,348.72 228.487,355.075L230.225,371.096C230.225,371.096 218.989,367.421 211.784,369.862C211.784,369.862 224.219,372.222 229.037,377.454L225.625,380.894C225.625,380.894 214.872,376.143 203.231,377.79L205.399,349.918Z" style="fill:rgb(232,138,122);fill-rule:nonzero;"/>
        <path d="M228.945,358.802C228.928,358.799 217.702,355.156 209.18,354.91L209.158,355.66C213.329,355.777 218.228,356.741 222.074,357.676C223.997,358.144 225.659,358.604 226.839,358.948C228.018,359.291 228.712,359.515 228.714,359.516L228.945,358.802Z" style="fill:rgb(0,14,42);fill-rule:nonzero;"/>
        <path d="M229.749,365.071C229.725,365.063 221.438,361.717 212.087,361.715C211.207,361.715 210.318,361.744 209.425,361.81L209.48,362.558C210.353,362.494 211.224,362.465 212.087,362.465C216.674,362.464 221.026,363.29 224.228,364.117C225.829,364.531 227.142,364.944 228.053,365.254C228.509,365.409 228.864,365.537 229.105,365.627C229.345,365.717 229.468,365.767 229.469,365.767L229.749,365.071Z" style="fill:rgb(0,14,42);fill-rule:nonzero;"/>
        <path d="M159.175,243.413L177.98,263.625L188.987,292.069L169.793,270.299L159.175,243.413Z" style="fill:rgb(247,146,56);fill-rule:nonzero;"/>
        <path d="M186.417,233.923L153.97,253.476L176.777,290.967L198.072,276.446L186.417,233.923Z" style="fill:rgb(253,182,56);fill-rule:nonzero;"/>
        <path d="M159.175,243.413L169.793,270.299L188.987,292.069L172.877,298.026L157.813,277.442L147.305,251.173L159.175,243.413Z" style="fill:white;fill-rule:nonzero;"/>
        <path d="M150.811,304.307L146.299,296.19L145.644,296.554L150.156,304.671" style="fill:rgb(0,14,42);fill-rule:nonzero;"/>
        <path d="M365.515,288.167C357.027,282.858 345.844,285.436 340.535,293.923L304.441,358.862L315.496,371.659L371.271,313.147C376.579,304.66 374.002,293.477 365.515,288.167Z" style="fill:rgb(232,138,122);fill-rule:nonzero;"/>
        <path d="M308.939,354.894C294.323,354.833 281.107,347.47 281.107,347.47L272.894,373.128C296.949,382.249 309.118,376.24 315.532,371.699L308.939,354.894Z" style="fill:rgb(232,138,122);fill-rule:nonzero;"/>
        <path d="M281.107,347.47C281.107,347.47 267.638,346.271 258.019,352.626L256.282,368.646C256.282,368.646 267.518,364.973 274.723,367.413C274.723,367.413 262.288,369.772 257.47,375.006L260.881,378.445C260.881,378.445 271.635,373.694 283.275,375.341L281.107,347.47Z" style="fill:rgb(232,138,122);fill-rule:nonzero;"/>
        <path d="M257.793,357.068C257.795,357.067 258.488,356.842 259.668,356.499C263.205,355.468 271.09,353.386 277.349,353.211L277.327,352.461C268.804,352.707 257.579,356.351 257.562,356.354L257.793,357.068Z" style="fill:rgb(0,14,42);fill-rule:nonzero;"/>
        <path d="M257.038,363.318C257.038,363.318 257.161,363.269 257.402,363.179C259.084,362.549 266.392,360.014 274.42,360.015C275.283,360.015 276.154,360.044 277.027,360.108L277.082,359.36C276.189,359.295 275.3,359.265 274.42,359.265C265.069,359.268 256.781,362.615 256.756,362.623L257.038,363.319L257.038,363.318Z" style="fill:rgb(0,14,42);fill-rule:nonzero;"/>
        <path d="M327.332,240.964L308.526,261.177L297.52,289.62L316.714,267.85L327.332,240.964Z" style="fill:rgb(247,146,56);fill-rule:nonzero;"/>
        <path d="M300.09,231.475L332.536,251.026L309.729,288.518L288.436,273.997L300.09,231.475Z" style="fill:rgb(253,182,56);fill-rule:nonzero;"/>
        <path d="M327.332,240.964L316.714,267.85L297.52,289.62L313.629,295.577L328.693,274.994L339.202,248.724L327.332,240.964Z" style="fill:white;fill-rule:nonzero;"/>
        <path d="M336.351,302.223L340.863,294.105L340.207,293.741L335.696,301.859" style="fill:rgb(0,14,42);fill-rule:nonzero;"/>
        <path d="M300.49,423.007L184.015,423.007C183.196,423.007 182.533,422.344 182.533,421.524L182.533,420.209L301.973,420.209L301.973,421.524C301.973,422.344 301.309,423.007 300.49,423.007Z" style="fill:rgb(214,215,215);fill-rule:nonzero;"/>
        <path d="M266.964,377.845L217.667,377.845L217.667,394.715C233.925,391.01 250.426,387.938 266.964,385.085L266.964,377.845Z" style="fill:rgb(141,144,145);fill-rule:nonzero;"/>
        <path d="M217.667,394.715L217.667,412.181L266.964,412.181L266.964,385.085C250.426,387.938 233.925,391.01 217.667,394.715Z" style="fill:rgb(214,215,215);fill-rule:nonzero;"/>
        <path d="M301.335,421.011L183.296,421.011C182.498,421.011 182.318,419.891 183.076,419.641L217.667,408.257L266.964,408.257L301.554,419.641C302.313,419.891 302.133,421.011 301.335,421.011Z" style="fill:rgb(214,215,215);fill-rule:nonzero;"/>
        <path d="M261.372,408.632L265.796,408.632L265.796,407.882L261.372,407.882" style="fill:rgb(0,14,42);fill-rule:nonzero;"/>
        <path d="M217.667,408.632L256.823,408.632L256.823,407.882L217.667,407.882" style="fill:rgb(0,14,42);fill-rule:nonzero;"/>
        <path d="M217.741,395.082L254.848,387.603L254.7,386.868L217.592,394.347" style="fill:rgb(0,14,42);fill-rule:nonzero;"/>
        <path d="M266.589,377.845L266.589,408.257L267.339,408.257L267.339,377.845" style="fill:rgb(0,14,42);fill-rule:nonzero;"/>
        <path d="M216.647,421.386L300.534,421.386L300.534,420.636L216.647,420.636" style="fill:rgb(0,14,42);fill-rule:nonzero;"/>
        <path d="M217.292,379.881L217.292,405.672L218.042,405.672L218.042,379.881" style="fill:rgb(0,14,42);fill-rule:nonzero;"/>
        <path d="M339.095,381.634L145.476,381.634C140.858,381.634 137.114,377.891 137.114,373.272L137.114,245.392C137.114,240.774 140.858,237.03 145.476,237.03L339.095,237.03C343.712,237.03 347.456,240.774 347.456,245.392L347.456,373.272C347.456,377.891 343.712,381.634 339.095,381.634Z" style="fill:rgb(214,215,215);fill-rule:nonzero;"/>
        <path d="M347.081,267.741L347.081,373.272C347.081,375.479 346.188,377.473 344.742,378.92C343.295,380.366 341.301,381.259 339.095,381.259L246.466,381.259L246.466,382.009L339.095,382.009C343.919,382.009 347.831,378.098 347.831,373.272L347.831,267.741L347.081,267.741Z" style="fill:rgb(0,14,42);fill-rule:nonzero;"/>
        <path d="M137.489,354.383L137.489,245.392C137.489,243.185 138.383,241.191 139.829,239.744C141.275,238.298 143.269,237.405 145.476,237.405L339.095,237.405L339.095,236.655L145.476,236.655C140.651,236.655 136.74,240.567 136.739,245.392L136.739,354.383L137.489,354.383Z" style="fill:rgb(0,14,42);fill-rule:nonzero;"/>
        <path d="M283.591,289.484C277.856,289.484 272.587,291.459 268.412,294.757L268.415,294.516C268.415,280.085 256.716,268.386 242.285,268.386C227.854,268.386 216.155,280.085 216.155,294.516L216.158,294.757C211.983,291.459 206.714,289.484 200.98,289.484C187.442,289.484 176.468,300.459 176.468,313.997C176.468,327.534 187.442,338.509 200.98,338.509C201.298,338.509 201.614,338.497 201.929,338.485C202.244,338.497 202.56,338.509 202.878,338.509L282.063,338.509C282.319,338.509 282.572,338.497 282.827,338.489C283.081,338.497 283.334,338.509 283.591,338.509C297.128,338.509 308.103,327.534 308.103,313.997C308.103,300.459 297.128,289.484 283.591,289.484Z" style="fill:white;fill-rule:nonzero;"/>
        <path d="M283.591,289.109C277.77,289.109 272.417,291.115 268.18,294.463L268.412,294.757L268.787,294.761L268.79,294.52L268.79,294.516C268.79,279.878 256.923,268.011 242.285,268.011C227.647,268.011 215.781,279.878 215.78,294.516L215.78,294.521L215.783,294.761L216.158,294.757L216.391,294.463C212.153,291.115 206.801,289.109 200.98,289.109C187.235,289.11 176.093,300.252 176.093,313.997C176.093,327.741 187.235,338.884 200.98,338.884C201.308,338.884 201.628,338.872 201.943,338.86L201.929,338.485L201.915,338.86C202.23,338.872 202.55,338.884 202.878,338.884L202.878,338.134C202.569,338.134 202.258,338.122 201.943,338.111L201.929,338.11L201.915,338.111C201.6,338.122 201.289,338.134 200.98,338.134C194.314,338.134 188.282,335.433 183.912,331.064C179.544,326.695 176.843,320.663 176.843,313.997C176.843,307.33 179.544,301.298 183.912,296.929C188.282,292.56 194.314,289.86 200.98,289.859C206.627,289.86 211.814,291.803 215.926,295.051L216.543,295.538L216.53,294.511L216.155,294.516L216.53,294.516C216.53,287.403 219.412,280.966 224.074,276.304C228.736,271.643 235.172,268.761 242.285,268.761C249.398,268.761 255.834,271.643 260.496,276.304C265.158,280.966 268.04,287.403 268.04,294.516L268.415,294.516L268.04,294.511L268.037,294.752L268.028,295.538L268.645,295.051C272.757,291.803 277.943,289.86 283.591,289.859L283.591,289.109Z" style="fill:rgb(0,14,42);fill-rule:nonzero;"/>
        <path d="M217.94,329.772C217.94,316.327 228.84,305.428 242.285,305.428C255.73,305.428 266.63,316.327 266.63,329.772C266.63,343.218 255.73,354.117 242.285,354.117C228.84,354.117 217.94,343.218 217.94,329.772Z" style="fill:rgb(0,14,42);fill-rule:nonzero;"/>
        <rect x="63.83" y="390.313" width="110.251" height="16.333" style="fill:rgb(83,87,88);fill-rule:nonzero;"/>
        <rect x="67.913" y="392.027" width="59.436" height="12.906" style="fill:white;fill-rule:nonzero;"/>
        <rect x="69.501" y="392.846" width="1.333" height="11.268" style="fill:rgb(83,87,88);fill-rule:nonzero;"/>
        <rect x="123.493" y="392.846" width="1.332" height="11.268" style="fill:rgb(83,87,88);fill-rule:nonzero;"/>
        <path d="M153.437,392.582C156.695,392.582 159.335,395.223 159.335,398.479C159.335,401.737 156.695,404.378 153.437,404.378C150.18,404.378 147.539,401.737 147.539,398.479C147.539,395.223 150.18,392.582 153.437,392.582Z" style="fill:rgb(141,144,145);fill-rule:nonzero;"/>
        <path d="M153.437,393.476C156.201,393.476 158.442,395.716 158.442,398.479C158.442,401.244 156.201,403.484 153.437,403.484C150.673,403.484 148.433,401.244 148.433,398.479C148.433,395.716 150.673,393.476 153.437,393.476Z" style="fill:rgb(214,215,215);fill-rule:nonzero;"/>
        <path d="M172.641,405.224L172.641,402.492L171.891,402.492L171.891,405.224" style="fill:rgb(0,14,42);fill-rule:nonzero;"/>
        <path d="M170.599,405.224L170.599,403.636L169.849,403.636L169.849,405.224" style="fill:rgb(0,14,42);fill-rule:nonzero;"/>
        <rect x="63.83" y="406.646" width="110.251" height="16.334" style="fill:rgb(253,182,56);fill-rule:nonzero;"/>
        <rect x="67.913" y="408.36" width="59.436" height="12.906" style="fill:white;fill-rule:nonzero;"/>
        <rect x="69.501" y="409.179" width="1.333" height="11.268" style="fill:rgb(214,215,215);fill-rule:nonzero;"/>
        <rect x="123.493" y="409.179" width="1.332" height="11.268" style="fill:rgb(214,215,215);fill-rule:nonzero;"/>
        <path d="M153.437,408.915C156.695,408.915 159.335,411.556 159.335,414.813C159.335,418.07 156.695,420.711 153.437,420.711C150.18,420.711 147.539,418.07 147.539,414.813C147.539,411.556 150.18,408.915 153.437,408.915Z" style="fill:rgb(83,87,88);fill-rule:nonzero;"/>
        <path d="M153.437,409.809C156.201,409.809 158.442,412.049 158.442,414.813C158.442,417.577 156.201,419.817 153.437,419.817C150.673,419.817 148.433,417.577 148.433,414.813C148.433,412.049 150.673,409.809 153.437,409.809Z" style="fill:rgb(214,215,215);fill-rule:nonzero;"/>
        <path d="M170.076,410.649L170.076,412.029L170.826,412.029L170.826,410.649" style="fill:rgb(0,14,42);fill-rule:nonzero;"/>
        <path d="M172.868,414.752L172.868,411.115L172.118,411.115L172.118,414.752" style="fill:rgb(0,14,42);fill-rule:nonzero;"/>
        <path d="M33.872,423.507L450.698,423.507L450.698,422.507L33.872,422.507" style="fill:rgb(0,14,42);fill-rule:nonzero;"/>
        <path d="M425.38,157.976L425.202,157.207C426.158,156.987 427.145,156.875 428.132,156.875L428.137,156.875C429.101,156.875 430.063,156.981 430.995,157.19L430.822,157.959C429.947,157.764 429.043,157.665 428.137,157.665L428.133,157.665C427.204,157.665 426.278,157.77 425.38,157.976ZM439.143,164.548C438.345,162.91 437.165,161.443 435.731,160.307L436.223,159.688C437.747,160.897 439.003,162.459 439.852,164.203L439.143,164.548ZM417.1,164.615L416.387,164.273C417.227,162.523 418.472,160.955 419.99,159.737L420.483,160.353C419.058,161.497 417.887,162.971 417.1,164.615ZM439.874,175.548L439.163,175.205C439.965,173.543 440.371,171.758 440.371,169.899L440.937,169.862L441.16,169.881C441.161,171.878 440.729,173.779 439.874,175.548ZM416.411,175.571C415.554,173.803 415.117,171.904 415.113,169.926L415.903,169.924C415.907,171.783 416.316,173.567 417.121,175.227L416.411,175.571ZM431.046,182.597L430.87,181.828C432.647,181.422 434.342,180.604 435.77,179.461L436.263,180.078C434.741,181.293 432.938,182.165 431.046,182.597ZM425.254,182.602C423.361,182.173 421.556,181.306 420.031,180.092L420.523,179.475C421.954,180.615 423.65,181.43 425.428,181.832L425.254,182.602Z" style="fill:rgb(28,48,58);fill-rule:nonzero;"/>
        <path d="M45.12,152.568L44.965,151.794C46.564,151.475 48.208,151.313 49.853,151.313C50.089,151.313 50.315,151.316 50.545,151.322L50.523,152.111C50.3,152.104 50.064,152.088 49.853,152.102C48.26,152.102 46.668,152.259 45.12,152.568ZM60.957,154.807C59.349,153.97 57.646,153.317 55.894,152.864L56.091,152.101C57.9,152.567 59.661,153.243 61.322,154.107L60.957,154.807ZM35.3,157.001L34.822,156.374C36.312,155.241 37.93,154.276 39.631,153.507L39.957,154.226C38.309,154.971 36.742,155.905 35.3,157.001ZM69.166,161.794C68.083,160.343 66.835,159.012 65.456,157.838L65.967,157.237C67.391,158.449 68.68,159.824 69.798,161.322L69.166,161.794ZM28.389,165.274L27.686,164.917C28.533,163.251 29.571,161.678 30.772,160.241L31.378,160.748C30.215,162.139 29.21,163.662 28.389,165.274ZM73.508,171.654C73.17,169.875 72.629,168.133 71.898,166.476L72.621,166.158C73.375,167.87 73.935,169.67 74.284,171.507L73.508,171.654ZM25.789,175.732L25,175.718C25.033,173.841 25.278,171.973 25.727,170.166L26.493,170.355C26.058,172.106 25.822,173.915 25.789,175.732ZM74.096,181.741L73.327,181.565C73.729,179.808 73.932,177.995 73.932,176.176L74.722,176.176C74.722,178.054 74.511,179.927 74.096,181.741ZM27.284,186.61C26.498,184.913 25.906,183.124 25.522,181.293L26.295,181.132C26.666,182.903 27.24,184.635 28.001,186.279L27.284,186.61ZM69.235,191.756L68.62,191.262C69.758,189.849 70.735,188.308 71.525,186.681L72.235,187.025C71.419,188.706 70.41,190.298 69.235,191.756ZM34.1,195.408C32.654,194.222 31.34,192.872 30.195,191.394L30.819,190.91C31.928,192.341 33.2,193.649 34.6,194.797L34.1,195.408ZM60.5,198.652L60.162,197.939C61.794,197.166 63.344,196.203 64.767,195.078L65.257,195.698C63.786,196.859 62.186,197.853 60.5,198.652ZM44.07,200.362C42.251,199.928 40.479,199.285 38.803,198.452L39.154,197.745C40.777,198.552 42.492,199.174 44.253,199.594L44.07,200.362ZM49.864,201.039L49.858,201.039L49.629,201.038L49.637,200.249L49.858,200.25L49.863,200.25C51.606,200.25 53.344,200.062 55.031,199.693L55.2,200.464C53.458,200.845 51.662,201.039 49.864,201.039Z" style="fill:rgb(28,48,58);fill-rule:nonzero;"/>
        <path d="M80.641,189.989C80.641,194.13 77.284,197.487 73.143,197.487C69.002,197.487 65.645,194.13 65.645,189.989C65.645,185.847 69.002,182.49 73.143,182.49C77.284,182.49 80.641,185.847 80.641,189.989Z" style="fill:rgb(28,48,58);fill-rule:nonzero;"/>
        <path d="M342.26,58.091C342.26,61.143 339.786,63.616 336.734,63.616C333.684,63.616 331.21,61.143 331.21,58.091C331.21,55.04 333.684,52.566 336.734,52.566C339.786,52.566 342.26,55.04 342.26,58.091Z" style="fill:rgb(28,48,58);fill-rule:nonzero;"/>
        <path d="M423.007,160.401C423.007,162.58 421.239,164.347 419.061,164.347C416.881,164.347 415.113,162.58 415.113,160.401C415.113,158.221 416.881,156.454 419.061,156.454C421.239,156.454 423.007,158.221 423.007,160.401Z" style="fill:rgb(28,48,58);fill-rule:nonzero;"/>
        <path d="M157.482,129.462C157.482,132.731 154.832,135.382 151.562,135.382C148.292,135.382 145.642,132.731 145.642,129.462C145.642,126.192 148.292,123.542 151.562,123.542C154.832,123.542 157.482,126.192 157.482,129.462Z" style="fill:rgb(28,48,58);fill-rule:nonzero;"/>
        <path d="M157.537,128.273L157.161,127.579C158.841,126.671 160.789,126.23 162.686,126.315L162.651,127.104C160.898,127.028 159.092,127.433 157.537,128.273ZM171.102,132.666C170.327,131.064 169.13,129.7 167.643,128.718L168.077,128.059C169.684,129.119 170.975,130.593 171.813,132.321L171.102,132.666ZM152.352,136.96L151.562,136.96C151.562,135.032 152.083,133.143 153.067,131.497L153.745,131.902C152.833,133.426 152.352,135.175 152.352,136.96ZM170.852,143.205L170.213,142.742C171.258,141.299 171.892,139.6 172.047,137.826L172.833,137.895C172.667,139.811 171.981,141.646 170.852,143.205ZM155.601,145.313C154.091,144.115 152.934,142.534 152.253,140.741L152.991,140.461C153.621,142.121 154.693,143.585 156.091,144.695L155.601,145.313ZM162.218,147.616C161.749,147.616 161.278,147.585 160.818,147.525L160.921,146.743C162.675,146.973 164.491,146.727 166.12,146.025L166.432,146.75C165.099,147.325 163.681,147.616 162.218,147.616Z" style="fill:rgb(28,48,58);fill-rule:nonzero;"/>
        <path d="M342.576,54.68L342.132,54.028C343.718,52.95 345.474,52.226 347.354,51.877L347.497,52.653C345.727,52.982 344.07,53.664 342.576,54.68ZM357.652,54.999C356.2,53.92 354.575,53.168 352.819,52.766L352.997,51.996C354.858,52.424 356.584,53.222 358.122,54.366L357.652,54.999ZM337.013,63.495L336.232,63.377C336.519,61.486 337.183,59.706 338.206,58.085L338.874,58.508C337.908,60.034 337.282,61.712 337.013,63.495ZM362.837,64.038C362.643,62.244 362.088,60.542 361.189,58.978L361.874,58.584C362.827,60.244 363.415,62.05 363.622,63.953L362.837,64.038ZM362.552,70.985L361.829,70.669C362.549,69.023 362.913,67.27 362.913,65.457L363.703,65.457C363.703,67.38 363.315,69.239 362.552,70.985ZM339.078,74.057C337.884,72.556 337.029,70.858 336.539,69.013L337.302,68.811C337.765,70.55 338.57,72.15 339.697,73.565L339.078,74.057ZM354.445,78.502L354.185,77.757C355.884,77.164 357.418,76.24 358.744,75.009L359.28,75.587C357.874,76.893 356.247,77.873 354.445,78.502ZM348.847,79.232C346.937,79.089 345.111,78.562 343.421,77.665L343.791,76.969C345.384,77.813 347.104,78.31 348.905,78.444L348.847,79.232Z" style="fill:rgb(28,48,58);fill-rule:nonzero;"/>
        <g transform="matrix(0.0237476,0,0,0.0237476,198.233,276.819)">
            <path d="M2927.28,2863.97C2854.1,2939.4 2788.62,2983.75 2738.48,3017.22C2249.52,3343.7 1690.59,3249.61 1517.78,3217.44C1238.97,3165.55 1003.62,3128.94 801.413,2946.26C341.935,2531.14 364.283,1665.16 715.38,1128.73C757.01,1065.13 1107.58,545.479 1667.72,472.257C1681.42,470.466 1691.64,469.446 1700.6,468.498C1787.25,459.323 2324.22,410.902 2762.07,777.73C2824.74,830.24 2925.61,924.954 3019.14,1069.41C3361.14,1597.6 3362.22,2415.65 2927.28,2863.97Z" style="fill:url(#_Linear1);fill-rule:nonzero;"/>
            <g>
                <g>
                    <path d="M1157.54,2002.35C1157.54,2002.35 1165.52,1666.7 1010.92,1576.87C856.326,1487.03 562.383,1430.87 551.365,948.905C544.914,666.744 537.933,543.378 533.253,489.585C531.428,468.601 550.075,451.664 570.773,455.563C717.189,483.145 1192.83,596.676 1292.55,921.323C1410.77,1306.19 1157.54,2002.35 1157.54,2002.35Z" style="fill:url(#_Linear2);fill-rule:nonzero;"/>
                    <path d="M684.006,589.658C844.727,732.998 1030.57,986.681 1129.63,1240.37C1142.34,1282.17 1179.54,1371.08 1195.69,1529.05C1210.11,1660.8 1202.94,1800.02 1185.45,1892.18C1184.34,1898.01 1178.72,1901.83 1172.9,1900.73C1162.88,1898.83 1164.21,1888.05 1164.3,1888.39C1184.28,1730.94 1175.99,1534.97 1130.21,1358.14C1071.73,1141.02 941.294,930.508 806.38,751.967L792.496,734.386C687.971,600.15 665.966,599.161 675.738,589.804C678.045,587.594 681.658,587.574 684.006,589.658Z" style="fill:rgb(125,151,244);fill-rule:nonzero;"/>
                </g>
                <g>
                    <path d="M1405.98,2647.68C1426.89,2657.94 1207.96,2382.63 1139.38,1950.24C1107.07,1746.48 1106.64,1491.2 990.576,1392.82C893.977,1310.94 565.263,1362.63 457.708,1382.28C444.268,1384.73 439.744,1401.71 450.205,1410.5C501.784,1453.81 612.12,1555.99 640.869,1658.96C678.762,1794.68 807.8,1881.01 923.321,1904.38C1038.84,1927.74 1103.1,1950.41 1159.38,2135.16C1215.66,2319.91 1346.55,2618.54 1405.98,2647.68Z" style="fill:rgb(125,151,244);fill-rule:nonzero;"/>
                    <path d="M608.979,1439.62C746.203,1445.37 893.502,1507.97 968.251,1625.39L975.306,1636.59C991.601,1662.86 1083.95,1849.63 1135.24,2004.45C1135.88,2006.38 1134.84,2008.46 1132.9,2009.1C1129.63,2010.18 1127.99,2006.58 1128.3,2006.89C1092.56,1919.43 1041.24,1808.55 1000.36,1725.63C956.522,1635.14 925.844,1573.87 825.853,1515.17C714.56,1451.96 608.236,1445.45 608.555,1445.51C606.932,1445.35 605.75,1443.9 605.917,1442.28C606.077,1440.71 607.433,1439.56 608.979,1439.62Z" style="fill:rgb(189,208,251);fill-rule:nonzero;"/>
                </g>
                <g>
                    <path d="M1312.12,2683.9C1324.54,2690.44 1242.21,2548.74 1235.89,2423.89C1229.57,2299.05 1201.41,2085.97 1093.75,1958.51C986.092,1831.05 868.194,1819.42 719.638,1935.29C595.841,2031.85 518.62,2080.59 473.332,2089.64C462.118,2091.89 456.395,2104.55 461.852,2114.6C490.899,2168.09 573.021,2290.96 710.907,2282.31C886.791,2271.27 1099.95,2156.93 1164.92,2252.32C1229.88,2347.7 1221.54,2401.07 1223.54,2446.27C1225.54,2491.47 1229.98,2640.59 1312.12,2683.9Z" style="fill:url(#_Linear3);fill-rule:nonzero;"/>
                    <path d="M769.546,2088.34C823.428,2036.68 911.181,1985.92 987.875,1995.39C1087.66,2011.46 1154.13,2078.1 1190.39,2177.29C1204.56,2219.4 1210.39,2241.89 1218.77,2293.51C1219.44,2297.64 1213.36,2298.87 1212.35,2294.84C1206.25,2270.59 1200.21,2245.2 1191.18,2218.94C1138.58,2049.51 1026.31,2026.69 1021.94,2023.23C1013.45,2024.06 961.998,1985.54 839.9,2051.24C817.1,2063.65 794.907,2077.82 774.07,2093.44L773.955,2093.53C772.447,2094.66 770.309,2094.36 769.178,2092.85C768.131,2091.45 768.316,2089.52 769.546,2088.34Z" style="fill:rgb(125,151,244);fill-rule:nonzero;"/>
                </g>
            </g>
            <g>
                <g transform="matrix(0.0439,-0.999,0.999,0.0439,-21.4101,3894.07)">
                    <ellipse cx="2023.68" cy="1958.22" rx="1117.4" ry="1206.12" style="fill:rgb(145,179,250);"/>
                </g>
                <path d="M1113.8,1217.92C1087.33,1260.42 1066.92,1308.27 1070.75,1358.19C1075.19,1416 1104.45,1470.14 1105.95,1528.1C1108.49,1626.39 1032.61,1708.67 1008.94,1804.11C982.483,1910.79 1082.24,2032.33 1121.98,2091.87C1161.72,2151.41 1144.64,2043.56 1168.74,2001.51C1192.84,1959.45 1244.81,2178.46 1325.98,2226.53C1369.54,2252.32 1420.63,2269.49 1451.95,2309.25C1497.64,2367.23 1484.98,2449.75 1478.12,2523.25C1471.26,2596.75 1481.54,2686.33 1547.73,2719.01C1586.71,2738.24 1636.25,2731.73 1671.43,2757.27C1733.2,2802.12 1703.69,2899.9 1728.17,2972.21C1754.79,3050.84 1807.57,3051.87 1889.23,3068.54C1970.88,3085.21 1878.94,2905.81 1917.19,2843.11C1937.3,2810.15 1967.99,2783.93 1983.85,2748.73C2005.85,2699.91 1999.65,2634.69 2042.32,2602.35C2074.3,2578.1 2118.8,2584.66 2158.93,2584.31C2199.06,2583.95 2247.87,2566.54 2252.43,2526.67C2256.47,2491.29 2221.05,2463.08 2186.39,2454.88C2151.74,2446.68 2114.82,2450.59 2080.78,2440.11C1983.44,2410.14 1938.04,2273.92 1836.38,2267.54C1749.49,2262.09 1676.71,2359.63 1591.33,2342.59C1543.73,2333.1 1511.15,2290.94 1475.82,2257.66C1430.43,2214.91 1374.1,2182.83 1338.06,2131.94C1302.03,2081.06 1295.9,1999.73 1347.16,1964.24C1385.24,1937.87 1439.35,1948.57 1476.97,1975.59C1514.59,2002.61 1540.21,2042.69 1567.84,2079.87C1576.38,2091.35 1586.03,2103.25 1599.68,2107.52C1636.42,2119.02 1663.23,2067.34 1654.44,2029.86C1645.65,1992.38 1619.17,1959.42 1617.93,1920.95C1615.74,1853.14 1688.76,1810.11 1752.81,1787.77C1816.87,1765.43 1892.37,1738.79 1911.21,1673.61C1917.86,1650.59 1916.11,1625.26 1926.27,1603.55C1959.91,1531.61 2137.46,1495.7 2095.02,1453.99C2052.58,1412.27 1917.88,1403.2 1891.65,1319.19C1882.26,1289.12 1872.59,1249.36 1841.22,1246.45C1790.12,1241.72 1760.96,1304.97 1718.09,1315.83C1697.74,1320.98 1695.79,1355.55 1696.58,1398.05C1697.16,1428.89 1672.62,1454.37 1641.77,1454.96C1610.92,1455.54 1585.43,1431.01 1584.85,1400.16C1584.63,1388.71 1586.63,1377.13 1591.34,1365.59C1599.59,1345.36 1615.27,1329.19 1631.07,1314.1C1696.99,1251.15 1893.72,1181.99 1852.52,1155.19C1811.33,1128.39 1613.62,1054.45 1584.12,1095.26C1554.63,1136.07 1603.41,1101.51 1615.31,1149.91C1627.2,1198.31 1469.05,1191.82 1395.92,1212.77C1383.85,1216.23 1370.45,1219.6 1359.15,1214.13C1346.51,1208.01 1341.19,1193.3 1334.34,1181.05C1297.61,1115.44 1175.45,1158.03 1175.45,1158.03C1175.45,1158.03 1137.46,1179.95 1113.8,1217.92Z" style="fill:rgb(125,151,244);fill-rule:nonzero;"/>
                <path d="M1666.32,920.161C1648.57,953.261 1701.37,952.724 1706.62,989.917C1754.16,995.097 1773.68,920.153 1820.69,911.406C1847.22,906.47 1872.94,925.478 1887.36,948.289C1901.77,971.1 1908.5,997.884 1920.72,1021.94C1948.1,1075.85 2004.63,1113.79 2064.89,1118.7C2078,1119.77 2092.45,1118.93 2102.32,1110.24C2130.97,1084.99 2089.98,1037.56 2100.63,1000.89C2112.8,958.986 2173.22,965.343 2214.06,949.975C2225.32,945.736 2311.96,922.618 2313.36,910.664C2315.83,889.47 2275.63,875.978 2230.67,864.416C2154.49,844.827 2020.45,845.641 1954.93,851.569C1867.77,859.455 1722.54,853.083 1666.32,920.161Z" style="fill:rgb(125,151,244);fill-rule:nonzero;"/>
                <g>
                    <path d="M3119.95,2343.7C3139.71,2220.05 3138.06,2093.02 3115.12,1969.93C3109,1937.1 3094.67,1897.95 3061.6,1893.22C3023.36,1887.76 2976.53,1931.69 2952.59,1901.37C2942.02,1887.98 2946.24,1868.5 2952.23,1852.53C2968.02,1810.41 2992.73,1771.67 3024.27,1739.6C3043.87,1719.68 3066.28,1702.02 3081.37,1678.5C3113.64,1628.2 3090.99,1554.7 3045.32,1516.15C2999.65,1477.61 2940.73,1546.73 2892.72,1519.29C2844.72,1491.86 2843.22,1425.29 2834.2,1370.74C2827.52,1330.33 2797.74,1220.85 2764.85,1274.17C2731.96,1327.49 2808.72,1539.73 2895.12,1641.48C2905.54,1653.75 2917.04,1667.49 2916.16,1683.57C2914.06,1721.95 2858.12,1720.25 2820.49,1728.11C2773.91,1737.84 2702.51,1712.89 2741.91,1794.06C2762.69,1836.87 2861.95,1895.47 2835.28,1924.12C2808.61,1952.77 2726.61,2035.75 2688.14,2102.87C2649.66,2169.98 2631.01,2253.55 2660.03,2325.26C2689.04,2396.98 2776.28,2446.49 2847.5,2416.28C2880.83,2402.14 2917.16,2372.75 2948.15,2391.48C2976.21,2408.45 2972.07,2449.16 2970.68,2481.92C2969.29,2514.68 2988.17,2558.17 3020.05,2550.47C3030.53,2547.94 3038.78,2539.99 3045.86,2531.85C3090.71,2480.32 3109.18,2411.16 3119.95,2343.7Z" style="fill:rgb(125,151,244);fill-rule:nonzero;"/>
                </g>
                <ellipse cx="1958.4" cy="1877.6" rx="946.432" ry="894.076" style="fill:white;fill-opacity:0.13;"/>
                <g opacity="0.68">
                    <path d="M2360.75,1977.4C2360.46,2174.43 2346.98,2371.87 2312.36,2566.11C2303.59,2614.63 2293.42,2662.92 2281.3,2710.75C2269.15,2758.56 2255.11,2805.95 2237.93,2852.28C2220.59,2898.49 2200.47,2944.03 2173.2,2985.63C2159.46,3006.28 2143.87,3026.06 2124.66,3042.31C2115.05,3050.39 2104.51,3057.55 2092.92,3062.79C2081.36,3067.99 2068.73,3071.29 2055.92,3071.52C2043.12,3071.9 2030.3,3069.38 2018.51,3064.63C2006.67,3059.92 1995.88,3053.09 1986.04,3045.28C1966.37,3029.54 1950.44,3009.98 1936.45,2989.49C1922.5,2968.92 1910.58,2947.12 1899.79,2924.85C1889.05,2902.55 1879.49,2879.72 1870.79,2856.61C1853.38,2810.35 1839.2,2763 1826.94,2715.22C1814.7,2667.42 1804.43,2619.16 1795.59,2570.65C1777.95,2473.62 1765.93,2375.65 1757.84,2277.42C1749.8,2179.17 1745.8,2080.6 1745.34,1982.03C1745.12,1932.74 1746.39,1883.47 1748.13,1834.22C1749.94,1784.98 1752.62,1735.76 1756.21,1686.62C1763.44,1588.33 1774.26,1490.27 1790.38,1393.01C1798.47,1344.38 1807.9,1295.97 1819.26,1247.99C1830.65,1200.02 1843.89,1152.43 1860.31,1105.88C1868.57,1082.62 1877.6,1059.62 1887.89,1037.15C1898.18,1014.69 1909.68,992.727 1923.21,971.961C1936.76,951.287 1952.35,931.558 1971.74,915.771C1981.43,907.948 1992.12,901.141 2003.81,896.529C2015.46,891.858 2028.1,889.487 2040.67,889.96C2053.26,890.317 2065.66,893.469 2077.1,898.517C2088.57,903.591 2099.1,910.491 2108.78,918.314C2128.13,934.06 2144.15,953.318 2158.36,973.542C2186.62,1014.28 2207.93,1059.21 2226.38,1104.93C2244.69,1150.77 2259.81,1197.8 2272.97,1245.32C2286.09,1292.86 2297.19,1340.94 2306.8,1389.29C2344.79,1582.87 2360.21,1780.33 2360.75,1977.4ZM2347.94,1977.4C2348.1,1879.17 2344.34,1780.93 2336.15,1683.05C2328.06,1585.17 2315.8,1487.58 2297.59,1391.07C2288.48,1342.83 2277.89,1294.85 2265.28,1247.41C2252.64,1199.99 2238.05,1153.06 2220.28,1107.33C2202.4,1061.74 2181.66,1016.95 2154.14,976.467C2140.31,956.371 2124.71,937.28 2105.98,921.744C2096.61,914.022 2086.45,907.236 2075.44,902.238C2064.45,897.298 2052.6,894.069 2040.56,893.752C2028.52,893.365 2016.49,895.776 2005.35,900.351C1994.18,904.881 1983.92,911.545 1974.57,919.237C1955.87,934.755 1940.73,954.262 1927.56,974.776C1914.42,995.376 1903.24,1017.22 1893.26,1039.58C1883.27,1061.94 1874.52,1084.87 1866.54,1108.05C1850.67,1154.46 1837.95,1201.94 1827.07,1249.8C1816.22,1297.68 1807.28,1345.99 1799.69,1394.51C1784.56,1491.57 1774.71,1589.42 1768.45,1687.45C1762.14,1785.5 1759.87,1883.78 1760.04,1982.01C1759.83,2080.23 1763.15,2178.47 1770.5,2276.42C1777.9,2374.35 1789.22,2472.04 1806.13,2568.77C1814.61,2617.12 1824.51,2665.23 1836.35,2712.84C1848.23,2760.44 1862,2807.59 1878.95,2853.56C1887.42,2876.54 1896.73,2899.21 1907.2,2921.31C1917.7,2943.37 1929.31,2964.94 1942.85,2985.19C1956.4,3005.35 1971.83,3024.47 1990.55,3039.66C1999.91,3047.19 2010.1,3053.71 2021.12,3058.18C2032.11,3062.66 2043.91,3065.14 2055.73,3064.74C2067.55,3064.45 2079.2,3061.33 2090,3056.38C2100.81,3051.4 2110.78,3044.55 2119.93,3036.75C2138.25,3021.05 2153.35,3001.68 2166.66,2981.35C2193.13,2940.37 2212.77,2895.16 2229.62,2849.23C2246.34,2803.17 2259.96,2755.98 2271.71,2708.35C2283.43,2660.71 2293.21,2612.58 2301.6,2564.21C2318.39,2467.46 2329.57,2369.77 2336.99,2271.83C2344.5,2173.89 2347.97,2075.64 2347.94,1977.4Z" style="fill:white;fill-rule:nonzero;"/>
                    <path d="M2857.78,1977.4C2857.13,2104.22 2840.85,2231.11 2806.93,2353.41C2772.43,2475.45 2720.44,2592.87 2649.8,2698.3C2614.47,2750.96 2574.45,2800.53 2529.72,2845.51C2485.01,2890.47 2435.57,2930.84 2381.88,2964.65C2328.13,2998.33 2270.09,3025.29 2209.33,3043.58C2148.6,3061.92 2085.2,3071.49 2021.74,3071.57C1958.28,3071.55 1894.87,3062.02 1834.11,3043.73C1773.32,3025.48 1715.23,2998.55 1661.44,2964.9C1607.7,2931.12 1558.19,2890.78 1513.42,2845.84C1468.62,2800.88 1428.53,2751.32 1393.14,2698.66C1322.37,2593.22 1270.28,2475.75 1235.64,2353.67C1201.45,2231.33 1185.22,2104.31 1184.69,1977.4C1185.01,1913.92 1189.24,1850.48 1197.63,1787.56C1206.06,1724.66 1218.77,1662.32 1235.86,1601.19C1270.57,1479.15 1322.73,1361.75 1393.54,1256.4C1428.95,1203.79 1469.05,1154.28 1513.84,1109.37C1558.61,1064.48 1608.08,1024.18 1661.82,990.491C1715.6,956.918 1773.67,930.17 1834.37,911.925C1895.03,893.607 1958.36,884.047 2021.74,883.973C2085.12,884.094 2148.43,893.7 2209.07,912.059C2269.74,930.347 2327.77,957.141 2381.5,990.746C2435.18,1024.47 2484.6,1064.8 2529.31,1109.7C2574.03,1154.63 2614.06,1204.15 2649.39,1256.77C2720.08,1362.1 2772.14,1479.45 2806.71,1601.44C2840.7,1723.71 2857.05,1850.57 2857.78,1977.4ZM2843.1,1977.4C2842.89,1851.84 2827.21,1726.15 2794.04,1604.95C2760.67,1483.95 2710.42,1367.16 2641.3,1262.15C2606.77,1209.69 2567.54,1160.25 2523.62,1115.32C2479.68,1070.45 2431.15,1029.88 2378.09,996.147C2324.97,962.596 2267.61,935.605 2207.47,917.34C2147.37,899.057 2084.61,889.449 2021.74,889.246C1958.87,889.496 1896.13,899.151 1836.05,917.474C1775.94,935.782 1718.62,962.819 1665.55,996.402C1612.55,1030.17 1564.07,1070.77 1520.2,1115.66C1476.34,1160.61 1437.19,1210.05 1402.72,1262.51C1333.73,1367.51 1283.58,1484.26 1250.35,1605.21C1233.81,1665.75 1221.81,1727.49 1213.69,1789.69C1205.56,1851.91 1201.54,1914.64 1201.38,1977.4C1201.57,2040.15 1205.62,2102.89 1213.79,2165.09C1221.95,2227.28 1233.98,2289.01 1250.56,2349.53C1283.87,2470.44 1334.1,2587.11 1403.12,2692.02C1437.61,2744.43 1476.77,2793.83 1520.62,2838.73C1564.49,2883.55 1612.93,2924.12 1665.93,2957.8C1718.99,2991.3 1776.29,3018.16 1836.31,3036.47C1896.3,3054.81 1958.95,3064.51 2021.74,3064.8C2084.53,3064.55 2147.2,3054.91 2207.22,3036.61C2267.26,3018.35 2324.61,2991.53 2377.72,2958.05C2430.76,2924.41 2479.26,2883.87 2523.2,2839.06C2567.12,2794.18 2606.35,2744.79 2640.9,2692.38C2710.05,2587.46 2760.38,2470.74 2793.83,2349.78C2827.06,2228.63 2842.81,2102.96 2843.1,1977.4Z" style="fill:white;fill-rule:nonzero;"/>
                    <path d="M1044.95,1544.38L1296.34,1542.6L1547.72,1541.59L2050.48,1540.77L2553.24,1541.67L2804.62,1542.77L3056,1544.69C3056.36,1544.7 3056.65,1544.99 3056.64,1545.35C3056.64,1545.7 3056.36,1545.99 3056,1545.99L2804.62,1547.91L2553.24,1549.02L2050.48,1549.92L1547.72,1549.1L1296.34,1548.09L1044.95,1546.31C1044.42,1546.3 1043.99,1545.87 1044,1545.34C1044,1544.81 1044.43,1544.38 1044.95,1544.38Z" style="fill:white;fill-rule:nonzero;"/>
                    <path d="M1336.59,1123.34L1515.06,1121.55L1693.53,1120.54C1753.02,1120.11 1812.52,1120.16 1872.01,1120.03L2050.48,1119.73L2407.43,1120.62L2585.9,1121.73C2645.39,1122.38 2704.88,1122.77 2764.37,1123.65C2764.73,1123.66 2765.02,1123.95 2765.01,1124.31C2765,1124.66 2764.72,1124.94 2764.37,1124.95C2704.88,1125.84 2645.39,1126.22 2585.9,1126.88L2407.43,1127.98L2050.48,1128.88L1872.01,1128.58C1812.52,1128.44 1753.02,1128.49 1693.53,1128.06L1515.06,1127.05L1336.59,1125.27C1336.05,1125.26 1335.62,1124.83 1335.63,1124.29C1335.63,1123.77 1336.06,1123.34 1336.59,1123.34Z" style="fill:white;fill-rule:nonzero;"/>
                    <path d="M957.596,1965.42L1230.82,1963.64L1504.04,1962.63L2050.48,1961.81L2596.92,1962.71L2870.14,1963.81L3143.36,1965.74C3143.72,1965.74 3144.01,1966.03 3144,1966.39C3144,1966.75 3143.71,1967.03 3143.36,1967.03L2870.14,1968.96L2596.92,1970.06L2050.48,1970.96L1504.04,1970.14L1230.82,1969.13L957.596,1967.35C957.064,1967.35 956.634,1966.91 956.638,1966.38C956.641,1965.85 957.068,1965.42 957.596,1965.42Z" style="fill:white;fill-rule:nonzero;"/>
                    <path d="M1044.95,2386.46L1296.34,2384.68L1547.72,2383.67L2050.48,2382.85L2553.24,2383.75L2804.62,2384.85L3056,2386.78C3056.36,2386.78 3056.65,2387.07 3056.64,2387.43C3056.64,2387.79 3056.36,2388.07 3056,2388.08L2804.62,2390L2553.24,2391.1L2050.48,2392L1547.72,2391.19L1296.34,2390.17L1044.95,2388.39C1044.42,2388.39 1043.99,2387.95 1044,2387.42C1044,2386.89 1044.43,2386.47 1044.95,2386.46Z" style="fill:white;fill-rule:nonzero;"/>
                    <path d="M2800.34,2811.85L1372.56,2811.85C1370.69,2811.85 1369.17,2810.34 1369.17,2808.47C1369.17,2806.6 1370.69,2805.09 1372.56,2805.09L2800.34,2805.09C2802.21,2805.09 2803.73,2806.6 2803.73,2808.47C2803.72,2810.34 2802.21,2811.85 2800.34,2811.85Z" style="fill:white;fill-rule:nonzero;"/>
                </g>
            </g>
            <path d="M2350.15,3174.48C2382.52,3172.81 2396.49,3132.63 2372.15,3111.23C2263.82,3015.98 2121.66,2957.87 1965.99,2957.87C1810.51,2957.87 1668.51,3015.83 1560.24,3110.87C1535.47,3132.62 1549.41,3173.54 1582.32,3175.53C1816.42,3189.67 2069.73,3189 2350.15,3174.48Z" style="fill:url(#_Linear4);fill-rule:nonzero;"/>
            <g>
                <path d="M1964.5,2989.3C1964.51,2996.33 1958.83,3002.05 1951.8,3002.06C1944.77,3002.08 1939.06,2996.39 1939.04,2989.36L1938.01,2537.53C1938,2530.5 1943.68,2524.79 1950.71,2524.78C1957.74,2524.76 1963.45,2530.45 1963.47,2537.47L1964.5,2989.3Z" style="fill:url(#_Linear5);fill-rule:nonzero;"/>
                <path d="M1946.2,2762.27C1926.32,2773.28 1859.68,2704.96 1814.17,2630.83C1784.56,2582.61 1797.05,2578.23 1773.14,2544.35C1717.28,2465.16 1650.85,2475.4 1625.87,2411.93C1607.83,2366.07 1638.73,2351.11 1620.54,2309.81C1587.34,2234.47 1468.62,2248.33 1457.21,2197.2C1449.69,2163.51 1492.44,2118.29 1535.47,2098.91C1655.55,2044.85 1864.7,2161.14 1911.54,2311.08C1936.71,2391.67 1894.47,2416.29 1914.94,2571.74C1930.17,2687.48 1963.93,2752.45 1946.2,2762.27Z" style="fill:url(#_Linear6);fill-rule:nonzero;"/>
                <path d="M1938.32,2534.76C1938.32,2534.76 2007.85,2190.32 2204.21,2276.33C2400.58,2362.34 2238.55,2477.15 2137.91,2480.53C2037.28,2483.91 2070.96,2488.17 2025.36,2528.25C1979.76,2568.34 1907.49,2635.36 1938.32,2534.76Z" style="fill:url(#_Linear7);fill-rule:nonzero;"/>
                <path d="M1533.52,2163.48C1562.71,2159.37 1592.48,2158.1 1622.08,2161.36L1633.15,2162.79C1636.84,2163.31 1640.47,2164.23 1644.13,2164.93C1651.5,2166.2 1658.63,2168.5 1665.83,2170.57C1679.99,2175.37 1693.96,2181.26 1706.64,2189.44L1711.47,2192.37C1713.07,2193.36 1714.53,2194.55 1716.07,2195.64L1725.2,2202.31L1733.71,2209.74C1735.11,2211 1736.57,2212.2 1737.92,2213.5L1741.86,2217.54C1744.46,2220.26 1747.15,2222.9 1749.68,2225.68L1756.92,2234.31C1758.11,2235.76 1759.36,2237.17 1760.51,2238.65L1763.82,2243.19L1770.45,2252.28C1787.18,2277.17 1800.15,2304.17 1811.38,2331.64C1833.34,2386.88 1848.85,2444.07 1862.82,2501.39C1876.89,2558.72 1888.98,2616.44 1900.83,2674.23C1892.85,2645.83 1885.56,2617.25 1877.83,2588.8L1855.15,2503.36C1847.37,2474.96 1839.65,2446.56 1830.89,2418.51C1822.26,2390.43 1813,2362.55 1801.98,2335.45C1791.1,2308.32 1778.41,2281.9 1762.5,2257.63L1756.24,2248.75L1753.11,2244.31C1752.03,2242.86 1750.85,2241.5 1749.72,2240.08L1742.89,2231.66C1740.5,2228.96 1737.97,2226.39 1735.51,2223.74L1731.81,2219.8C1730.53,2218.53 1729.15,2217.37 1727.83,2216.14L1719.82,2208.87L1711.27,2202.27C1709.83,2201.19 1708.46,2200 1706.95,2199.01L1702.41,2196.1C1690.5,2187.9 1677.19,2182.02 1663.69,2176.83C1656.8,2174.59 1649.97,2172.08 1642.83,2170.59C1639.29,2169.77 1635.78,2168.74 1632.19,2168.1L1621.41,2166.26L1616.01,2165.31L1610.56,2164.72L1599.64,2163.53C1592.34,2162.89 1584.99,2162.76 1577.66,2162.34L1555.6,2162.47L1533.52,2163.48Z" style="fill:white;fill-opacity:0.42;fill-rule:nonzero;"/>
                <path d="M1964.5,2524.78C1974.34,2496.61 1985.48,2468.85 1999.47,2442.25C2013.45,2415.76 2030.48,2390.11 2053.48,2369.69C2065.03,2359.64 2078,2351.01 2092.11,2344.79C2106.25,2338.69 2121.35,2334.76 2136.6,2333.65C2167.2,2331.07 2197.31,2338.07 2225.02,2348.79C2196.03,2342.08 2166.35,2337.61 2137.44,2341.52C2108.59,2345.19 2081.71,2358.02 2060.19,2377.3C2049.24,2386.74 2039.62,2397.77 2030.78,2409.41C2021.85,2421.01 2013.97,2433.45 2006.36,2446.1C1991.31,2471.53 1978.19,2498.26 1964.5,2524.78Z" style="fill:white;fill-opacity:0.42;fill-rule:nonzero;"/>
            </g>
            <g>
                <path d="M2535.3,1744.53C2535.3,1744.53 2546.64,2040.3 2753.24,2134.5L2661.49,2198.64C2661.49,2198.64 2475.39,1989.01 2503.56,1800.84L2535.3,1744.53Z" style="fill:url(#_Linear8);fill-rule:nonzero;"/>
                <g>
                    <path d="M2075.64,1651.14L2231.34,1404.34L2210.86,1391.42C2207.33,1389.19 2202.67,1390.25 2200.44,1393.78L2052.8,1627.8C2050.58,1631.33 2051.63,1635.99 2055.16,1638.22L2075.64,1651.14Z" style="fill:url(#_Linear9);fill-rule:nonzero;"/>
                    <path d="M2215.85,1780.63L1932.3,1895.99L1943.18,1932.77L2430.46,1967.5L2215.85,1780.63Z" style="fill:url(#_Linear10);fill-rule:nonzero;"/>
                    <path d="M2620.48,1548.55C2620.74,1548.14 2620.99,1547.72 2621.23,1547.29L2655.94,1485.23C2677.26,1447.14 2660.81,1397.25 2619.28,1374.02L2497.47,1305.87C2455.94,1282.63 2404.82,1294.74 2383.51,1332.82L2348.79,1394.88C2341.4,1408.09 2346.12,1424.78 2359.33,1432.17C2372.53,1439.56 2389.23,1434.83 2396.62,1421.63L2431.34,1359.58C2437.78,1348.04 2455.82,1345.36 2470.71,1353.7L2592.53,1421.85C2607.42,1430.18 2614.56,1446.95 2608.12,1458.48L2573.4,1520.53C2566.01,1533.74 2570.73,1550.44 2583.93,1557.83C2596.71,1564.97 2612.76,1560.79 2620.48,1548.55Z" style="fill:url(#_Linear11);fill-rule:nonzero;"/>
                    <path d="M2048.14,1679.29L2241.45,1372.87C2252.75,1354.97 2276.04,1349 2294.55,1359.26L2623.43,1541.52C2624.09,1541.89 2624.74,1542.27 2625.38,1542.68L2668.29,1569.75C2686.93,1581.51 2692.51,1606.15 2680.75,1624.8L2464.68,1967.29C2452.92,1985.93 2428.27,1991.51 2409.63,1979.75L2366.72,1952.68C2366.08,1952.28 2365.45,1951.86 2364.84,1951.42L2058.72,1733.07C2041.49,1720.79 2036.85,1697.18 2048.14,1679.29Z" style="fill:url(#_Linear12);fill-rule:nonzero;"/>
                    <path d="M1868.99,2006.7L1851.3,1833.99C1851.02,1831.23 1853.02,1828.77 1855.78,1828.49L1866.99,1827.34C1868.07,1827.23 1869.16,1827.47 1870.09,1828.03L1938.42,1892.9L1943.36,1933.58L1888.6,2008.73C1887.8,2009.46 1886.78,2009.92 1885.7,2010.03L1874.49,2011.18C1871.74,2011.46 1869.27,2009.46 1868.99,2006.7Z" style="fill:url(#_Linear13);fill-rule:nonzero;"/>
                    <path d="M2544.81,1769.26C2543.89,1769.26 2542.95,1769.01 2542.11,1768.48C2539.74,1766.98 2539.03,1763.85 2540.53,1761.47L2628.47,1622.06C2631.5,1617.27 2632.39,1611.6 2630.99,1606.11C2629.59,1600.61 2626.08,1596.07 2621.12,1593.32L2386.11,1462.76C2383.66,1461.4 2382.78,1458.31 2384.14,1455.86C2385.5,1453.4 2388.6,1452.53 2391.04,1453.88L2626.05,1584.44C2633.47,1588.57 2638.72,1595.37 2640.82,1603.59C2642.93,1611.82 2641.59,1620.3 2637.06,1627.48L2549.11,1766.89C2548.14,1768.42 2546.5,1769.26 2544.81,1769.26Z" style="fill:white;fill-opacity:0.57;fill-rule:nonzero;"/>
                </g>
                <g>
                    <path d="M2677.59,2749.4C2677.59,2749.4 2798.35,3012.59 2861.71,3121.61C2861.71,3121.61 2874.3,3190.2 2861.71,3211.78L2850.99,3216.54L2901.04,3215.05C2901.04,3215.05 2905.48,3122.78 2902.01,3117.63C2898.54,3112.48 2891.59,3112.81 2891.59,3112.81C2891.59,3112.81 2870.13,2942.79 2807.98,2906.5L2747.75,2699.04L2677.59,2749.4Z" style="fill:url(#_Linear14);fill-rule:nonzero;"/>
                    <path d="M2829.61,3229.46C2829.54,3230.67 2868.7,3230.12 2889.97,3229.73C2897.82,3229.59 2904.51,3224.07 2906.19,3216.39L2922.25,3132C2923.78,3123.98 2918.69,3116.19 2910.73,3114.37L2901.76,3112.32C2901.76,3112.32 2888.97,3129.87 2893,3146.39C2897.02,3162.91 2900.61,3205.7 2890.43,3210.68C2880.26,3215.67 2850.99,3216.54 2850.99,3216.54C2850.99,3216.54 2830.28,3218.6 2829.61,3229.46Z" style="fill:url(#_Linear15);fill-rule:nonzero;"/>
                    <path d="M2801.17,2880.97L2735.72,2518.52L2614.91,2594.03C2614.91,2594.03 2696.14,2821.11 2740.76,2911.17C2785.37,3001.24 2846.47,3102.47 2846.47,3102.47C2846.47,3102.47 2866.61,3107.5 2891.78,3077.3C2891.78,3077.3 2876.68,2941.38 2801.17,2880.97Z" style="fill:url(#_Linear16);fill-rule:nonzero;"/>
                    <path d="M2563.14,3230.99C2559.18,3233.25 2560.81,3239.3 2565.37,3239.25C2600.96,3238.89 2680.72,3237.77 2687.81,3234.82C2696.96,3231.02 2684.48,3198.13 2671.34,3187.01L2598.79,3210.68L2563.14,3230.99Z" style="fill:url(#_Linear17);fill-rule:nonzero;"/>
                    <path d="M2540.62,2732.61C2540.62,2732.61 2618.65,3110.13 2640.73,3183.77L2588.5,3216.54C2588.5,3216.54 2614.68,3212.09 2634.08,3210.68C2653.49,3209.28 2671.34,3187.01 2671.34,3187.01L2665.08,3177.03C2665.08,3177.03 2645.51,2801.56 2650.28,2758.93L2540.62,2732.61Z" style="fill:url(#_Linear18);fill-rule:nonzero;"/>
                    <path d="M2508.7,2134.06C2538.62,2142.36 2639.95,2169.02 2703.22,2167.93L2664.37,2387.12L2667.47,2422.87L2540.82,2422.3C2540.82,2422.3 2505.17,2339.51 2477.05,2298.23C2468.92,2286.31 2474.97,2272.09 2479.57,2258.42L2473.24,2254.2C2466.81,2249.92 2464.02,2241.87 2466.42,2234.52L2497.26,2140.16C2498.86,2135.41 2503.87,2132.72 2508.7,2134.06Z" style="fill:url(#_Linear19);fill-rule:nonzero;"/>
                    <path d="M2530.68,2403.59L2532.55,2419.92C2532.94,2423.27 2532.57,2426.62 2531.45,2429.8C2525.44,2446.81 2506.43,2510.76 2519.26,2609.13C2519.26,2609.13 2592.66,2637.46 2669.91,2615.8C2713.42,2603.6 2741.08,2561.07 2734.81,2516.31C2733.04,2503.67 2729.84,2493.68 2728.57,2489.61C2718.44,2457.18 2686.93,2434.74 2673.56,2426.43C2669.72,2424.04 2667.32,2419.89 2667.11,2415.37L2666.36,2399.21C2666.36,2399.21 2564.16,2417.69 2530.68,2403.59Z" style="fill:url(#_Linear20);fill-rule:nonzero;"/>
                    <path d="M2580.25,2151.73C2579.81,2151.14 2606.69,2070.57 2606.69,2070.57L2645.2,2074.06L2660.24,2165.47C2660.24,2165.47 2599.89,2177.65 2580.25,2151.73Z" style="fill:url(#_Linear21);fill-rule:nonzero;"/>
                    <path d="M2635.98,1943.49C2633.41,1945.09 2553.69,1978.04 2570.82,2060.8C2571.83,2065.69 2575.1,2069.84 2579.66,2071.87C2591.35,2077.09 2616.54,2086.02 2646.66,2082.96C2688.42,2078.72 2715.79,2005.84 2714.62,1984.63C2713.46,1963.43 2661.43,1927.64 2635.98,1943.49Z" style="fill:url(#_Linear22);fill-rule:nonzero;"/>
                    <path d="M2502.15,2179.97C2506.3,2169.17 2498.66,2157.56 2487.11,2157.03C2457.72,2155.67 2406.65,2146.41 2363.41,2103.17C2335.37,2075.12 2327.94,1973.1 2327.94,1973.1C2327.94,1973.1 2322.03,1925.8 2310.2,1925.8C2298.38,1925.8 2310.2,1955.36 2310.2,1955.36C2310.2,1955.36 2280.64,1973.1 2251.08,1949.45C2221.51,1925.8 2256.99,1984.92 2286.55,1996.75C2286.55,1996.75 2275.19,2229.67 2469.65,2233.31C2476.77,2233.44 2483.26,2229.09 2485.81,2222.45L2502.15,2179.97Z" style="fill:url(#_Linear23);fill-rule:nonzero;"/>
                    <path d="M2608.93,2110.6C2608.93,2095.02 2612.19,2080.2 2618.06,2066.79C2624.67,2051.68 2623.31,2034.02 2612.73,2021.36C2595.41,2000.64 2589.13,1974.37 2598.68,1951.37C2613.58,1915.46 2661.36,1901.16 2705.4,1919.43C2736.62,1932.39 2757.55,1958.23 2761.78,1984.97C2764.21,2000.34 2772.43,2014.05 2784.8,2023.5C2802.34,2036.88 2815.7,2055.45 2822.62,2076.92C2827.3,2091.43 2836.71,2103.91 2849.95,2111.47C2879.85,2128.52 2904.77,2154.86 2919.87,2188.65C2957.72,2273.42 2919.47,2372.92 2834.43,2410.91C2749.39,2448.89 2649.76,2410.97 2611.9,2326.2C2590.87,2279.11 2593.35,2227.48 2614.28,2184.37C2619.53,2173.55 2620.63,2161.09 2616.28,2149.88C2611.55,2137.69 2608.93,2124.46 2608.93,2110.6Z" style="fill:url(#_Linear24);fill-rule:nonzero;"/>
                    <path d="M2675.32,3157.84C2682.16,3155.89 2650.15,2649.4 2650.15,2649.4L2670.28,2599.06L2519.26,2609.13C2519.26,2609.13 2579.67,3067.23 2614.91,3162.88C2614.91,3162.88 2640.08,3167.91 2675.32,3157.84Z" style="fill:url(#_Linear25);fill-rule:nonzero;"/>
                    <path d="M2540.62,2142.45L2568.41,2149.09C2568.41,2149.09 2549.46,2337.29 2599.8,2407.77L2569.6,2412.8C2569.6,2412.8 2516.66,2305.04 2540.62,2142.45Z" style="fill:url(#_Linear26);fill-rule:nonzero;"/>
                </g>
            </g>
        </g>
    </g>
    <defs>
        <linearGradient id="_Linear1" x1="0" y1="0" x2="1" y2="0" gradientUnits="userSpaceOnUse" gradientTransform="matrix(-1982.44,-2110.34,2110.34,-1982.44,3522.51,3710.63)"><stop offset="0" style="stop-color:rgb(218,227,254);stop-opacity:1"/><stop offset="1" style="stop-color:rgb(233,239,253);stop-opacity:1"/></linearGradient>
        <linearGradient id="_Linear2" x1="0" y1="0" x2="1" y2="0" gradientUnits="userSpaceOnUse" gradientTransform="matrix(790.866,0,0,790.866,533.129,1228.67)"><stop offset="0" style="stop-color:rgb(64,66,226);stop-opacity:1"/><stop offset="1" style="stop-color:rgb(79,82,255);stop-opacity:1"/></linearGradient>
        <linearGradient id="_Linear3" x1="0" y1="0" x2="1" y2="0" gradientUnits="userSpaceOnUse" gradientTransform="matrix(853.634,0,0,853.634,459.764,2269.65)"><stop offset="0" style="stop-color:rgb(64,66,226);stop-opacity:1"/><stop offset="1" style="stop-color:rgb(79,82,255);stop-opacity:1"/></linearGradient>
        <linearGradient id="_Linear4" x1="0" y1="0" x2="1" y2="0" gradientUnits="userSpaceOnUse" gradientTransform="matrix(-115.047,609.072,-609.072,-115.047,2069.44,2590.83)"><stop offset="0" style="stop-color:rgb(255,146,142);stop-opacity:1"/><stop offset="1" style="stop-color:rgb(254,112,98);stop-opacity:1"/></linearGradient>
        <linearGradient id="_Linear5" x1="0" y1="0" x2="1" y2="0" gradientUnits="userSpaceOnUse" gradientTransform="matrix(25.4638,-0.0585667,0.0585667,25.4638,1938.52,2763.45)"><stop offset="0" style="stop-color:rgb(9,0,93);stop-opacity:1"/><stop offset="1" style="stop-color:rgb(26,15,145);stop-opacity:1"/></linearGradient>
        <linearGradient id="_Linear6" x1="0" y1="0" x2="1" y2="0" gradientUnits="userSpaceOnUse" gradientTransform="matrix(494.879,0,0,494.879,1456.34,2424.44)"><stop offset="0" style="stop-color:rgb(79,82,255);stop-opacity:1"/><stop offset="1" style="stop-color:rgb(64,66,226);stop-opacity:1"/></linearGradient>
        <linearGradient id="_Linear7" x1="0" y1="0" x2="1" y2="0" gradientUnits="userSpaceOnUse" gradientTransform="matrix(365.818,0,0,365.818,1930.9,2425.03)"><stop offset="0" style="stop-color:rgb(79,82,255);stop-opacity:1"/><stop offset="1" style="stop-color:rgb(64,66,226);stop-opacity:1"/></linearGradient>
        <linearGradient id="_Linear8" x1="0" y1="0" x2="1" y2="0" gradientUnits="userSpaceOnUse" gradientTransform="matrix(-372.896,-731.773,731.773,-372.896,2748.7,2272.16)"><stop offset="0" style="stop-color:rgb(254,187,186);stop-opacity:1"/><stop offset="1" style="stop-color:rgb(255,146,142);stop-opacity:1"/></linearGradient>
        <linearGradient id="_Linear9" x1="0" y1="0" x2="1" y2="0" gradientUnits="userSpaceOnUse" gradientTransform="matrix(-341.085,-244.291,244.291,-341.085,2773.97,1973.02)"><stop offset="0" style="stop-color:rgb(255,146,142);stop-opacity:1"/><stop offset="1" style="stop-color:rgb(254,112,98);stop-opacity:1"/></linearGradient>
        <linearGradient id="_Linear10" x1="0" y1="0" x2="1" y2="0" gradientUnits="userSpaceOnUse" gradientTransform="matrix(-314.672,903.412,-903.412,-314.672,2552.59,866.013)"><stop offset="0" style="stop-color:rgb(255,146,142);stop-opacity:1"/><stop offset="1" style="stop-color:rgb(254,112,98);stop-opacity:1"/></linearGradient>
        <linearGradient id="_Linear11" x1="0" y1="0" x2="1" y2="0" gradientUnits="userSpaceOnUse" gradientTransform="matrix(-314.671,903.409,-903.409,-314.671,2686.44,912.637)"><stop offset="0" style="stop-color:rgb(255,146,142);stop-opacity:1"/><stop offset="1" style="stop-color:rgb(254,112,98);stop-opacity:1"/></linearGradient>
        <linearGradient id="_Linear12" x1="0" y1="0" x2="1" y2="0" gradientUnits="userSpaceOnUse" gradientTransform="matrix(-314.671,903.408,-903.408,-314.671,2628.85,892.946)"><stop offset="0" style="stop-color:rgb(255,146,142);stop-opacity:1"/><stop offset="1" style="stop-color:rgb(254,112,98);stop-opacity:1"/></linearGradient>
        <linearGradient id="_Linear13" x1="0" y1="0" x2="1" y2="0" gradientUnits="userSpaceOnUse" gradientTransform="matrix(-314.671,903.409,-903.409,-314.671,2284.15,772.513)"><stop offset="0" style="stop-color:rgb(255,146,142);stop-opacity:1"/><stop offset="1" style="stop-color:rgb(254,112,98);stop-opacity:1"/></linearGradient>
        <linearGradient id="_Linear14" x1="0" y1="0" x2="1" y2="0" gradientUnits="userSpaceOnUse" gradientTransform="matrix(225.744,0,0,225.744,2677.59,2957.79)"><stop offset="0" style="stop-color:rgb(254,187,186);stop-opacity:1"/><stop offset="1" style="stop-color:rgb(255,146,142);stop-opacity:1"/></linearGradient>
        <linearGradient id="_Linear15" x1="0" y1="0" x2="1" y2="0" gradientUnits="userSpaceOnUse" gradientTransform="matrix(-111.795,726.668,-726.668,-111.795,2987.89,2452.96)"><stop offset="0" style="stop-color:rgb(79,82,255);stop-opacity:1"/><stop offset="1" style="stop-color:rgb(64,66,226);stop-opacity:1"/></linearGradient>
        <linearGradient id="_Linear16" x1="0" y1="0" x2="1" y2="0" gradientUnits="userSpaceOnUse" gradientTransform="matrix(-37.8489,-1545.48,1545.48,-37.8489,2772.55,3620)"><stop offset="0" style="stop-color:rgb(79,82,255);stop-opacity:1"/><stop offset="1" style="stop-color:rgb(64,66,226);stop-opacity:1"/></linearGradient>
        <linearGradient id="_Linear17" x1="0" y1="0" x2="1" y2="0" gradientUnits="userSpaceOnUse" gradientTransform="matrix(-111.796,726.674,-726.674,-111.796,2751.34,2416.56)"><stop offset="0" style="stop-color:rgb(79,82,255);stop-opacity:1"/><stop offset="1" style="stop-color:rgb(64,66,226);stop-opacity:1"/></linearGradient>
        <linearGradient id="_Linear18" x1="0" y1="0" x2="1" y2="0" gradientUnits="userSpaceOnUse" gradientTransform="matrix(130.723,0,0,130.723,2540.62,2974.58)"><stop offset="0" style="stop-color:rgb(254,187,186);stop-opacity:1"/><stop offset="1" style="stop-color:rgb(255,146,142);stop-opacity:1"/></linearGradient>
        <linearGradient id="_Linear19" x1="0" y1="0" x2="1" y2="0" gradientUnits="userSpaceOnUse" gradientTransform="matrix(-160.163,153.396,-153.396,-160.163,2802.07,2070.34)"><stop offset="0" style="stop-color:rgb(255,146,142);stop-opacity:1"/><stop offset="1" style="stop-color:rgb(254,112,98);stop-opacity:1"/></linearGradient>
        <linearGradient id="_Linear20" x1="0" y1="0" x2="1" y2="0" gradientUnits="userSpaceOnUse" gradientTransform="matrix(-37.8489,-1545.48,1545.48,-37.8489,2651.85,3622.96)"><stop offset="0" style="stop-color:rgb(79,82,255);stop-opacity:1"/><stop offset="1" style="stop-color:rgb(64,66,226);stop-opacity:1"/></linearGradient>
        <linearGradient id="_Linear21" x1="0" y1="0" x2="1" y2="0" gradientUnits="userSpaceOnUse" gradientTransform="matrix(79.9951,0,0,79.9951,2580.24,2119.45)"><stop offset="0" style="stop-color:rgb(254,187,186);stop-opacity:1"/><stop offset="1" style="stop-color:rgb(255,146,142);stop-opacity:1"/></linearGradient>
        <linearGradient id="_Linear22" x1="0" y1="0" x2="1" y2="0" gradientUnits="userSpaceOnUse" gradientTransform="matrix(-78.9534,281.977,-281.977,-78.9534,2711.08,1760.75)"><stop offset="0" style="stop-color:rgb(254,187,186);stop-opacity:1"/><stop offset="1" style="stop-color:rgb(255,146,142);stop-opacity:1"/></linearGradient>
        <linearGradient id="_Linear23" x1="0" y1="0" x2="1" y2="0" gradientUnits="userSpaceOnUse" gradientTransform="matrix(-742.987,-773.828,773.828,-742.987,2822.3,2567.68)"><stop offset="0" style="stop-color:rgb(254,187,186);stop-opacity:1"/><stop offset="1" style="stop-color:rgb(255,146,142);stop-opacity:1"/></linearGradient>
        <linearGradient id="_Linear24" x1="0" y1="0" x2="1" y2="0" gradientUnits="userSpaceOnUse" gradientTransform="matrix(276.622,537.028,-537.028,276.622,2613.18,1960.97)"><stop offset="0" style="stop-color:rgb(9,0,93);stop-opacity:1"/><stop offset="1" style="stop-color:rgb(26,15,145);stop-opacity:1"/></linearGradient>
        <linearGradient id="_Linear25" x1="0" y1="0" x2="1" y2="0" gradientUnits="userSpaceOnUse" gradientTransform="matrix(-37.8489,-1545.48,1545.48,-37.8489,2619.74,3623.74)"><stop offset="0" style="stop-color:rgb(79,82,255);stop-opacity:1"/><stop offset="1" style="stop-color:rgb(64,66,226);stop-opacity:1"/></linearGradient>
        <linearGradient id="_Linear26" x1="0" y1="0" x2="1" y2="0" gradientUnits="userSpaceOnUse" gradientTransform="matrix(-435.932,964.863,-964.863,-435.932,2868.67,1614.52)"><stop offset="0" style="stop-color:rgb(79,82,255);stop-opacity:1"/><stop offset="1" style="stop-color:rgb(64,66,226);stop-opacity:1"/></linearGradient>
    </defs>
</svg>
