<?xml version="1.0" encoding="UTF-8" standalone="no"?><!DOCTYPE svg PUBLIC "-//W3C//DTD SVG 1.1//EN" "http://www.w3.org/Graphics/SVG/1.1/DTD/svg11.dtd"><svg width="100%" height="100%" viewBox="0 0 2742 1434" version="1.1" xmlns="http://www.w3.org/2000/svg" xmlns:xlink="http://www.w3.org/1999/xlink" xml:space="preserve" xmlns:serif="http://www.serif.com/" style="fill-rule:evenodd;clip-rule:evenodd;stroke-linejoin:round;stroke-miterlimit:2;"><g><path d="M2590.55,1433.33l-1281.02,-38.712l1294.77,-43.363c-3.179,27.559 -7.75,54.959 -13.746,82.075Zm-2455.76,-251.841c-4.408,-119.15 4.205,-238.413 34.338,-353.479c45.204,-172.601 142.558,-335.817 290.104,-436.134c89.992,-61.187 199.671,-95.833 307.934,-95.833c69.237,-0 137.879,14.158 200.462,44.6c71.542,34.8 132.062,88.092 194.479,137.421c37.55,29.679 77.275,59.054 118.825,86.412c-55.804,21.008 -113.271,34.496 -171.808,37.417c-23.917,1.196 -47.863,1.791 -71.804,1.791c-47,0 -93.988,-2.3 -140.805,-6.887c3.555,-5.25 7.317,-10.392 9.942,-16.329c8.384,-18.954 10.892,-40.584 6.442,-60.867c-7.446,-33.941 -29.371,-48.108 -54.229,-68.321c-26.05,-21.187 -50.384,-43.096 -80.367,-59.275c-26.65,-14.383 -56.4,-24.245 -86.596,-24.245c-2.225,-0 -4.45,0.054 -6.675,0.162c-17.266,0.846 -34.908,5.304 -48.387,16.129c-7.621,-2.887 -15.492,-4.212 -23.384,-4.212c-29.316,-0 -58.875,18.3 -76.429,42.95c-19.371,27.2 -34.691,70.212 -40,107.637c-14.704,13.475 -19.408,36.617 -15.891,57.596c-110.563,31.637 -209.734,101.525 -261.242,220.671c-1.679,3.887 -3.334,7.787 -4.967,11.7c-0.983,-0.142 -2.012,-0.217 -3.087,-0.217c-19.95,0 -23.442,25.525 -10.475,34.459c-38.867,103.599 -61.354,214.779 -66.38,326.854Zm955.755,-727.721c-24.184,-0 -24.184,37.5 -0,37.5c24.183,-0 24.183,-37.5 -0,-37.5Z" style="fill:#f3fafe;fill-rule:nonzero;"/><path d="M153.592,1433.33c-16.471,-82.558 -22.588,-167.458 -18.805,-251.841c2.205,59.57 7.667,119.116 15.321,178.091l1159.42,35.038l-1155.94,38.712Zm2450.7,-82.075c16.562,-143.708 -4.883,-291.675 -60.954,-425.029c-2.663,-12.212 -6.321,-24.246 -9.888,-35.85c-4.533,-14.729 -15.05,-27.304 -27.408,-37.962c-24.646,-37.875 -56.158,-68.859 -92.2,-93.604c0.458,-9.784 3.083,-19.855 6.954,-29.867c10.004,-25.859 -1.229,-52.983 -16.908,-74.542c-15.846,-21.783 -39.538,-33.8 -63.409,-45.175c-9.604,-4.575 -19.512,-9.008 -27.333,-16.217c-20.133,-18.545 -21.129,-49.237 -28.496,-75.604c-13.616,-48.737 -59.025,-98.954 -110.221,-98.954c-11.166,0 -22.608,2.392 -34.058,7.704c-2.95,1.371 -5.929,2.921 -9.175,3.163c-0.308,0.021 -0.612,0.029 -0.917,0.029c-3.325,0 -6.55,-1.275 -9.733,-2.325c-10.704,-3.525 -21.929,-4.613 -33.242,-4.613c-7.354,0 -14.741,0.459 -22.046,1.009c-29.462,2.216 -59.095,5.783 -87.033,15.4c-70.641,24.325 -142.225,116.725 -78.787,185.946c7.154,7.808 16.291,15.996 15.596,26.562c-0.263,4.004 -1.98,7.729 -4.009,11.221c-2.237,1.525 -4.296,3.313 -6.096,5.317c-3.837,4.266 -6.587,9.35 -8.362,14.8c-6.184,7.441 -12.842,14.533 -19.371,21.733c-46.425,4.221 -93.029,6.333 -139.646,6.333c-23.104,0 -46.221,-0.52 -69.3,-1.562c-138.054,-6.217 -269.933,-67.392 -387.325,-144.692c128.796,-48.475 248.738,-136.975 352.575,-227.921c64.663,-56.637 127.367,-117.829 201.484,-157.779c64.841,-34.954 135.954,-51.208 207.687,-51.208c112.163,-0 225.796,39.775 319.025,110.029c152.858,115.179 253.725,302.575 300.554,500.742c46.829,198.166 43.496,407.17 19.704,610.316l-77.662,2.6Zm-42.3,-606.079c-24.179,0 -24.179,37.5 -0,37.5c24.183,0 24.183,-37.5 -0,-37.5Zm-910.096,-89.354c-24.183,-0 -24.183,37.5 -0,37.5c24.179,-0 24.179,-37.5 -0,-37.5Zm873.988,-93.979c-24.184,-0 -24.184,37.5 -0,37.5c24.179,-0 24.179,-37.5 -0,-37.5Zm-1131.56,-0c-24.179,-0 -24.179,37.5 0,37.5c24.183,-0 24.183,-37.5 0,-37.5Zm439.896,-269.442c-24.184,0 -24.184,37.5 -0,37.5c24.183,0 24.183,-37.5 -0,-37.5Zm313.887,-77.779c-24.183,0 -24.183,37.504 0,37.504c24.179,0 24.179,-37.504 0,-37.504Z" style="fill:#e3f3fc;fill-rule:nonzero;"/><path d="M1309.53,1394.62l-1159.42,-35.038c-7.654,-58.975 -13.116,-118.521 -15.321,-178.091c5.026,-112.075 27.513,-223.255 66.38,-326.854c2.75,1.895 6.241,3.041 10.475,3.041c23.108,0 24.137,-34.237 3.087,-37.283c1.633,-3.913 3.288,-7.813 4.967,-11.7c51.508,-119.146 150.679,-189.034 261.242,-220.671c1.354,8.071 3.924,15.829 7.612,22.587c2.275,4.171 5.204,8.192 8.629,11.9c-2.816,11.946 -1.721,24.692 4.225,35.405c6.4,11.541 18.646,19.508 31.538,21.6l-47.184,106.621c0,-0 -6.079,-1.117 -16.333,-1.725c17.883,27.395 48.646,46.366 81.346,50.216c4.425,0.521 8.871,0.775 13.308,0.775c18.388,0 36.692,-4.366 53.413,-12.221l-22.075,-3.92l8.883,-48.951c21.563,11.863 46.017,18.951 70.013,21.788c3.608,0.429 7.254,0.633 10.92,0.633c32.571,0 66.788,-16.233 90.554,-37.7c0.055,-0.05 0.105,-0.096 0.159,-0.141c0.008,-0.009 0.021,-0.021 0.029,-0.029c0.05,-0.046 0.1,-0.092 0.15,-0.138c0.008,-0.008 0.017,-0.017 0.029,-0.025c0.046,-0.042 0.092,-0.083 0.138,-0.125c0.008,-0.008 0.016,-0.012 0.021,-0.021c0.049,-0.046 0.1,-0.087 0.145,-0.133c0.017,-0.013 0.029,-0.025 0.046,-0.042c0.046,-0.041 0.096,-0.087 0.142,-0.129c0.008,-0.008 0.021,-0.021 0.029,-0.029c0.037,-0.033 0.075,-0.067 0.113,-0.104c0.02,-0.017 0.037,-0.038 0.058,-0.054c0.042,-0.038 0.079,-0.075 0.121,-0.113c0.025,-0.021 0.05,-0.046 0.075,-0.067c0.02,-0.02 0.041,-0.041 0.062,-0.058c0.05,-0.05 0.1,-0.1 0.154,-0.146c0.009,-0.012 0.017,-0.017 0.025,-0.025c13.975,-13.158 23.288,-29.475 33.563,-45.175c-0.004,0 -0.013,-0.004 -0.017,-0.008c2.563,-3.917 5.184,-7.788 7.959,-11.567c7.054,-9.612 12.924,-20.512 17.929,-31.796c1.525,0.067 3.045,0.134 4.541,0.134c1.063,-0 2.109,-0.034 3.134,-0.117c16.166,-1.317 27.358,-16.475 34.758,-30.904c4.592,-8.946 7.175,-19.054 11.558,-27.825c1.675,-3.358 3.704,-6.496 5.804,-9.596c46.817,4.587 93.805,6.887 140.805,6.887c23.941,0 47.887,-0.595 71.804,-1.791c58.537,-2.921 116.004,-16.409 171.808,-37.417c117.392,77.3 249.271,138.475 387.325,144.692c23.079,1.042 46.196,1.562 69.3,1.562c46.617,0 93.221,-2.112 139.646,-6.333c-6.483,7.142 -12.842,14.379 -18.496,22.158c-15.862,21.817 -25.821,51.696 -13.292,75.584c7.975,15.204 23.492,24.971 33.413,38.983c11.2,15.808 14.513,36.125 13.012,55.438c-2.612,33.625 -11.383,67.183 -17.695,100.283c15.125,5.633 31.225,6.754 47.475,6.754c9.741,-0 19.533,-0.404 29.204,-0.475c0.237,0 0.475,-0.004 0.712,-0.004c-2.875,5.408 -6.008,10.675 -9.371,15.779c31.23,10.579 64.205,15.9 97.171,15.9c26.092,-0 52.184,-3.333 77.404,-10.025c9.867,-2.617 19.817,-5.842 27.967,-11.983c5.513,-4.146 9.992,-9.467 14.021,-15.084c7.638,-2.554 15.113,-5.612 22.35,-9.266c22.333,-11.267 43.3,-30.613 45.538,-55.521l228.483,140.304c36.279,-20.279 74.987,-44.646 87.787,-84.187c6.654,-20.567 5.009,-41.942 0.459,-62.809c56.071,133.354 77.516,281.321 60.954,425.029l-1294.77,43.363Zm-31.058,-62.542c-1.754,1.579 -2.854,3.867 -2.854,6.408c-0,4.767 3.866,8.634 8.633,8.634l135.554,-0c4.767,-0 8.629,-3.867 8.629,-8.634c0,-2.541 -1.1,-4.829 -2.85,-6.408c30.175,-20.579 49.725,-53.491 49.725,-90.596c0,-50.566 -36.312,-93.362 -86.358,-107.729l-0,-98.871l7.092,0c8.6,0 15.57,-6.971 15.57,-15.57c0,-8.601 -6.97,-15.575 -15.57,-15.575l-88.029,-0c-8.6,-0 -15.571,6.974 -15.571,15.575c-0,8.599 6.971,15.57 15.571,15.57l7.091,0l0,98.871c-50.046,14.367 -86.358,57.163 -86.358,107.729c-0,37.105 19.546,70.017 49.725,90.596Zm-89.4,-542.479c-24.184,-0 -24.184,37.5 -0,37.5c24.179,-0 24.179,-37.5 -0,-37.5Zm1316.98,62.817c-9.2,-7.929 -19.421,-14.8 -28.954,-20.713c-15.684,-9.721 -32.65,-17.8 -46.08,-30.45c-13.329,-12.558 -17.887,-27.146 -17.166,-42.441c36.042,24.745 67.554,55.729 92.2,93.604Z" style="fill:#d9effb;fill-rule:nonzero;"/><path d="M2455.1,1073.22c36.279,-20.279 74.987,-44.646 87.787,-84.187c10.555,-32.609 0.242,-67.23 -9.429,-98.659c-7.908,-25.692 -34.017,-44.821 -56.362,-58.675c-15.684,-9.721 -32.65,-17.8 -46.08,-30.45c-21.854,-20.592 -20.137,-46.65 -10.212,-72.308c10.004,-25.859 -1.229,-52.983 -16.908,-74.542c-15.846,-21.783 -39.538,-33.8 -63.409,-45.175c-9.604,-4.575 -19.512,-9.008 -27.333,-16.217c-20.133,-18.545 -21.129,-49.237 -28.496,-75.604c-16.587,-59.366 -80.346,-120.929 -144.279,-91.25c-2.95,1.371 -5.929,2.921 -9.175,3.163c-3.65,0.266 -7.179,-1.15 -10.65,-2.296c-17.658,-5.821 -36.746,-5 -55.288,-3.604c-29.462,2.216 -59.095,5.783 -87.033,15.4c-70.641,24.325 -142.225,116.725 -78.787,185.946c7.154,7.808 16.291,15.996 15.596,26.562c-0.305,4.625 -2.546,8.884 -4.971,12.834c-14.109,22.987 -35.5,40.579 -51.363,62.395c-15.862,21.817 -25.821,51.696 -13.292,75.584c7.975,15.204 23.492,24.971 33.413,38.983c11.2,15.808 14.513,36.125 13.012,55.438c-2.612,33.625 -11.383,67.183 -17.695,100.283c24.187,9.008 50.87,6.471 76.679,6.279c38.908,-0.292 77.654,5.042 116.558,5.904c38.9,0.863 78.954,-3.062 113.696,-20.587c22.333,-11.267 43.3,-30.613 45.538,-55.521l228.483,140.304Z" style="fill:#bc56a0;fill-rule:nonzero;"/><path d="M2039.33,1034.8c-32.966,-0 -65.941,-5.321 -97.171,-15.9c3.363,-5.104 6.496,-10.371 9.371,-15.779c0.792,-0.004 1.592,-0.008 2.384,-0.008c37.87,-0 75.591,5.074 113.462,5.916c3.254,0.071 6.521,0.109 9.788,0.109c27.645,-0 55.591,-2.767 81.558,-11.43c-4.029,5.617 -8.508,10.938 -14.021,15.084c-8.15,6.141 -18.1,9.366 -27.967,11.983c-25.22,6.692 -51.312,10.025 -77.404,10.025Z" style="fill:#cca2cb;fill-rule:nonzero;"/><path d="M2077.17,1009.14c-3.267,-0 -6.534,-0.038 -9.788,-0.109c-37.871,-0.842 -75.592,-5.916 -113.462,-5.916c-0.792,-0 -1.592,0.004 -2.384,0.008c11.609,-21.833 19,-45.929 20.071,-70.579c1.329,-30.754 -7.633,-62.313 -27.079,-86.18c-15.229,-18.687 -36.683,-32.85 -46.604,-54.82c-6.221,-13.78 -7.183,-29.859 -2.65,-44.284c1.846,-5.858 4.512,-11.35 7.629,-16.637c1.846,3.096 3.963,6.029 6.329,8.75c12.388,14.254 29.134,22.358 46.388,22.362c6.008,0 12.079,-0.983 18.05,-3.033c25.783,34.363 66.32,53.446 111.329,53.463l0.067,-0c30.466,-0 60.966,-8.775 85.729,-26.763c0.496,-0.358 0.987,-0.721 1.475,-1.087c14.437,27.212 22.741,57.687 23.833,88.479c1.521,42.983 -11.021,86.346 -35.254,121.875c-0.7,1.02 -1.4,2.033 -2.121,3.041c-25.967,8.663 -53.913,11.43 -81.558,11.43Zm-138.563,-347.767l-1.137,-2.196c-0.067,-20.629 -9.084,-41.358 -16.95,-60.987c-9.888,-24.675 -17.942,-53.621 -5.059,-76.871c9.096,-16.417 26.734,-26.08 44.059,-33.292c12.716,-5.292 25.787,-9.742 39.087,-13.321c-0.125,0.675 -0.233,1.354 -0.325,2.038c-33.958,19.454 -60.004,53.32 -65.583,91.937c-2.471,17.113 -1.05,34.533 0.704,51.734c1.392,13.666 3.004,27.374 5.204,40.958Zm65.8,-187.938l-0.537,-0.096c0.479,-0.12 0.958,-0.241 1.437,-0.358c-0.3,0.15 -0.6,0.3 -0.9,0.454Z" style="fill:#b63e97;fill-rule:nonzero;"/><path d="M2041.05,900.9l381.938,0c-17.317,-18.263 -33.142,-29.971 -46.221,-32.417c-56.913,-10.654 -115.525,-6.745 -115.525,-6.745l-74.121,-128.384l-60.663,58.542l19.43,93.491c-0,0 -59.671,-11.058 -104.838,15.513Z" style="fill:#f38094;fill-rule:nonzero;"/><path d="M1936.83,657.946c-11.233,-3.479 -24.033,1.171 -31.896,9.921c-7.862,8.745 -11.171,20.925 -10.841,32.683c0.396,14.163 5.841,28.129 15.137,38.821c19.721,22.692 50.475,29.804 76.779,13.433l-49.179,-94.858Z" style="fill:#f37c90;fill-rule:nonzero;"/><path d="M1960.87,732.037c0.441,-0.179 -0.575,-4.133 -2.975,-10.295c-2.429,-6.113 -6.317,-14.613 -12.988,-22.513c-6.696,-7.912 -15.108,-12.858 -21.646,-14.646c-6.579,-1.875 -10.85,-1.108 -10.812,-0.716c-0.029,0.595 4.071,0.779 9.987,3.133c5.904,2.271 13.438,7.158 19.725,14.571c6.288,7.437 10.421,15.45 13.409,21.221c2.958,5.808 4.821,9.445 5.3,9.245Z" style="fill:#d2576a;fill-rule:nonzero;"/><path d="M1957.26,735.904c-0.175,-0.558 -3.312,0.617 -8.033,-0.604c-2.317,-0.608 -4.979,-1.829 -7.308,-3.904c-2.329,-2.046 -4.263,-5.038 -5.434,-8.504c-2.387,-7.042 -1.012,-14.075 0.454,-18.829c1.521,-4.817 2.963,-7.721 2.492,-7.996c-0.379,-0.234 -2.625,2.208 -4.879,7.091c-2.171,4.755 -4.258,12.659 -1.488,20.884c1.359,4.037 3.75,7.562 6.713,9.904c2.95,2.35 6.212,3.5 8.975,3.862c5.679,0.688 8.754,-1.591 8.508,-1.904Z" style="fill:#d2576a;fill-rule:nonzero;"/><path d="M2600.73,1206.11c-58.175,-141.316 -167.046,-326.975 -223.962,-337.625c-47.992,-8.987 -97.188,-7.612 -111.434,-6.962c-13.675,17.391 -34.721,29.666 -56.8,33.296c-23.725,3.9 -47.921,-0.73 -70.087,-10.471c-23.054,-2.629 -94.054,-6.046 -128.246,45.512c-41.15,62.05 -133.296,346.588 -184.5,416.454l160.096,16.026c-0,-0 55.404,-75.488 67.192,-133.738c-0,-0 2.337,93.779 -4.742,133.738c-7.084,39.954 431.496,-0 431.496,-0c-0,-0 179.158,-14.913 120.987,-156.23Z" style="fill:#fef3f8;fill-rule:nonzero;"/><path d="M2305.04,861.292c-18.459,-0.534 -32.996,-0.08 -39.709,0.229c-13.675,17.391 -34.721,29.666 -56.8,33.296c-23.725,3.9 -47.921,-0.73 -70.087,-10.471c-8.725,-0.996 -24.321,-2.096 -42.188,-0.292c10.03,32.979 33.475,80.746 88.05,111.858c0,0 88.784,-48.462 120.734,-134.62Z" style="fill:#61c6dd;fill-rule:nonzero;"/><path d="M2223.69,1235.66c-0,9.617 -3.388,17.417 -7.567,17.417c-4.179,0 -7.567,-7.8 -7.567,-17.417c0,-9.62 3.388,-17.42 7.567,-17.42c4.179,-0 7.567,7.8 7.567,17.42Z" style="fill:#61c6dd;fill-rule:nonzero;"/><path d="M2178.02,1262.62c-20.909,6.479 -43.409,0.979 -64.73,-4.004c-21.316,-4.984 -44.379,-9.296 -64.529,-0.738c-3.183,1.35 -6.708,5.104 -4.354,7.638c1.192,1.283 3.204,1.208 4.942,1.033c19.054,-1.9 39.891,-3.558 55.771,7.138c-14.304,1.454 -28.554,3.441 -42.713,5.958c-13.083,2.329 -26.233,5.162 -38.221,10.896c-11.987,5.733 -22.854,14.662 -28.67,26.612c11.441,1.709 21.591,-6.608 31.279,-12.929c18.75,-12.238 41.437,-18.329 63.795,-17.137c-15.775,5.341 -31.099,11.995 -45.841,19.741c-9.267,4.867 -18.463,10.288 -25.492,18.038c-7.029,7.75 -11.7,18.22 -10.358,28.6c24.283,-22.554 51.346,-46.359 84.412,-48.546c-25.27,9.762 -46.675,29.179 -58.846,53.383c9.417,-9.629 20.184,-19.896 33.642,-20.529c14.496,-0.683 26.729,9.992 40.242,15.296c11.346,4.454 23.829,5.112 36,4.558c26,-1.187 52.612,-8.166 72.525,-24.925c7.262,-6.116 13.666,-13.721 16.329,-22.833" style="fill:#f4899a;fill-rule:nonzero;"/><path d="M2186.98,997.275l-0.162,-0.025c-0.988,-0.275 -2.03,-0.754 -3.054,-1.312c1.262,11.008 2.387,26.524 2.187,45.608c-0.179,19.925 -1.954,43.621 -4.542,69.958c-2.525,26.342 -5.637,55.429 -5.954,86.271c-0.291,30.954 3.979,59.979 5.321,86.217c1.462,26.233 -0.079,49.962 -2,69.821c-1.963,19.862 -4.254,35.904 -5.675,47.016c-1.463,11.113 -2.108,17.292 -1.608,17.384c0.483,0.083 2.066,-5.926 4.375,-16.913c2.279,-10.992 5.35,-26.958 7.983,-46.913c2.583,-19.933 4.692,-43.974 3.571,-70.712c-1.013,-26.696 -5.054,-55.571 -4.75,-85.858c0.316,-30.346 3.2,-59.296 5.362,-85.721c2.234,-26.425 3.5,-50.417 3.021,-70.579c-0.4,-18.305 -2.121,-33.342 -4.075,-44.242Z" style="fill:#d7bad9;fill-rule:nonzero;"/><path d="M2623.82,1251.39c-3.525,-26.255 -14.208,-49.371 -23.984,-73.646c-7.95,-19.738 -12.066,-37.429 -23.058,-56.392c-27.417,-47.283 -48.762,-95.967 -80.617,-141.588c-24.929,-35.7 -60.17,-97.054 -108.983,-102.575c-56.133,-6.345 -60.612,76.059 -57.921,113.338c2.938,40.646 15.575,79.392 33.538,115.767c7.537,15.266 12.433,30.571 21.221,45.137c9.429,15.621 14.896,38.959 15.733,57.063c0.196,4.245 -0.054,8.937 -2.95,12.046c-2.15,2.304 -5.342,3.266 -8.388,4.07c-33.608,8.913 -68.675,10.425 -103.416,11.896c-42.442,1.792 -84.884,3.588 -127.325,5.379c-4.113,35.929 -5.208,71.95 -0.792,107.513c14.146,2.766 28.396,5.237 42.142,9.179c12.271,3.517 22.9,10.475 34.954,14.417c37.262,12.171 84.742,10.896 123.496,9.246c62.121,-2.651 124.691,-8.784 184.171,-27.842c24.658,-7.904 42.837,-9.929 60.479,-31.108c16.654,-20.001 25.191,-45.925 21.7,-71.9Z" style="fill:#fef3f8;fill-rule:nonzero;"/><path d="M2097.38,1343.73l-364.437,-0l-0,-23.529c-0,-8.279 6.712,-14.988 14.991,-14.988l334.459,0c8.275,0 14.987,6.709 14.987,14.988l0,23.529Z" style="fill:#2c296a;fill-rule:nonzero;"/><path d="M1899.96,677.588c21.384,-2.446 42.767,-4.892 64.146,-7.342c3.692,-0.421 3.734,-6.259 0,-5.829c-21.379,2.445 -42.762,4.891 -64.146,7.337c-3.691,0.421 -3.733,6.259 0,5.834Z" style="fill:#fef3f8;fill-rule:nonzero;"/><path d="M2085,812.163c30.487,0.012 61.012,-8.763 85.796,-26.763c27.737,-20.142 39.92,-47.65 53.587,-77.837c4.959,3.795 11.854,3.8 17.988,2.612c42.737,-8.254 72.854,-58.608 40.087,-95.783c-15.208,-17.254 -45.9,-20.296 -60.75,-2.734c-2.5,-31.537 -11.446,-61.696 -28.066,-88.716c-37.909,-61.63 -113.967,-81.234 -179.805,-53.859c-41.354,17.196 -74.733,55.267 -81.137,99.596c-2.471,17.113 -1.05,34.533 0.704,51.734c3.758,36.891 9.133,74.095 23.296,108.362c21.917,53.037 71.558,83.362 128.3,83.388Z" style="fill:#f4899a;fill-rule:nonzero;"/><path d="M1998.6,474.704c0.138,-0.746 0.292,-1.496 0.471,-2.237l4.792,0.87c-1.759,0.438 -3.513,0.896 -5.263,1.367Z" style="fill:#bb4f9e;fill-rule:nonzero;"/><path d="M1998.28,476.742c0.092,-0.684 0.2,-1.363 0.325,-2.038c1.75,-0.471 3.504,-0.929 5.263,-1.367l0.537,0.096c-2.066,1.05 -4.108,2.155 -6.125,3.309Z" style="fill:#b23794;fill-rule:nonzero;"/><path d="M2173.6,639.171c-12.813,-0 -25.746,-3.383 -37,-9.579c-20.129,-11.088 -35.029,-30.375 -43.408,-51.771c-4.917,-12.559 -8.375,-26.817 -19.084,-35.021c-11.908,-9.125 -28.645,-7.583 -42.87,-12.358c-21.617,-7.254 -35.984,-31.25 -32.959,-53.7c2.017,-1.154 4.059,-2.259 6.125,-3.309l112.342,20.325c13.208,3.355 23.554,13.896 30.466,25.638c6.921,11.746 11.055,24.879 16.45,37.4c9.217,21.391 22.251,41.137 38.296,58.029c3.955,4.158 8.313,10.438 4.784,14.963c-0.992,1.27 -2.45,2.079 -3.896,2.791c-9.088,4.488 -19.133,6.592 -29.246,6.592Z" style="fill:#f38096;fill-rule:nonzero;"/><path d="M1996.62,669.421c1.517,9.487 -0.696,17.733 -4.946,18.412c-4.254,0.684 -8.929,-6.458 -10.45,-15.945c-1.516,-9.492 0.7,-17.734 4.95,-18.413c4.25,-0.683 8.929,6.458 10.446,15.946Z" style="fill:#d2576a;fill-rule:nonzero;"/><path d="M2094.81,649.821c1.52,9.487 -0.696,17.729 -4.946,18.412c-4.25,0.68 -8.93,-6.462 -10.446,-15.95c-1.521,-9.487 0.696,-17.733 4.946,-18.412c4.25,-0.679 8.929,6.462 10.446,15.95Z" style="fill:#d2576a;fill-rule:nonzero;"/><path d="M1988.4,599.642c2.787,5.687 -2.8,14.137 -12.471,18.875c-9.675,4.737 -19.775,3.971 -22.562,-1.717c-2.784,-5.687 2.8,-14.137 12.474,-18.879c9.675,-4.738 19.775,-3.967 22.559,1.721Z" style="fill:#bc56a0;fill-rule:nonzero;"/><path d="M2099.15,588.092c-1.767,6.083 -11.588,8.575 -21.929,5.571c-10.346,-3.005 -17.3,-10.371 -15.534,-16.45c1.767,-6.084 11.584,-8.575 21.929,-5.571c10.346,3.004 17.3,10.366 15.534,16.45Z" style="fill:#bc56a0;fill-rule:nonzero;"/><path d="M2049.57,700.092c-0.221,-0.171 -1.45,1.308 -3.792,3.695c-1.183,1.163 -2.687,2.546 -4.696,3.538c-1.933,1.013 -4.566,1.354 -7.029,0.404c-2.554,-0.929 -3.879,-3.304 -3.229,-6.621c0.608,-3.346 1.354,-7.354 1.662,-11.391c0.73,-8.163 0.405,-17.217 -1.029,-26.525c-2.921,-18.667 -9.275,-34.559 -14.021,-45.771c-4.866,-11.209 -8.304,-17.925 -8.741,-17.742c-0.484,0.2 2.133,7.292 6.366,18.688c4.13,11.404 9.992,27.208 12.829,45.37c1.392,9.071 1.805,17.825 1.284,25.725c-0.229,4.013 -0.788,7.559 -1.321,11.284c-0.208,1.879 -0.137,4.062 0.917,5.9c1.05,1.821 2.766,2.946 4.42,3.483c3.334,1.096 6.634,0.354 8.855,-1.033c2.25,-1.35 3.708,-3.017 4.787,-4.375c2.104,-2.784 2.909,-4.496 2.738,-4.629Z" style="fill:#d2576a;fill-rule:nonzero;"/><path d="M2065.08,703.683c-0.562,0 -0.721,2.742 -2.258,6.638c-1.471,3.854 -4.675,8.925 -10,12.125c-5.342,3.171 -11.321,3.587 -15.413,3.058c-4.158,-0.496 -6.646,-1.654 -6.916,-1.158c-0.238,0.35 1.904,2.412 6.425,3.662c4.404,1.267 11.412,1.296 17.758,-2.466c6.317,-3.805 9.612,-9.988 10.587,-14.467c1.038,-4.571 0.238,-7.437 -0.183,-7.392Z" style="fill:#d2576a;fill-rule:nonzero;"/><path d="M2241.2,700.462c0.087,-0.27 -1.267,-0.774 -3.242,-2.25c-1.95,-1.466 -4.504,-4.095 -6.183,-8.112c-1.708,-4.004 -2.413,-9.283 -2.167,-15.208c0.179,-5.925 1.163,-12.417 3.121,-18.971c3.875,-13.175 11.025,-23.725 17.1,-30.35c6.017,-6.763 10.775,-9.959 10.408,-10.479c-0.17,-0.309 -5.52,2.158 -12.249,8.708c-6.763,6.392 -14.646,17.246 -18.717,31.088c-2.058,6.879 -2.988,13.733 -2.988,19.954c-0.075,6.191 0.946,12 3.179,16.333c2.205,4.375 5.371,7.004 7.746,8.225c2.417,1.233 3.946,1.267 3.992,1.062Z" style="fill:#d2576a;fill-rule:nonzero;"/><path d="M2244.32,685.329c0.221,0.342 3.22,-1.075 6.183,-5.35c2.942,-4.154 5.388,-11.471 3.804,-19.404c-1.621,-7.896 -6.483,-13.692 -10.479,-16.725c-4.058,-3.121 -7.167,-3.912 -7.337,-3.521c-0.263,0.496 2.333,2.079 5.641,5.429c3.292,3.288 7.238,8.68 8.638,15.534c1.366,6.837 -0.342,13.316 -2.463,17.383c-2.104,4.154 -4.362,6.213 -3.987,6.654Z" style="fill:#d2576a;fill-rule:nonzero;"/><path d="M2140.08,747.825c-24.379,-0 -44.146,-19.762 -44.146,-44.142c0,-24.379 19.767,-44.141 44.146,-44.141c24.38,-0 44.142,19.762 44.142,44.141c-0,24.38 -19.762,44.142 -44.142,44.142Z" style="fill:#f37e95;fill-rule:nonzero;"/><path d="M1956.96,729.421c0,-0.004 0,-0.004 -0.004,-0.008l0.004,0.008Zm-0.133,-0.317c0,-0.004 0,-0.008 -0.004,-0.008c0.004,-0 0.004,0.004 0.004,0.008Z" style="fill:#f2738a;fill-rule:nonzero;"/><path d="M2009.85,791.563c-23,-14.121 -41.571,-35.134 -52.888,-62.142l-0.004,-0.008c-0.041,-0.105 -0.083,-0.205 -0.129,-0.309c0,-0.004 0,-0.008 -0.004,-0.008c-0.042,-0.108 -0.087,-0.213 -0.129,-0.321c-0.775,-1.871 -1.425,-3.779 -2.146,-5.667c7.167,-5.029 15.875,-8 25.292,-8c24.379,0 44.145,19.763 44.145,44.142c0,12.775 -5.462,24.25 -14.137,32.313Z" style="fill:#f37e95;fill-rule:nonzero;"/><path d="M2126.47,453.517c-20.404,-4.496 -42.038,-4.967 -62.967,-3.813c-8.171,0.446 -62.154,7.963 -63.279,14.408c-2.875,16.442 15.217,30.867 28.054,37.384c14.75,7.487 30.154,13.687 45.983,18.504c8.588,2.617 18.284,5.596 22.33,13.608c2.479,4.917 2.225,10.692 2.55,16.188c1.546,26.108 15.475,37.158 32.533,53.596c17.492,16.854 40.338,29.575 65.446,23.658c8.591,-2.021 17.071,-6.546 21.471,-14.2c10.212,-17.763 3.671,-49.004 -6.429,-65.554c-12.542,-20.542 -22.171,-42.738 -36.609,-62.167c-13.846,-18.629 -25.458,-26.408 -49.083,-31.612Z" style="fill:#bc56a0;fill-rule:nonzero;"/><path d="M2053.26,1222.03c0.18,-0.287 -3.474,-2.629 -9.62,-7.396c-6.196,-4.675 -14.625,-12.275 -23.188,-23.154c-4.125,-5.542 -8.45,-11.8 -12.008,-19.104c-3.763,-7.192 -6.804,-15.375 -8.934,-24.217c-4.587,-17.666 -3.933,-38.296 2.326,-58.425c6.25,-20.204 15.437,-38.379 23.237,-55.141c7.917,-16.725 14.321,-32.288 17.946,-45.925c3.675,-13.625 4.625,-25.113 4.45,-32.975c-0,-3.938 -0.538,-6.975 -0.7,-9.03c-0.242,-2.054 -0.425,-3.116 -0.55,-3.104c-0.321,0.029 -0.063,4.367 -0.154,12.121c-0.259,7.763 -1.575,18.983 -5.505,32.296c-3.879,13.333 -10.429,28.583 -18.491,45.192c-7.938,16.646 -17.3,34.883 -23.688,55.521c-6.429,20.62 -7.02,42.133 -2.1,60.262c2.284,9.1 5.525,17.479 9.5,24.796c3.775,7.437 8.325,13.758 12.671,19.316c9,10.909 17.829,18.321 24.35,22.701c3.121,2.395 5.9,3.741 7.638,4.849c1.787,1.034 2.754,1.521 2.82,1.417Z" style="fill:#d7bad9;fill-rule:nonzero;"/><path d="M2025.78,1028c0.871,0.237 4.454,-14.55 2.217,-32.933c-2.108,-18.4 -9.042,-31.942 -9.829,-31.513c-1.021,0.4 4.22,14.142 6.246,31.937c2.175,17.775 0.283,32.363 1.366,32.509Z" style="fill:#d7bad9;fill-rule:nonzero;"/><path d="M2314.22,923.025c-0.246,0 -0.429,1.917 -0.546,5.579c-0.041,2.171 -0.083,4.421 -0.125,6.779c-0.016,2.688 0.275,5.767 0.463,9.25c0.941,13.875 4.02,34.063 12.087,57.721c7.859,23.738 20.796,50.521 35.142,79.883c3.571,7.355 7.162,14.909 10.746,22.655c3.529,7.795 7.162,15.641 10.116,23.875c5.871,16.412 10.434,34.329 9.754,52.504c-0.4,9.016 -2.279,17.846 -6.366,25.329c-2.042,3.729 -4.592,7.1 -7.554,10.038c-2.979,2.924 -6.45,5.27 -10.075,7.291c-7.388,3.858 -15.559,6.054 -23.784,7.059c-8.433,1.029 -16.716,1.85 -24.829,2.433c-32.467,2.246 -61.966,1.691 -86.758,2.196c-24.796,0.329 -44.909,1.591 -58.709,3.237c-6.904,0.804 -12.241,1.608 -15.833,2.338c-3.592,0.679 -5.458,1.15 -5.425,1.4c0.033,0.245 1.963,0.254 5.609,0.046c3.633,-0.263 8.991,-0.617 15.887,-0.984c13.792,-0.775 33.758,-1.254 58.492,-0.933c24.72,0.146 54.254,1.241 87.175,-0.663c8.225,-0.5 16.646,-1.25 25.241,-2.225c8.771,-1.008 17.813,-3.3 26.259,-7.662c4.158,-2.275 8.2,-4.992 11.716,-8.413c3.496,-3.42 6.513,-7.391 8.896,-11.725c4.779,-8.716 6.833,-18.646 7.271,-28.445c0.708,-19.738 -4.183,-38.292 -10.325,-55.259c-3.117,-8.533 -6.904,-16.558 -10.508,-24.346c-3.675,-7.779 -7.363,-15.341 -11.021,-22.679c-14.721,-29.283 -27.959,-55.504 -36.3,-78.642c-8.546,-23.054 -12.321,-42.687 -14.109,-56.312c-0.395,-3.417 -0.908,-6.446 -1.116,-9.088c-0.196,-2.329 -0.384,-4.554 -0.563,-6.699c-0.354,-3.625 -0.658,-5.538 -0.908,-5.538Z" style="fill:#d7bad9;fill-rule:nonzero;"/><path d="M2184.31,995.912l76.934,60.35c-0,0 69.212,-67.537 45.541,-194.92c-3.625,-0.117 -7.087,-0.192 -10.391,-0.238l-112.084,134.808Z" style="fill:#f6e7f1;fill-rule:nonzero;"/><path d="M2103.82,883.45c-2.742,0.167 -5.55,0.396 -8.425,0.696c-5.017,26.783 -16.242,103.321 7.204,156.366l81.708,-44.6l-80.487,-112.462Z" style="fill:#f6e7f1;fill-rule:nonzero;"/><path d="M2249.87,907.746c19.996,-10.684 36.771,-27.117 48.312,-46.613c-15.162,-0.258 -26.991,0.117 -32.85,0.388c-13.675,17.391 -34.721,29.666 -56.8,33.296c-23.725,3.9 -47.921,-0.73 -70.087,-10.471c-7.092,-0.809 -18.734,-1.683 -32.434,-1.021c10.313,14.946 26.771,25.808 44.138,31.95c32.35,11.442 69.454,8.642 99.721,-7.529Z" style="fill:#71cee4;fill-rule:nonzero;"/><path d="M2222.09,1073.3c-0,9.617 -3.388,17.421 -7.571,17.421c-4.179,-0 -7.567,-7.804 -7.567,-17.421c0,-9.625 3.388,-17.421 7.567,-17.421c4.183,0 7.571,7.796 7.571,17.421Z" style="fill:#61c6dd;fill-rule:nonzero;"/><path d="M2222.09,1158.64c-0,9.62 -3.388,17.416 -7.571,17.416c-4.179,0 -7.567,-7.796 -7.567,-17.416c0,-9.621 3.388,-17.421 7.567,-17.421c4.183,-0 7.571,7.8 7.571,17.421Z" style="fill:#61c6dd;fill-rule:nonzero;"/><path d="M2524.11,1176.23c-3.625,-15.217 -10.012,-29.292 -17.325,-42.341c-14.862,-26.1 -33.633,-48.038 -50.375,-69.434c-33.72,-42.667 -60.441,-83.992 -77.97,-121.162c-8.88,-18.513 -15.288,-36.013 -21.596,-51.163c-0.771,-1.879 -1.546,-3.717 -2.321,-5.521c-0.696,0.609 -1.363,1.263 -2.025,1.917c0.617,1.517 1.233,3.046 1.854,4.617c6.042,15.166 12.25,32.825 21.008,51.6c17.267,37.641 43.896,79.462 77.559,122.445c16.712,21.542 35.27,43.417 49.758,69.017c7.137,12.796 13.312,26.504 16.775,41.138c1.829,7.3 2.825,14.841 3.283,22.433c0.455,7.596 0.192,15.296 -1.021,22.879c-1.174,7.588 -3.166,14.988 -6.058,21.963c-3.004,6.925 -6.929,13.358 -11.667,19.054c-9.454,11.5 -22.429,19.346 -35.891,24.754c-13.563,5.35 -27.696,8.633 -41.704,10.737c-3.496,0.555 -6.942,1.317 -10.43,1.688c-3.483,0.383 -6.949,0.762 -10.399,1.142c-6.876,0.908 -13.734,1.233 -20.501,1.6c-27.087,1.4 -52.941,0.308 -77.087,-1.15c-24.021,-1.671 -46.525,-3.234 -67.263,-4.675c-17.42,-1.225 -33.466,-1.792 -47.941,-1.859c0.412,-21.495 1.925,-40.712 3.575,-55.658c-1.163,0.05 -2.325,0.096 -3.488,0.146c-2.27,14.904 -4.212,34.062 -4.808,55.512c-12.679,0.042 -24.046,0.479 -33.971,1.204c-0.004,0.713 0.013,1.421 0.009,2.134c9.899,-0.517 21.249,-0.754 33.916,-0.6c-0.137,6.133 -0.187,12.4 -0.071,18.837c0.263,13.717 1.146,26.759 2.359,38.817c1.546,0.379 3.079,0.796 4.616,1.204c-1.075,-12.417 -1.887,-25.912 -2.166,-40.108c-0.109,-6.384 -0.092,-12.596 -0,-18.679c14.404,0.275 30.375,1.041 47.741,2.445c20.542,1.451 43.013,3.6 67.23,5.263c24.208,1.633 50.199,2.888 77.57,1.596c6.842,-0.342 13.771,-0.642 20.742,-1.534c3.496,-0.37 7.004,-0.741 10.537,-1.116c3.53,-0.363 7.034,-1.125 10.584,-1.671c14.187,-2.092 28.633,-5.383 42.7,-10.896c13.95,-5.571 27.683,-13.783 37.812,-26.058c5.059,-6.063 9.238,-12.917 12.417,-20.25c3.071,-7.379 5.167,-15.167 6.396,-23.117c1.271,-7.946 1.533,-15.971 1.062,-23.871c-0.479,-7.891 -1.525,-15.716 -3.425,-23.279Z" style="fill:#d7bad9;fill-rule:nonzero;"/><path d="M2161.65,1080.77c0,-1.329 -7.7,-2.409 -17.187,-2.409c-9.492,0 -17.188,1.08 -17.188,2.409c-0,1.329 7.696,2.404 17.188,2.404c9.487,-0 17.187,-1.075 17.187,-2.404Z" style="fill:#d7bad9;fill-rule:nonzero;"/><path d="M2152.98,1164.15c-0.27,-1.325 -6.304,-1.179 -13.595,-0.908c-7.292,0.308 -13.317,0.637 -13.484,1.979c-0.175,1.292 5.938,3.15 13.675,2.833c7.729,-0.295 13.684,-2.629 13.404,-3.904Z" style="fill:#d7bad9;fill-rule:nonzero;"/><path d="M2602.12,1323.29c16.654,-20.001 25.191,-45.925 21.7,-71.9c-1.579,-11.78 -4.646,-22.917 -8.379,-33.821c-15.704,7.929 -29.959,18.65 -41.555,31.933c-24.945,28.563 -36.687,67.625 -33.674,105.333c0.475,-0.154 0.954,-0.287 1.429,-0.437c24.658,-7.904 42.837,-9.929 60.479,-31.108Z" style="fill:#f6e7f1;fill-rule:nonzero;"/><path d="M2434.18,971.937c-9.392,-16.112 -31.467,-37.133 -52.067,-31.245c-19.037,5.441 -24.775,28 -20.879,44.762c6.446,27.734 29.879,52.496 58.288,54.379c3.312,0.221 6.741,0.121 9.804,-1.162c3.371,-1.408 6.029,-4.142 8.137,-7.125c12.154,-17.184 7.313,-41.425 -3.283,-59.609Z" style="fill:#61c6dd;fill-rule:nonzero;"/><path d="M2180.07,589.288c26.796,40.933 36.896,92.458 27.538,140.479c-7.846,40.258 -28.721,78.358 -27.817,119.362c0.712,31.913 15.804,63.6 41.279,82.829c25.475,19.234 61.054,24.946 90.654,12.996c16.613,-6.704 30.75,-18.317 46.696,-26.487c24.775,-12.692 53.904,-16.675 81.179,-11.1c7.279,-19.259 -5.721,-41.1 -23.104,-52.134c-17.383,-11.033 -38.317,-14.508 -57.958,-20.683c-26.45,-8.317 -51.229,-21.9 -72.467,-39.721c-7.887,-6.616 -15.462,-14.054 -19.683,-23.442c-5.146,-11.441 -4.775,-24.487 -4.504,-37.029c0.6,-28.004 0.158,-56.454 -7.78,-83.312c-7.937,-26.863 -24.291,-52.292 -48.904,-65.65" style="fill:#bc56a0;fill-rule:nonzero;"/><path d="M2422.55,882.054c0.113,-0.054 -0.246,-1.042 -1.037,-2.896c-0.721,-1.887 -2.134,-4.5 -4.05,-7.829c-4.013,-6.487 -10.996,-15.429 -21.984,-23.741c-10.891,-8.388 -25.562,-16.146 -42.883,-21.559c-8.65,-2.746 -17.867,-4.85 -27.2,-7.533c-9.308,-2.679 -18.837,-5.958 -27.392,-11.342c-4.279,-2.675 -8.096,-5.875 -11.458,-9.425c-3.279,-3.633 -6.062,-7.604 -8.413,-11.746c-4.591,-8.375 -7.383,-17.316 -9.279,-25.983c-3.712,-17.387 -4.596,-33.625 -6.183,-47.112c-1.421,-13.517 -2.633,-24.446 -3.554,-31.992c-0.921,-7.55 -1.546,-11.713 -1.792,-11.688c-0.25,0.025 -0.096,4.229 0.392,11.817c0.492,7.587 1.317,18.554 2.412,32.1c1.271,13.508 1.863,29.742 5.475,47.575c1.85,8.879 4.65,18.158 9.434,26.992c2.45,4.371 5.383,8.595 8.866,12.471c3.571,3.795 7.654,7.22 12.171,10.041c9.046,5.688 18.908,9.021 28.354,11.692c9.467,2.675 18.679,4.704 27.188,7.312c17.037,5.138 31.504,12.488 42.333,20.421c10.925,7.867 18.029,16.325 22.338,22.471c4.216,6.246 5.933,10.108 6.262,9.954Z" style="fill:#ae4a9c;fill-rule:nonzero;"/><path d="M1959.15,619.15c-30.562,-0 -55.421,24.867 -55.421,55.425c0,30.563 24.859,55.425 55.421,55.425c30.563,-0 55.425,-24.862 55.425,-55.425c0,-30.558 -24.862,-55.425 -55.425,-55.425Zm0,117.1c-34.008,-0 -61.671,-27.667 -61.671,-61.675c0,-34.004 27.663,-61.675 61.671,-61.675c34.013,-0 61.675,27.671 61.675,61.675c0,34.008 -27.662,61.675 -61.675,61.675Z" style="fill:#fef3f8;fill-rule:nonzero;"/><path d="M2106.01,588.521c-30.562,-0 -55.425,24.862 -55.425,55.425c0,30.558 24.863,55.421 55.425,55.421c30.563,-0 55.421,-24.863 55.421,-55.421c0,-30.563 -24.858,-55.425 -55.421,-55.425Zm0,117.096c-34.012,-0 -61.675,-27.667 -61.675,-61.671c0,-34.009 27.663,-61.675 61.675,-61.675c34.005,-0 61.671,27.666 61.671,61.675c0,34.004 -27.666,61.671 -61.671,61.671Z" style="fill:#fef3f8;fill-rule:nonzero;"/><path d="M2155.47,614.375c22.258,-7.287 44.771,-13.162 67.754,-17.683c12.221,-2.409 24.579,-4.159 36.959,-5.496c21.466,-2.313 32.975,8.325 42.62,25.408c1.846,3.275 6.888,0.338 5.038,-2.941c-13.2,-23.38 -27.729,-30.446 -54.629,-27.546c-33.75,3.637 -67.1,12.095 -99.292,22.633c-3.567,1.162 -2.037,6.796 1.55,5.625Z" style="fill:#fef3f8;fill-rule:nonzero;"/><path d="M2018.88,658.283c2.754,-13.104 18.138,-16.325 26.238,-5.858c2.295,2.971 6.396,-1.192 4.125,-4.125c-10.771,-13.917 -32.4,-8.642 -35.988,8.429c-0.771,3.671 4.854,5.234 5.625,1.554Z" style="fill:#fef3f8;fill-rule:nonzero;"/><path d="M563.646,411.475c-22.463,-11.812 -40.004,-32.654 -47.817,-56.8c-7.812,-24.146 -5.796,-51.317 5.488,-74.05c9.991,-20.121 26.729,-36.371 45.712,-48.388c52.813,-33.437 136.883,-28.333 169.238,31.475c15.754,29.126 22.358,61.105 9.833,92.967c-8.646,22.004 -25.388,40.721 -46.292,51.758" style="fill:#29387b;fill-rule:nonzero;"/><path d="M556.704,675.933c-18.966,10.096 -44.879,0.771 -55.3,-18.016c-10.425,-18.788 -5.946,-43.842 8.421,-59.813c-10.721,-10.867 -15.079,-26.766 -15.004,-42.033c0.204,-41.542 18,-99.563 42.008,-133.279c22.279,-31.288 63.892,-52.338 99.813,-38.738c13.479,-10.825 31.121,-15.283 48.387,-16.129c32.471,-1.592 64.659,8.642 93.271,24.083c29.983,16.179 54.317,38.088 80.367,59.275c24.858,20.213 46.783,34.38 54.229,68.321c4.45,20.283 1.942,41.913 -6.442,60.867c-4.179,9.441 -11.229,16.883 -15.746,25.925c-4.383,8.771 -6.966,18.879 -11.558,27.825c-7.4,14.429 -18.592,29.587 -34.758,30.904c-2.634,0.212 -5.421,0.088 -8.2,-0.042c-6.842,-0.312 -13.642,-0.629 -18.038,4.159l-261.45,6.691Z" style="fill:#273c8b;fill-rule:nonzero;"/><path d="M545.35,651.471l-59.592,134.667c0,-0 -6.079,-1.117 -16.333,-1.725c17.883,27.395 48.646,46.366 81.346,50.216c22.762,2.684 45.962,-1.692 66.721,-11.446l-22.075,-3.92l14.95,-82.367l-65.017,-85.425Z" style="fill:#f38094;fill-rule:nonzero;"/><path d="M842.054,652.158c2.196,-5.708 4.204,-11.429 6.071,-17.05c8.408,-25.325 13.775,-53.504 11.763,-80.646c-1.209,-16.308 -5.084,-32.245 -12.559,-46.962c2.713,-0.267 5.425,-0.417 8.138,-0.417c4.05,0 8.087,0.338 12.108,1.129c17.1,3.376 33.471,18.25 31.621,35.58c-1.167,10.92 -8.917,19.787 -14.15,29.441c-12.534,23.121 -11.967,53.78 -31.504,71.388c-3.513,3.166 -7.371,5.637 -11.488,7.537Z" style="fill:#2a377a;fill-rule:nonzero;"/><path d="M859.888,554.462c2.012,27.142 -3.355,55.321 -11.763,80.646c-7.025,21.155 -16.088,43.746 -29.337,61.796c-14.288,19.459 -24.613,41.517 -43.001,58.129c-26.441,23.888 -65.816,41.288 -101.474,37.067c-38.701,-4.579 -78.605,-20.208 -105.625,-49.104c-24.55,-26.254 -35.063,-64.933 -27.188,-100c-21.037,0.879 -43.117,-14.354 -52.95,-32.384c-17.154,-31.45 -10.146,-84.408 31.212,-91.024c15.5,-2.476 32.071,3.204 42.796,14.666c13.967,-23.883 26.417,-50.146 45.196,-70.721c26.884,-29.454 60.017,-46.029 99.909,-41.995c52.174,5.279 106.449,32.175 134.887,77.516c10.646,16.979 15.892,35.925 17.338,55.408Z" style="fill:#f4899a;fill-rule:nonzero;"/><path d="M768.775,1037.43c-20.667,-153.2 -89.967,-198.525 -146.287,-213.362l-4.996,-0.888c-20.759,9.754 -43.959,14.13 -66.721,11.446c-32.7,-3.85 -63.463,-22.821 -81.346,-50.216c-36.667,-2.167 -126.742,2.224 -183.125,87.845c-72.142,109.563 -118.85,231.509 -91.717,352.005c0,-0 -40.283,91.916 -30.187,137.749l487.35,20.834c-0,-0 26.383,-115.038 25.958,-213.767c0,0 36.158,114.804 133.142,163.592l78.971,-53.779c-0,-0 -100.375,-88.259 -121.042,-241.459Z" style="fill:#fef3f8;fill-rule:nonzero;"/><path d="M456.729,784.792c-37.025,51.566 -53.292,117.608 -44.446,180.471c1,7.099 2.442,14.475 6.871,20.12c9.35,11.925 27.263,11.334 42.321,9.625c11.221,54.35 50.892,107.496 110.063,111.479c2.849,0.192 3.491,-65.345 3.687,-72.245" style="fill:#e2dff0;fill-rule:nonzero;"/><path d="M780.421,1258.98c-8.779,-13.262 -16.442,-28.183 -22.183,-44.467c-5.638,-16.333 -9.184,-34.004 -11.471,-52.287c-2.304,-18.296 -3.459,-36.338 -4.85,-53.783c-1.392,-17.455 -3.142,-34.301 -5.542,-50.246c-4.637,-31.929 -12.208,-60.221 -21.254,-82.938c-4.163,-10.425 -8.642,-19.567 -13.059,-27.529c-1.02,0.142 -2.045,0.2 -3.054,0.083c4.363,8.25 8.817,17.792 12.942,28.68c8.529,22.599 15.675,50.633 20.038,82.341c2.262,15.85 3.908,32.575 5.229,49.975c1.325,17.409 2.445,35.521 4.775,54.021c2.316,18.487 5.954,36.504 11.791,53.229c5.95,16.679 13.892,31.921 22.942,45.371c16.454,24.538 35.629,43.367 52.804,58.521l2.992,-2.038c-16.958,-15.425 -35.95,-34.437 -52.1,-58.933Z" style="fill:#e2dff0;fill-rule:nonzero;"/><path d="M639.896,832.858c21.146,40.334 34.733,86.409 27.717,131.404c-2.817,18.084 -9.934,36.967 -25.363,46.8c-3.783,2.409 -8.104,4.326 -10.704,7.98c-3.125,4.383 -3.038,10.179 -3.459,15.546c-2.787,35.337 -29.608,65.737 -63.191,75.495c-5.667,-67.237 0.162,-134.496 -1.375,-202.179" style="fill:#e2dff0;fill-rule:nonzero;"/><path d="M617.492,823.183c-20.759,9.754 -43.959,14.13 -66.721,11.446c-32.7,-3.85 -63.463,-22.821 -81.346,-50.216c-3.862,-0.23 -8.346,-0.375 -13.296,-0.367c0.113,54.016 4.188,108.191 18.125,160.291c15.95,59.638 45.604,116.775 91.492,158.071c34.417,-48.166 55.308,-105.175 65.5,-163.491c6.308,-36.117 8.625,-72.779 8.254,-109.467c-5.758,-2.133 -11.45,-3.913 -17.012,-5.379l-4.996,-0.888Z" style="fill:#8ad5ef;fill-rule:nonzero;"/><path d="M692.717,627.642c-4.029,8.725 -10.463,14.337 -14.371,12.533c-3.908,-1.804 -3.813,-10.338 0.212,-19.062c4.029,-8.725 10.459,-14.338 14.371,-12.534c3.908,1.804 3.813,10.338 -0.212,19.063Z" style="fill:#d65f70;fill-rule:nonzero;"/><path d="M604.271,467.496l10.416,-18.209c6.392,-3.308 13.021,-6.658 19.821,-9.162c-9.525,6.417 -18.437,14.296 -26.754,23.408c-1.187,1.296 -2.346,2.621 -3.483,3.963Z" style="fill:#293985;fill-rule:nonzero;"/><path d="M583.029,564.296c-11.962,-0 -22.096,-4.942 -22.233,-20.813l43.475,-75.987c1.137,-1.342 2.296,-2.667 3.483,-3.963c8.317,-9.112 17.229,-16.991 26.754,-23.408c6.63,-2.438 13.417,-4.071 20.304,-4.071c1.988,0 3.98,0.138 5.98,0.429c18.829,2.738 32.7,18.28 48.445,28.963c34.93,23.696 81.134,24.046 117.909,44.758c14.008,7.892 27.262,20.254 28.975,36.246c-9.142,-1.375 -18.333,-1.896 -27.559,-1.896c-14.754,0 -29.591,1.338 -44.416,2.675c-14.825,1.338 -29.638,2.675 -44.35,2.675c-11.433,0 -22.804,-0.808 -34.067,-3.05c-9.937,-1.979 -19.816,-5.141 -28.117,-10.95c-8.3,-5.812 -14.908,-14.537 -16.533,-24.537c1.113,6.846 -15.125,22.187 -19.608,26.466c-8.313,7.938 -17.992,14.442 -28.458,19.188c-7.8,3.542 -19.584,7.275 -29.984,7.275Z" style="fill:#f38297;fill-rule:nonzero;"/><path d="M787.942,663.254c-2.775,9.2 -8.367,15.65 -12.488,14.409c-4.121,-1.242 -5.212,-9.709 -2.442,-18.909c2.775,-9.2 8.367,-15.654 12.488,-14.408c4.121,1.241 5.212,9.708 2.442,18.908Z" style="fill:#d65f70;fill-rule:nonzero;"/><path d="M723.954,563.892c-0.216,6.329 -9.121,11.162 -19.887,10.791c-10.767,-0.366 -19.317,-5.795 -19.1,-12.125c0.212,-6.325 9.116,-11.158 19.883,-10.791c10.767,0.366 19.317,5.796 19.104,12.125Z" style="fill:#273c8b;fill-rule:nonzero;"/><path d="M821.246,619.35c-4.063,4.858 -14.054,3.192 -22.317,-3.721c-8.262,-6.908 -11.671,-16.45 -7.604,-21.308c4.063,-4.859 14.054,-3.192 22.317,3.721c8.262,6.912 11.666,16.45 7.604,21.308Z" style="fill:#273c8b;fill-rule:nonzero;"/><path d="M612.304,708.067c-23.767,-0 -43.033,-19.267 -43.033,-43.03c-0,-23.766 19.266,-43.033 43.033,-43.033c23.763,0 43.029,19.267 43.029,43.033c0,23.763 -19.266,43.03 -43.029,43.03Z" style="fill:#f27992;fill-rule:nonzero;"/><path d="M775.946,754.892c0.008,-0.009 0.021,-0.021 0.029,-0.029c-0.008,0.008 -0.021,0.02 -0.029,0.029Zm0.179,-0.167c0.008,-0.008 0.017,-0.017 0.029,-0.025c-0.012,0.008 -0.021,0.017 -0.029,0.025Zm0.167,-0.15c0.008,-0.008 0.012,-0.012 0.021,-0.021c-0.005,0.009 -0.013,0.013 -0.021,0.021Zm0.166,-0.154c0.017,-0.013 0.029,-0.025 0.046,-0.042c-0.017,0.017 -0.029,0.029 -0.046,0.042Zm0.188,-0.171c0.008,-0.008 0.021,-0.021 0.029,-0.029c-0.008,0.008 -0.021,0.021 -0.029,0.029Zm0.142,-0.133c0.02,-0.017 0.037,-0.038 0.058,-0.054c-0.021,0.016 -0.038,0.037 -0.058,0.054Zm0.179,-0.167c0.025,-0.021 0.05,-0.046 0.075,-0.067c-0.025,0.021 -0.05,0.046 -0.075,0.067Zm0.137,-0.125c0.05,-0.05 0.1,-0.1 0.154,-0.146c-0.054,0.046 -0.104,0.096 -0.154,0.146Zm0.179,-0.171c13.975,-13.158 23.267,-29.487 33.546,-45.183c0.004,0.004 0.013,0.008 0.017,0.008c-10.275,15.7 -19.588,32.017 -33.563,45.175Z" style="fill:#d3c3e0;fill-rule:nonzero;"/><path d="M754.688,770.912c-5.051,-7.05 -8.059,-15.666 -8.059,-25.004c0,-23.762 19.267,-43.029 43.033,-43.029c7.701,0 14.913,2.046 21.167,5.592c-10.279,15.696 -19.571,32.025 -33.546,45.183c-0.008,0.008 -0.016,0.017 -0.025,0.025c-0.054,0.046 -0.104,0.096 -0.154,0.146c-0.021,0.017 -0.046,0.038 -0.062,0.058c-0.025,0.021 -0.05,0.046 -0.075,0.067c-0.042,0.038 -0.079,0.075 -0.121,0.113c-0.021,0.016 -0.038,0.037 -0.058,0.054c-0.038,0.037 -0.076,0.071 -0.113,0.104c-0.008,0.008 -0.021,0.021 -0.029,0.029c-0.05,0.042 -0.096,0.088 -0.142,0.129c-0.017,0.017 -0.029,0.029 -0.046,0.042c-0.045,0.046 -0.096,0.087 -0.145,0.133c-0.009,0.009 -0.013,0.013 -0.021,0.021c-0.046,0.042 -0.092,0.083 -0.138,0.125c-0.012,0.008 -0.021,0.017 -0.029,0.025c-0.05,0.046 -0.1,0.092 -0.15,0.138c-0.008,0.008 -0.021,0.02 -0.029,0.029c-0.054,0.045 -0.104,0.091 -0.159,0.141c-6.358,5.742 -13.474,11.096 -21.099,15.879Z" style="fill:#f27992;fill-rule:nonzero;"/><path d="M562.058,523.808c-1.937,8.321 -3.871,17.029 -1.766,25.313c2.1,8.283 9.633,15.862 18.125,14.933c4.229,-0.462 7.962,-2.879 11.45,-5.312c27.554,-19.25 51.091,-44.225 68.679,-72.867c5.112,25.388 29.521,43.096 54.692,49.208c25.166,6.113 51.5,3.155 77.374,1.988c33.896,-1.529 64.796,6.037 98.184,12.779c2.658,0.538 5.366,1.075 8.062,0.775c6.592,-0.737 11.796,-6.571 13.45,-12.992c1.655,-6.421 0.346,-13.254 -1.837,-19.512c-8.796,-25.221 -30.763,-43.429 -53.271,-57.813c-11.833,-7.566 -22.104,-10.916 -35.746,-12.729c-13.266,-1.762 -21.446,-8.633 -33.308,-14.875c-40.838,-21.487 -90.234,-27.229 -134.175,-13.146c-43.942,14.084 -81.467,48.492 -96.9,91.979" style="fill:#273c8b;fill-rule:nonzero;"/><path d="M672.004,1167.75c0.283,0.175 2.771,-3.209 7.067,-9.459c4.275,-6.262 10.491,-15.316 17.467,-27.029c3.379,-5.92 7.1,-12.429 10.325,-19.837c3.266,-7.363 6.358,-15.513 8.204,-24.484c1.916,-8.937 2.808,-18.599 2.212,-28.57c-0.721,-9.963 -3.004,-20.088 -5.933,-30.071c-6.025,-19.992 -13.621,-38.204 -19.279,-55.104c-5.709,-16.863 -9.284,-32.509 -10.109,-45.855c-0.904,-13.358 0.888,-24.137 2.417,-31.479c1.921,-7.246 3.104,-11.291 2.754,-11.429c-0.262,-0.108 -2.046,3.713 -4.562,10.946c-2.121,7.321 -4.496,18.342 -4.005,32.129c0.401,13.763 3.746,29.929 9.292,47.071c5.496,17.171 12.963,35.45 18.879,55.088c2.888,9.854 5.084,19.508 5.842,29.024c0.629,9.526 -0.129,18.738 -1.846,27.342c-3.475,17.259 -10.837,31.709 -17.15,43.546c-6.525,11.804 -12.3,21.137 -16.091,27.708c-3.809,6.563 -5.763,10.288 -5.484,10.463Z" style="fill:#e2dff0;fill-rule:nonzero;"/><path d="M705.154,934.292c-1.058,-0.675 -8.262,9.537 -12.221,24.241c-4.037,14.679 -3.004,27.138 -1.746,27.092c1.4,0.033 2.525,-11.833 6.392,-25.829c3.758,-14.021 8.8,-24.825 7.575,-25.504Z" style="fill:#e2dff0;fill-rule:nonzero;"/><path d="M622.488,824.071l-4.996,-0.888c-20.759,9.754 -43.959,14.13 -66.721,11.446c-32.7,-3.85 -63.463,-22.821 -81.346,-50.216c-5.271,-0.313 -11.675,-0.475 -18.9,-0.292c8.05,32.812 37.954,59.804 70.954,71.029c34.592,11.771 74.367,9.833 105.967,-8.508c7.012,-4.067 13.512,-8.884 19.671,-14.142c-8.355,-3.562 -16.625,-6.321 -24.629,-8.429Z" style="fill:#78c8df;fill-rule:nonzero;"/><path d="M561.246,1104.42c-0.117,2.425 -0.229,4.829 -0.346,7.337c-1.583,34.142 -4.296,81.267 -9.092,133.167c-4.837,51.9 -10.841,98.716 -15.57,132.567c-2.05,14.745 -3.896,28.02 -5.575,40.112c-1.267,9.488 -1.734,14.779 -1.242,14.871c0.487,0.091 1.891,-5.029 4.004,-14.379c2.146,-9.342 4.846,-22.938 7.854,-39.805c6.033,-33.725 12.863,-80.616 17.717,-132.699c4.812,-52.084 6.729,-99.43 7.004,-133.688c0.021,-2.05 0.033,-4.05 0.042,-6.004c-1.792,-0.192 -3.392,-0.696 -4.796,-1.479Z" style="fill:#e2dff0;fill-rule:nonzero;"/><path d="M459.592,1332.05c6.525,-14.138 12.037,-28.659 15.521,-43.746c5.408,-23.425 3.7,-46.65 2.166,-70.004c-21.083,-4.654 -51.246,-12.025 -56.112,-13.075c-21.963,-4.746 -49.513,-18.883 -61.438,-38.908c-5.479,-9.213 -7.112,-20.238 -7.129,-30.959c-0.125,-97.741 124.821,-178.971 58.804,-279.612c-9.425,-14.371 -22.196,-27.65 -38.733,-32.342c-43.329,-12.304 -83.383,30.113 -107.209,60.362c-28.504,36.188 -48.283,78.355 -66.829,120.525c-20.421,46.425 -35.166,93.48 -35.946,144.73c-0.891,58.737 36.246,106.958 84.934,137.266c34.646,21.567 71.766,29.684 111.037,37.984c29.663,6.266 68.546,12.725 100.934,7.779Z" style="fill:#fef3f8;fill-rule:nonzero;"/><path d="M532.892,627.95c-13.717,-0 -29.938,-13.337 -35.946,-24.067c-7.063,-12.612 -9.384,-29.691 -2.359,-42.821c2.467,-4.612 6.255,-8.379 10.267,-11.733c3.563,-2.971 7.767,-5.804 12.338,-5.804c0.333,-0 0.666,0.017 1.004,0.046c3.175,0.296 6.033,2 8.612,3.871c12.48,9.054 21.096,23.258 23.367,38.508c1.604,10.792 0.629,38.975 -13.717,41.679c-1.166,0.217 -2.354,0.321 -3.566,0.321Z" style="fill:#f38297;fill-rule:nonzero;"/><path d="M711.171,685.45c-0.121,0.196 1.146,1.408 3.779,3.238c1.333,0.895 3.029,1.95 5.238,2.791c2.195,0.838 4.975,1.404 8.066,0.917c3.071,-0.4 6.5,-2.496 8.234,-5.859c1.787,-3.312 2.22,-7.145 2.458,-10.908c0.366,-7.446 1.158,-15.446 3.108,-23.737c3.767,-16.584 10.634,-30.592 16.583,-40.013c5.88,-9.521 10.609,-14.704 10.138,-15.116c-0.183,-0.171 -1.508,0.987 -3.763,3.241c-2.179,2.313 -5.241,5.775 -8.499,10.463c-6.625,9.25 -14.096,23.525 -17.98,40.625c-2.004,8.491 -2.729,16.912 -2.908,24.37c-0.125,3.646 -0.483,7.059 -1.787,9.684c-1.271,2.637 -3.584,4.229 -6.067,4.746c-5.088,1.058 -9.384,-1.117 -12.108,-2.417c-2.784,-1.413 -4.351,-2.25 -4.492,-2.025Z" style="fill:#d65f70;fill-rule:nonzero;"/><path d="M704.458,706.562c0.013,-0.55 -2.279,-0.854 -5.546,-2.166c-3.25,-1.275 -7.516,-3.808 -10.629,-7.992c-3.1,-4.196 -4.279,-9.016 -4.554,-12.491c-0.304,-3.513 0.071,-5.792 -0.458,-5.942c-0.417,-0.146 -1.729,1.983 -2.092,5.933c-0.387,3.871 0.513,9.65 4.204,14.646c3.709,4.987 8.975,7.533 12.792,8.288c3.883,0.799 6.304,0.162 6.283,-0.276Z" style="fill:#d65f70;fill-rule:nonzero;"/><path d="M543.817,625.838c0.425,0.137 2.725,-4.967 5.104,-13.726c2.292,-8.679 4.683,-21.462 2,-35.429c-2.758,-14.016 -11.067,-24.904 -18.713,-30.087c-7.721,-5.354 -13.796,-5.571 -13.766,-5.25c-0.209,0.641 5.429,1.771 12.229,7.287c6.767,5.355 14.129,15.688 16.708,28.75c2.534,13.125 0.688,25.475 -0.95,34.163c-1.7,8.742 -3.137,14.129 -2.612,14.292Z" style="fill:#d65f70;fill-rule:nonzero;"/><path d="M539.013,611.987c0.266,-0.533 -3.255,-2.124 -6.871,-6.691c-3.646,-4.467 -6.879,-12.25 -5.784,-21.088c0.967,-8.791 4.98,-16.275 8.53,-20.825c3.616,-4.612 7.066,-6.254 6.816,-6.762c-0.087,-0.421 -4.221,0.462 -8.729,5.075c-4.379,4.529 -9.104,12.341 -10.208,22.129c-0.525,4.854 0.054,9.642 1.541,13.646c1.475,4.008 3.675,7.237 5.917,9.512c4.571,4.609 8.704,5.388 8.788,5.004Z" style="fill:#d65f70;fill-rule:nonzero;"/><path d="M475.729,1285.13c-8.904,-3.271 -19.075,-5.629 -30.129,-7.658c2.763,-13.667 4.546,-26.896 5.538,-39.058c0.395,-6.846 0.858,-13.338 0.791,-19.438c0.058,-2.246 0.025,-4.367 -0.004,-6.496c-1.271,-0.296 -2.521,-0.591 -3.758,-0.883c-0.042,2.367 -0.092,4.766 -0.225,7.283c-0.109,6.017 -0.713,12.421 -1.221,19.159c-1.2,12.024 -3.092,25.091 -5.854,38.608c-1.829,-0.317 -3.613,-0.65 -5.488,-0.954c-15.433,-2.488 -32.183,-5.488 -49.537,-11.167c-17.317,-5.633 -35.292,-13.512 -52.4,-24.696c-17.071,-11.158 -33.279,-25.708 -45.913,-43.933c-12.633,-18.129 -21.996,-39.779 -24.896,-63.046c-1.479,-11.608 -1.291,-23.246 0.53,-34.492c1.825,-11.254 5.12,-22.112 9.116,-32.487c4.025,-10.371 8.65,-20.333 13.588,-29.909c2.404,-4.816 4.841,-9.558 7.391,-14.175c2.475,-4.65 4.988,-9.22 7.563,-13.683c20.408,-35.808 40.8,-67.025 55.879,-94.492c15.4,-27.283 25.513,-50.67 31.329,-67.195c1.321,-3.917 2.563,-7.588 3.725,-11.034c0.142,-0.512 0.271,-0.991 0.413,-1.491c-0.375,-0.304 -0.742,-0.613 -1.121,-0.904c-0.217,0.649 -0.425,1.275 -0.65,1.945c-1.288,3.384 -2.659,6.984 -4.125,10.83c-6.321,16.237 -16.821,39.225 -32.533,66.174c-15.388,27.134 -36.038,58.096 -56.771,93.971c-2.613,4.471 -5.163,9.055 -7.684,13.729c-2.591,4.634 -5.071,9.396 -7.516,14.251c-5.017,9.625 -9.746,19.704 -13.884,30.283c-4.112,10.583 -7.533,21.737 -9.445,33.416c-1.913,11.671 -2.117,23.83 -0.58,35.867c3.021,24.167 12.738,46.496 25.809,65.138c13.079,18.758 29.833,33.65 47.358,44.954c17.575,11.342 35.958,19.225 53.608,24.783c17.667,5.6 34.784,8.459 50.209,10.721c1.837,0.275 3.575,0.571 5.366,0.854c-0.112,0.521 -0.2,1.029 -0.312,1.55c-3.467,15.209 -7.804,29.438 -12.321,42.184c-1.296,3.395 -2.533,6.687 -3.775,9.883c1.5,0.071 3,0.142 4.496,0.183c1.133,-2.771 2.262,-5.604 3.437,-8.521c4.809,-12.833 9.342,-27.241 12.859,-42.679c0.137,-0.621 0.237,-1.225 0.371,-1.846c11.183,1.879 21.374,4.05 30.245,7.146c0.204,-0.891 0.342,-1.783 0.521,-2.675Z" style="fill:#e2dff0;fill-rule:nonzero;"/><path d="M479.896,1322.37c2.258,0.612 4.529,1.183 6.812,1.7l-18.958,-5.896l-0.162,0.483c4.074,1.33 8.17,2.596 12.308,3.713Z" style="fill:#f4899a;fill-rule:nonzero;"/><path d="M624.313,1271.38c-11.463,-12.587 -29.209,-18.029 -45.484,-20.562c-12.45,-1.938 -25.225,-1.758 -37.646,0.316c16.742,-6.704 33.204,-4.42 50.709,-5.408c5.537,-0.312 11.341,-1.129 15.762,-4.479c0.538,-0.408 1.067,-0.875 1.313,-1.504c0.758,-1.933 -1.475,-3.659 -3.413,-4.404c-11.2,-4.304 -23.425,-2.696 -35.092,-3.075c-12.983,-0.421 -26.029,0.921 -38.658,3.966c9.917,-7.608 16.925,-18.916 19.325,-31.183c0.4,-2.046 0.667,-4.217 -0.037,-6.183c-0.704,-1.963 -2.659,-3.625 -4.725,-3.325c-1.538,0.225 -2.721,1.404 -3.8,2.52c-13.125,13.667 -28.225,28.592 -47.359,32.946c-6.325,1.438 -12.854,1.3 -19.47,0.55c4.304,15.484 4.566,31.538 2.283,47.45l-0.067,0.671c-0.737,5.817 -1.987,11.517 -3.525,17.146c-1.808,7.092 -4.037,14.087 -6.542,20.946c15.476,4.25 31.346,1.237 47.013,-1.329c16.979,-2.78 35.529,-4.117 52.508,-0.534c4.092,0.863 8.154,2 12.329,2.23c1.23,0.066 2.513,0.045 3.63,-0.48c1.112,-0.529 2.012,-1.683 1.887,-2.908c-0.104,-0.996 -0.829,-1.808 -1.55,-2.5c-4.75,-4.533 -10.291,-5.283 -16.421,-6.992c-6.462,-3.233 -17.241,-5.721 -24.42,-6.512c-7.675,-0.854 -14.867,-2.9 -22.392,-4.967c2.337,0.642 7.479,-1.35 9.983,-1.691c3.554,-0.484 7.129,-0.838 10.713,-1.055c7.029,-0.425 14.091,-0.304 21.1,0.388c13.946,1.375 27.116,5.958 40.837,8.296c2.754,0.471 8.433,2.796 9.254,-1.038c0.792,-3.708 -5.595,-8.821 -8.091,-10.546c-8.034,-5.55 -18.071,-7.208 -27.246,-9.95c-13.979,-4.175 -28.25,-7.383 -42.675,-9.587c15.562,-2.909 31.529,-2.125 47.083,0.404c12.508,2.033 24.292,6.463 36.717,8.688c2.791,0.499 5.837,0.858 8.329,-0.496c0.683,-2.063 -0.704,-4.205 -2.162,-5.809Z" style="fill:#f4899a;fill-rule:nonzero;"/><path d="M367.129,922.392c-10.562,-22.188 -33.737,-19.255 -50.291,-6.284c-15.405,12.071 -26.45,32.05 -26.517,51.834c-0.046,13.437 7.271,27.6 19.912,32.146c7.792,2.804 16.65,1.666 24.109,-1.93c7.454,-3.596 13.616,-9.47 18.67,-16.025c8.042,-10.425 13.555,-22.783 15.934,-35.733c1.475,-8.025 1.687,-16.638 -1.817,-24.008Z" style="fill:#8ad5ef;fill-rule:nonzero;"/><path d="M462.212,1330.3c-0.133,-1.167 -17.991,1.063 -46.804,0.95c-28.704,-0.071 -68.708,-4.196 -109.804,-19.396c-41.179,-14.942 -73.987,-38.521 -94.033,-58.896c-20.417,-20.212 -29.292,-36.062 -30.496,-35.262c-0.425,0.258 1.621,4.258 5.737,11.337c2.076,3.525 5.08,7.525 8.396,12.309c1.679,2.379 3.759,4.695 5.825,7.27c2.109,2.538 4.267,5.296 6.859,7.888c19.545,21.771 52.966,46.808 95.208,62.121c42.142,15.6 83.317,18.983 112.379,17.733c14.6,-0.542 26.329,-1.941 34.375,-3.192c8.046,-1.275 12.421,-2.387 12.358,-2.862Z" style="fill:#e2dff0;fill-rule:nonzero;"/><path d="M474.417,1217.34c0.02,-0.571 -4.517,-1.08 -12.621,-2.296c-8.088,-1.184 -19.813,-3.046 -33.779,-7.079c-6.925,-2.154 -14.517,-4.559 -22.196,-8.142c-7.771,-3.362 -15.621,-7.917 -23.004,-13.671c-1.771,-1.525 -3.75,-2.871 -5.413,-4.579c-1.675,-1.704 -3.358,-3.425 -5.054,-5.154c-1.533,-1.875 -2.95,-3.867 -4.463,-5.813c-1.616,-1.883 -2.512,-4.245 -3.833,-6.362c-4.617,-8.863 -7.15,-19.05 -7.396,-29.904c-0.433,-21.721 6.679,-42.021 14.046,-59.7c7.746,-17.709 15.363,-33.584 21.288,-47.021c12.058,-26.842 19.07,-43.667 18.171,-44.1c-0.901,-0.429 -9.542,15.625 -22.796,41.946c-6.55,13.225 -14.584,28.737 -22.771,46.541c-7.817,17.863 -15.592,38.984 -15.154,62.513c0.233,11.604 3.096,23.246 8.379,33.062c1.479,2.363 2.558,4.975 4.35,7.054c1.687,2.146 3.3,4.33 5.025,6.363c1.883,1.867 3.754,3.721 5.608,5.558c1.854,1.825 3.996,3.25 5.942,4.859c8.066,6.045 16.487,10.629 24.696,13.9c8.129,3.496 16.054,5.691 23.266,7.587c14.517,3.5 26.546,4.6 34.821,4.942c8.288,0.366 12.875,-0.079 12.888,-0.504Z" style="fill:#e2dff0;fill-rule:nonzero;"/><path d="M459.425,1333.07c0.742,0.479 5.375,-4.742 10.588,-14.696c2.633,-4.954 5.208,-11.146 7.499,-18.221c2.184,-7.108 4.017,-15.116 5.042,-23.654c0.942,-8.546 0.975,-16.762 0.467,-24.179c-0.625,-7.413 -1.729,-14.029 -3.167,-19.45c-2.812,-10.875 -6.141,-17.017 -6.971,-16.713c-1.05,0.35 0.521,6.984 1.959,17.679c0.758,5.346 1.291,11.738 1.533,18.825c0.129,7.096 -0.1,14.888 -0.992,23.013c-0.979,8.117 -2.525,15.754 -4.262,22.633c-1.846,6.85 -3.817,12.954 -5.771,17.988c-3.833,10.092 -6.867,16.192 -5.925,16.775Z" style="fill:#e2dff0;fill-rule:nonzero;"/><path d="M1137.7,1185.08l-157.175,0l-0,-15.287c-0,-17.204 13.946,-31.154 31.154,-31.154l94.871,-0c17.204,-0 31.15,13.95 31.15,31.154l-0,15.287Z" style="fill:#61c6dd;fill-rule:nonzero;"/><rect x="889.817" y="1177.28" width="35.588" height="114.113" style="fill:#2c296a;fill-rule:nonzero;"/><path d="M1159.52,1197.15l-227.692,0l0,-19.833l227.692,-0c5.475,-0 9.916,4.437 9.916,9.917c0,5.474 -4.441,9.916 -9.916,9.916Z" style="fill:#2c296a;fill-rule:nonzero;"/><path d="M882.779,871.167c-64.112,28.433 -96.154,102.75 -94.137,169.783c2.079,69.225 46.129,130.65 104.112,165.404c16.746,10.038 31.921,-16.075 15.242,-26.071c-50.179,-30.075 -85.096,-80.245 -89.159,-139.333c-3.92,-56.946 25.663,-119.975 79.184,-143.712c17.771,-7.88 2.391,-33.892 -15.242,-26.071Z" style="fill:#2c296a;fill-rule:nonzero;"/><path d="M948.863,1186.62c-0,-22.784 -18.471,-41.25 -41.255,-41.25c-22.783,-0 -41.25,18.466 -41.25,41.25c0,22.783 18.467,41.254 41.25,41.254c22.784,-0 41.255,-18.471 41.255,-41.254Z" style="fill:#61c6dd;fill-rule:nonzero;"/><path d="M925.363,1186.62c-0,-9.804 -7.95,-17.75 -17.755,-17.75c-9.804,-0 -17.754,7.946 -17.754,17.75c0,9.804 7.95,17.754 17.754,17.754c9.805,-0 17.755,-7.95 17.755,-17.754Z" style="fill:#446eb6;fill-rule:nonzero;"/><path d="M1189.17,1345.78l-0,-28.7c-0,-26.767 -21.7,-48.467 -48.467,-48.467l-302.625,0c-26.767,0 -48.467,21.7 -48.467,48.467l0,28.7l399.559,0Z" style="fill:#b8d3ef;fill-rule:nonzero;"/><path d="M789.708,1315.13l399.363,0c-0.183,-4.558 -0.963,-8.958 -2.317,-13.108l-394.733,0c-1.354,4.15 -2.134,8.55 -2.313,13.108Z" style="fill:#fef3f8;fill-rule:nonzero;"/><path d="M1073.53,1006.64c-0,39.845 -32.296,72.141 -72.142,72.141c-39.841,0 -72.141,-32.296 -72.141,-72.141c-0,-39.842 32.3,-72.142 72.141,-72.142c39.846,-0 72.142,32.3 72.142,72.142Z" style="fill:#fef3f8;fill-rule:nonzero;"/><path d="M894.046,752.733l-38.558,17.854l-33.284,-71.875l38.558,-17.854l33.284,71.875Z" style="fill:#2c296a;fill-rule:nonzero;"/><path d="M869.913,687.092l-48.876,22.633c-5.795,2.683 -12.666,0.158 -15.349,-5.633c-2.684,-5.796 -0.163,-12.667 5.633,-15.35l48.875,-22.634c5.792,-2.683 12.666,-0.158 15.35,5.634c2.683,5.795 0.158,12.666 -5.633,15.35Z" style="fill:#61c6dd;fill-rule:nonzero;"/><path d="M1090.54,1007.67l-189.2,-302.392l-81.996,40.346l128.746,336.083c47.016,-25.55 94.841,-49.587 142.45,-74.037Z" style="fill:#446eb6;fill-rule:nonzero;"/><path d="M843.375,808.35c31.275,-15.317 62.683,-30.363 94.208,-45.146l-11.058,-17.679c-30.317,14.213 -60.521,28.662 -90.604,43.367l7.454,19.458Z" style="fill:#2c296a;fill-rule:nonzero;"/><path d="M864.896,864.529c34.783,-16.983 69.7,-33.687 104.792,-50.016l-11.075,-17.7c-33.88,15.758 -67.58,31.891 -101.171,48.262l7.454,19.454Z" style="fill:#2c296a;fill-rule:nonzero;"/><path d="M886.421,920.713c38.296,-18.65 76.779,-36.909 115.454,-54.759l-11.071,-17.692c-37.454,17.288 -74.733,34.963 -111.837,53.001l7.454,19.45Z" style="fill:#2c296a;fill-rule:nonzero;"/><path d="M920.313,887.292c-0,-22.784 -18.471,-41.255 -41.255,-41.255c-22.779,0 -41.25,18.471 -41.25,41.255c0,22.783 18.471,41.254 41.25,41.254c22.784,-0 41.255,-18.471 41.255,-41.254Z" style="fill:#61c6dd;fill-rule:nonzero;"/><path d="M896.813,887.292c-0,-9.804 -7.946,-17.755 -17.755,-17.755c-9.804,0 -17.75,7.951 -17.75,17.755c0,9.804 7.946,17.754 17.75,17.754c9.809,-0 17.755,-7.95 17.755,-17.754Z" style="fill:#446eb6;fill-rule:nonzero;"/><path d="M1396.04,1034.88l-7.092,0l-0,-16.333l-73.846,0l0,16.333l-7.091,0c-8.6,0 -15.571,-6.971 -15.571,-15.57c-0,-8.601 6.971,-15.575 15.571,-15.575l88.029,-0c8.6,-0 15.57,6.974 15.57,15.575c0,8.599 -6.97,15.57 -15.57,15.57Z" style="fill:#f4f1f8;fill-rule:nonzero;"/><path d="M1278.47,1332.08c-30.179,-20.579 -49.725,-53.491 -49.725,-90.596c-0,-50.566 36.312,-93.362 86.358,-107.729l0,-98.871l73.846,0l-0,98.871c50.046,14.367 86.358,57.163 86.358,107.729c0,37.105 -19.55,70.017 -49.725,90.596c-1.529,-1.383 -3.558,-2.221 -5.779,-2.221l-48.25,0c44.825,-8.291 78.571,-44.55 78.571,-88.029c-0,-15.329 -4.217,-29.75 -11.612,-42.379c-28.671,5.925 -57.221,20.171 -82.501,33.263c-20.133,10.42 -39.958,15.829 -58.954,15.829c-14.908,-0 -29.304,-3.329 -42.941,-10.171c-0.046,1.158 -0.192,2.291 -0.192,3.458c-0,43.479 33.75,79.738 78.575,88.029l-48.25,0c-2.225,0 -4.25,0.838 -5.779,2.221Z" style="fill:#e9eff9;fill-rule:nonzero;"/><rect x="1315.1" y="1018.55" width="73.846" height="16.333" style="fill:#fbf2f7;fill-rule:nonzero;"/><path d="M1426.53,1221.67c3.9,-6.325 7.804,-12.646 11.709,-18.971c0.933,-1.517 1.741,-3.788 0.283,-4.808c-0.392,-0.276 -0.879,-0.38 -1.346,-0.471c-19.342,-3.888 -41.271,-3.825 -60.196,2.204c-18.212,5.796 -34.308,16.575 -50.625,26.225c-9.754,5.771 -21.271,7.212 -32.3,9.183c-7.308,1.304 -14.741,2.008 -22.167,1.725c-1.058,-0.041 -17.77,-1.042 -17.758,-1.012c1.958,6.446 9.496,12.554 14.667,16.783c5.483,4.487 12.587,5.817 19.525,6.354" style="fill:#ac4a9c;fill-rule:nonzero;"/><path d="M1356.01,1232.71c-35.929,18.604 -70.879,21.216 -101.895,5.658c-0.046,1.158 -0.192,2.291 -0.192,3.458c-0,49.6 43.921,89.809 98.1,89.809c54.179,-0 98.1,-40.209 98.1,-89.809c-0,-15.329 -4.217,-29.75 -11.612,-42.379c-28.671,5.925 -57.221,20.171 -82.501,33.263Z" style="fill:#bc56a0;fill-rule:nonzero;"/><path d="M1419.8,1347.12l-135.554,-0c-4.767,-0 -8.633,-3.867 -8.633,-8.634c-0,-2.541 1.1,-4.829 2.854,-6.408c3.008,2.05 6.125,3.979 9.337,5.779l128.434,0c3.212,-1.8 6.329,-3.729 9.341,-5.779c1.75,1.579 2.85,3.867 2.85,6.408c0,4.767 -3.862,8.634 -8.629,8.634Z" style="fill:#e9eff9;fill-rule:nonzero;"/><path d="M1416.24,1337.86l-128.434,0c-3.212,-1.8 -6.329,-3.729 -9.337,-5.779c1.529,-1.383 3.554,-2.221 5.779,-2.221l48.25,0c6.308,1.167 12.842,1.78 19.525,1.78c6.688,-0 13.217,-0.613 19.529,-1.78l48.25,0c2.221,0 4.25,0.838 5.779,2.221c-3.012,2.05 -6.129,3.979 -9.341,5.779Z" style="fill:#f4f2f9;fill-rule:nonzero;"/><path d="M1352.03,1331.64c-6.683,-0 -13.217,-0.613 -19.525,-1.78l39.054,0c-6.312,1.167 -12.841,1.78 -19.529,1.78Z" style="fill:#da8fbd;fill-rule:nonzero;"/><path d="M1293.91,1268.76c-0,3.767 -3.055,6.821 -6.821,6.821c-3.767,0 -6.821,-3.054 -6.821,-6.821c-0,-3.766 3.054,-6.82 6.821,-6.82c3.766,-0 6.821,3.054 6.821,6.82Z" style="fill:#ac4a9c;fill-rule:nonzero;"/><path d="M1379.11,1298.91c0,2.755 -2.233,4.988 -4.983,4.988c-2.754,0 -4.983,-2.233 -4.983,-4.988c-0,-2.75 2.229,-4.979 4.983,-4.979c2.75,0 4.983,2.229 4.983,4.979Z" style="fill:#ac4a9c;fill-rule:nonzero;"/><path d="M1346.92,1268.76c-0,4.104 -3.325,7.434 -7.429,7.434c-4.109,-0 -7.434,-3.33 -7.434,-7.434c0,-4.104 3.325,-7.433 7.434,-7.433c4.104,-0 7.429,3.329 7.429,7.433Z" style="fill:#ac4a9c;fill-rule:nonzero;"/><path d="M1417.26,1268.76c-0,4.104 -3.33,7.434 -7.434,7.434c-4.104,-0 -7.429,-3.33 -7.429,-7.434c-0,-4.104 3.325,-7.433 7.429,-7.433c4.104,-0 7.434,3.329 7.434,7.433Z" style="fill:#ac4a9c;fill-rule:nonzero;"/><path d="M1331.72,1308.6c-0,1.391 -1.129,2.521 -2.521,2.521c-1.396,-0 -2.525,-1.13 -2.525,-2.521c0,-1.396 1.129,-2.525 2.525,-2.525c1.392,-0 2.521,1.129 2.521,2.525Z" style="fill:#ac4a9c;fill-rule:nonzero;"/><path d="M1414.13,1239.36c0,1.392 -1.129,2.521 -2.521,2.521c-1.391,0 -2.52,-1.129 -2.52,-2.521c-0,-1.391 1.129,-2.521 2.52,-2.521c1.392,0 2.521,1.13 2.521,2.521Z" style="fill:#ac4a9c;fill-rule:nonzero;"/><path d="M1379.55,1239.36c0,1.967 -1.596,3.563 -3.567,3.563c-1.966,-0 -3.562,-1.596 -3.562,-3.563c-0,-1.971 1.596,-3.562 3.562,-3.562c1.971,-0 3.567,1.591 3.567,3.562Z" style="fill:#ac4a9c;fill-rule:nonzero;"/><path d="M1998.46,842.217c0,-9.517 -7.712,-17.234 -17.229,-17.234l-585.7,0c-32.787,0 -28.942,33.909 -28.942,33.909l11.713,4.516l-0,378.213c-0,9.516 7.713,17.229 17.229,17.229l554.25,0l13.454,19.458c0,0 35.225,4.396 35.225,-31.991c0,-1.15 -0.041,-2.288 -0.129,-3.417c0.033,-0.429 0.129,-0.842 0.129,-1.279l0,-399.404Z" style="fill:#aac7e9;fill-rule:nonzero;"/><path d="M1960.53,1278.54l-577.083,-0c-9.446,-0 -17.105,-7.659 -17.105,-17.109l0,-399.65c0,-9.45 7.659,-17.108 17.105,-17.108l577.083,0c9.446,0 17.104,7.658 17.104,17.108l0,399.65c0,9.45 -7.658,17.109 -17.104,17.109Z" style="fill:#b8d3ef;fill-rule:nonzero;"/><path d="M1795.44,1346.31l-0,-16.774c-0,-7.988 -6.475,-14.463 -14.463,-14.463l-186.771,0c-7.987,0 -14.466,6.475 -14.466,14.463l-0,16.774l215.7,0Z" style="fill:#b8d3ef;fill-rule:nonzero;"/><path d="M1711.85,1024.48c0,22.021 -17.85,39.871 -39.871,39.871c-22.021,0 -39.866,-17.85 -39.866,-39.871c-0,-22.016 17.845,-39.866 39.866,-39.866c22.021,-0 39.871,17.85 39.871,39.866Z" style="fill:#fef3f8;fill-rule:nonzero;"/><path d="M1709.61,1347.22c0.174,-0.946 0.291,-1.913 0.291,-2.908l0,-225.659c0,-8.796 -7.129,-15.925 -15.929,-15.925l-55.396,0c-8.8,0 -15.929,7.129 -15.929,15.925l0,225.659c0,0.995 0.117,1.962 0.292,2.908l86.671,-0Z" style="fill:#2c296a;fill-rule:nonzero;"/><path d="M2693.6,1420.97l-2635.44,-0c-22.105,-0 -40.021,-17.917 -40.021,-40.021c-0,-22.1 17.916,-40.017 40.021,-40.017l2635.44,0c22.104,0 40.021,17.917 40.021,40.017c0,22.104 -17.917,40.021 -40.021,40.021Z" style="fill:#009fcb;fill-rule:nonzero;"/><path d="M1059.11,172.058c-24.183,0 -24.183,-37.5 0,-37.5c24.18,0 24.18,37.5 0,37.5Z" style="fill:#e3f3fc;fill-rule:nonzero;"/><path d="M1394.33,599.346c-24.179,-0 -24.179,-37.5 0,-37.5c24.183,-0 24.183,37.5 0,37.5Z" style="fill:#ceeafa;fill-rule:nonzero;"/><path d="M1834.22,329.904c-24.184,0 -24.184,-37.5 -0,-37.5c24.183,0 24.183,37.5 -0,37.5Z" style="fill:#ceeafa;fill-rule:nonzero;"/><path d="M1925.89,49.35c-24.184,-0 -24.184,-37.5 -0,-37.5c24.179,-0 24.179,37.5 -0,37.5Z" style="fill:#e3f3fc;fill-rule:nonzero;"/><path d="M2148.11,252.129c-24.183,0 -24.183,-37.504 0,-37.504c24.179,0 24.179,37.504 0,37.504Z" style="fill:#ceeafa;fill-rule:nonzero;"/><path d="M2517.51,68.1c-24.183,-0 -24.183,-37.5 0,-37.5c24.184,-0 24.184,37.5 0,37.5Z" style="fill:#e3f3fc;fill-rule:nonzero;"/><path d="M2525.89,599.346c-24.184,-0 -24.184,-37.5 -0,-37.5c24.179,-0 24.179,37.5 -0,37.5Z" style="fill:#ceeafa;fill-rule:nonzero;"/><path d="M2720.33,721.571c-24.183,-0 -24.183,-37.5 0,-37.5c24.179,-0 24.179,37.5 0,37.5Z" style="fill:#e3f3fc;fill-rule:nonzero;"/><path d="M36.004,640.387c-22.475,-0.004 -24.708,-35.595 -1.2,-37.454c0.6,-0.05 1.184,-0.071 1.758,-0.071c22.475,0 24.709,35.592 1.2,37.455c-0.6,0.045 -1.183,0.07 -1.758,0.07Z" style="fill:#e3f3fc;fill-rule:nonzero;"/><path d="M201.167,854.638c-12.967,-8.934 -9.475,-34.459 10.475,-34.459c1.075,0 2.104,0.075 3.087,0.217c-4.725,11.316 -9.241,22.729 -13.562,34.242Z" style="fill:#d9effb;fill-rule:nonzero;"/><path d="M211.642,857.679c-4.234,0 -7.725,-1.146 -10.475,-3.041c4.321,-11.513 8.837,-22.926 13.562,-34.242c21.05,3.046 20.021,37.283 -3.087,37.283Z" style="fill:#c5e6f9;fill-rule:nonzero;"/><path d="M851.888,279.3c-24.18,0 -24.18,-37.5 -0,-37.5c24.183,0 24.183,37.5 -0,37.5Z" style="fill:#e3f3fc;fill-rule:nonzero;"/><path d="M1651.9,693.325c-24.183,-0 -24.183,-37.5 -0,-37.5c24.179,-0 24.179,37.5 -0,37.5Z" style="fill:#ceeafa;fill-rule:nonzero;"/><path d="M1090.54,491.271c-24.184,-0 -24.184,-37.5 -0,-37.5c24.183,-0 24.183,37.5 -0,37.5Z" style="fill:#d9effb;fill-rule:nonzero;"/><path d="M18.133,958.429c-24.175,0 -24.175,-37.5 0,-37.5c24.184,0 24.184,37.5 0,37.5Z" style="fill:#e3f3fc;fill-rule:nonzero;"/><path d="M411.921,101.867c-24.184,-0 -24.184,-37.5 -0,-37.5c24.183,-0 24.183,37.5 -0,37.5Z" style="fill:#e3f3fc;fill-rule:nonzero;"/><path d="M2562,782.679c-24.179,0 -24.179,-37.5 -0,-37.5c24.183,0 24.183,37.5 -0,37.5Z" style="fill:#ceeafa;fill-rule:nonzero;"/><path d="M1189.07,827.1c-24.184,-0 -24.184,-37.5 -0,-37.5c24.179,-0 24.179,37.5 -0,37.5Z" style="fill:#c5e6f9;fill-rule:nonzero;"/></g></svg>